<svg xmlns="http://www.w3.org/2000/svg" width="533.666" height="411" viewBox="0 0 533.666 411">
  <g id="about" transform="translate(-161.555 -70.357)">
    <g id="Group_505" data-name="Group 505" transform="translate(162.026 151.496)">
      <path id="Path_309" data-name="Path 309" d="M668.087,408.556c24.236-44.618,46.7-140.83-7.646-175.664s-122.422,14.744-185.079-44.853C405.37,121.465,287.264,119,289.735,221.953c.059,2.447-10.634,51.433-64.157,61.5-61.9,11.637-66.035,56.3-62.741,88.816,1.887,18.62,9.879,58.83,54.029,92.818H624.285C646.039,445.963,659.031,425.23,668.087,408.556Z" transform="translate(-162.026 -140.871)" fill="#eff2f4" stroke="#707070" stroke-width="1"/>
    </g>
    <g id="Group_511" data-name="Group 511" transform="translate(181.34 90.108)">
      <g id="Group_508" data-name="Group 508">
        <g id="Group_507" data-name="Group 507">
          <g id="Group_506" data-name="Group 506">
            <path id="Rectangle_21" data-name="Rectangle 21" d="M6.262,0H55.331a6.262,6.262,0,0,1,6.262,6.262V54.7a6.262,6.262,0,0,1-6.262,6.262H8.025A8.025,8.025,0,0,1,0,52.938V6.262A6.262,6.262,0,0,1,6.262,0Z" fill="#008c8d" stroke="#707070" stroke-width="1"/>
          </g>
        </g>
      </g>
      <g id="Group_510" data-name="Group 510" transform="translate(16.992 14.262)">
        <g id="Group_509" data-name="Group 509" transform="translate(9.474)">
          <path id="Path_310" data-name="Path 310" d="M201.964,127.178c5.158.089,10.378.158,15.12-.169,1.5-.1,2.8-2.49.976-3.242a3.376,3.376,0,0,0,1.88-1.633,1.611,1.611,0,0,0-.912-2.131c1.789.443,2.494-2.4,1.1-3.311a4.181,4.181,0,0,0,1.509-2.419,2.425,2.425,0,0,0-1.088-2.5,3.906,3.906,0,0,0-1.859-.32l-6.434-.048c.58-3.356.756-7.014-.95-9.962-.514-.888-1.895-1.952-2.99-1.269-1.027.64-.742,2.233-.69,3.238a11.336,11.336,0,0,1-5.85,10.34S202.018,122.642,201.964,127.178Z" transform="translate(-201.774 -99.954)" fill="#fefefe" stroke="#707070" stroke-width="1"/>
        </g>
        <rect id="Rectangle_22" data-name="Rectangle 22" width="7.794" height="13.416" transform="translate(0 13.796)" fill="#fefefe" stroke="#707070" stroke-width="1"/>
      </g>
    </g>
    <g id="Group_515" data-name="Group 515" transform="translate(583.544 70.857)">
      <g id="Group_513" data-name="Group 513">
        <g id="Group_512" data-name="Group 512">
          <path id="Rectangle_23" data-name="Rectangle 23" d="M4.006,0h57.36a4.006,4.006,0,0,1,4.006,4.006V45.063a4.006,4.006,0,0,1-4.006,4.006H0a0,0,0,0,1,0,0V4.006A4.006,4.006,0,0,1,4.006,0Z" transform="translate(0.046)" fill="#ffd147" stroke="#707070" stroke-width="1"/>
          <path id="Path_311" data-name="Path 311" d="M528.077,100.673,528,123.707l19.668-22.973Z" transform="translate(-528.005 -66.333)" fill="#ffd147" stroke="#707070" stroke-width="1"/>
        </g>
      </g>
      <g id="Group_514" data-name="Group 514" transform="translate(12.138 15.037)">
        <line id="Line_1" data-name="Line 1" x2="42.401" transform="translate(0 9.78)" fill="none" stroke="#fff" stroke-miterlimit="10" stroke-width="1.015"/>
        <line id="Line_2" data-name="Line 2" x2="42.401" fill="none" stroke="#fff" stroke-miterlimit="10" stroke-width="1.015"/>
        <line id="Line_3" data-name="Line 3" x2="14.902" transform="translate(0 18.206)" fill="none" stroke="#fff" stroke-miterlimit="10" stroke-width="1.015"/>
      </g>
    </g>
    <g id="Group_518" data-name="Group 518" transform="translate(640.224 248.371)">
      <g id="Group_516" data-name="Group 516" transform="translate(0 0)">
        <path id="Path_312" data-name="Path 312" d="M622.833,242.742H586.1a8.879,8.879,0,0,1-8.879-8.88h0a8.879,8.879,0,0,1,8.879-8.88h36.737a8.88,8.88,0,0,1,8.88,8.88h0A8.88,8.88,0,0,1,622.833,242.742Z" transform="translate(-577.217 -224.982)" fill="#008c8d" stroke="#707070" stroke-width="1"/>
      </g>
      <g id="Group_517" data-name="Group 517" transform="translate(14.271 6.1)">
        <circle id="Ellipse_3" data-name="Ellipse 3" cx="2.37" cy="2.37" r="2.37" transform="translate(0 0.987) rotate(-12.023)" fill="#fff" stroke="#707070" stroke-width="1"/>
        <path id="Path_313" data-name="Path 313" d="M603.557,233a2.37,2.37,0,1,1-2.377-2.362A2.37,2.37,0,0,1,603.557,233Z" transform="translate(-588.21 -230.224)" fill="#fff" stroke="#707070" stroke-width="1"/>
        <path id="Path_314" data-name="Path 314" d="M612.382,232.969a2.37,2.37,0,1,1-2.377-2.362A2.369,2.369,0,0,1,612.382,232.969Z" transform="translate(-586.871 -230.229)" fill="#fff" stroke="#707070" stroke-width="1"/>
      </g>
    </g>
    <g id="Group_519" data-name="Group 519" transform="translate(433.341 205.415)">
      <path id="Path_315" data-name="Path 315" d="M509.115,197.733l-39.8,33.262a14.938,14.938,0,0,0-2.34,20.47h0a14.939,14.939,0,0,0,19.606,3.805l41.578-24.944Z" transform="translate(-387.522 -186.161)" fill="#f49a82"/>
      <path id="Path_316" data-name="Path 316" d="M507.939,189.979l-15.666,13.587,29.1,36.558,11.5-8.769a9.369,9.369,0,0,0,2.738-11.566L522.5,192.944A9.371,9.371,0,0,0,507.939,189.979Z" transform="translate(-383.225 -187.685)" fill="#008c8d" stroke="#707070" stroke-width="1"/>
      <path id="Path_317" data-name="Path 317" d="M489.464,226.671l-64.236-19.033-1.815,18.223,55.255,28.648a14.955,14.955,0,0,0,19.665-7.074h0A14.954,14.954,0,0,0,489.464,226.671Z" transform="translate(-393.674 -184.658)" fill="#f49a82"/>
      <path id="Path_318" data-name="Path 318" d="M431.832,207.072c-2.756-4.119-6.172-8.97-7.664-10.927a3.173,3.173,0,0,0-5.53,2.93l2,4.721-16.1-7.133a2.673,2.673,0,0,0-3.31.868,2.578,2.578,0,0,0,.8,3.63L404.452,203l-2.545-1.133a2.462,2.462,0,0,0-3.1.87,2.375,2.375,0,0,0,.925,3.352l1.612.909c-1.5-.481-2.909-.13-3.363.887h0A2.313,2.313,0,0,0,399,210.929l2.307,1.023c-2.307-1.023-3.17-.146-3.517.633a2.225,2.225,0,0,0,1.005,2.882l9.98,6.95a24.628,24.628,0,0,0,7.066,3.412c3.453,1.024,8.338,2.23,11.493,1.966l5.528-10.359S436.277,213.715,431.832,207.072Z" transform="translate(-397.593 -186.59)" fill="#ffab91" stroke="#707070" stroke-width="1"/>
    </g>
    <g id="Group_531" data-name="Group 531" transform="translate(301.687 90.219)">
      <g id="Group_521" data-name="Group 521">
        <path id="Path_319" data-name="Path 319" d="M483.688,445.846h0V115.5a27.837,27.837,0,0,0-27.832-27.832H311.117A27.837,27.837,0,0,0,283.285,115.5V450.473a27.827,27.827,0,0,0,27.832,27.833H455.852a27.837,27.837,0,0,0,27.836-27.832Z" transform="translate(-283.285 -87.668)" fill="#36474f" stroke="#707070" stroke-width="1"/>
        <g id="Group_520" data-name="Group 520" transform="translate(67.905 16.179)">
          <path id="Path_320" data-name="Path 320" d="M347.125,104.157a2.441,2.441,0,1,1-2.441-2.442A2.441,2.441,0,0,1,347.125,104.157Z" transform="translate(-342.243 -101.715)" fill="#fff" stroke="#707070" stroke-width="1"/>
          <path id="Path_321" data-name="Path 321" d="M398.18,106.433H352.943a2.358,2.358,0,0,1-2.358-2.359h0a2.358,2.358,0,0,1,2.358-2.359H398.18a2.359,2.359,0,0,1,2.359,2.359h0A2.359,2.359,0,0,1,398.18,106.433Z" transform="translate(-340.977 -101.715)" fill="#fff" stroke="#707070" stroke-width="1"/>
        </g>
        <circle id="Ellipse_4" data-name="Ellipse 4" cx="9.604" cy="9.604" r="9.604" transform="translate(90.596 361.047)" fill="#fff" stroke="#707070" stroke-width="1"/>
        <rect id="Rectangle_24" data-name="Rectangle 24" width="179.788" height="316.152" transform="translate(10.306 34.842)" fill="#fff" stroke="#707070" stroke-width="1"/>
      </g>
      <g id="Group_530" data-name="Group 530" transform="translate(10.306 43.331)">
        <g id="Group_523" data-name="Group 523" transform="translate(21.877 87.411)">
          <g id="Group_522" data-name="Group 522">
            <path id="Path_322" data-name="Path 322" d="M324.146,201.184l3.992,8.088,8.926,1.3-6.459,6.3,1.525,8.89-7.984-4.2-7.984,4.2,1.525-8.89-6.459-6.3,8.926-1.3Z" transform="translate(-311.227 -201.184)" fill="#ffd147" stroke="#707070" stroke-width="1"/>
            <path id="Path_323" data-name="Path 323" d="M355.28,201.184l3.992,8.088,8.926,1.3-6.459,6.3,1.524,8.89-7.984-4.2-7.984,4.2,1.525-8.89-6.459-6.3,8.926-1.3Z" transform="translate(-306.502 -201.184)" fill="#ffd147" stroke="#707070" stroke-width="1"/>
            <path id="Path_324" data-name="Path 324" d="M386.416,201.184l3.992,8.088,8.926,1.3-6.459,6.3,1.525,8.89-7.984-4.2-7.984,4.2,1.524-8.89-6.459-6.3,8.926-1.3Z" transform="translate(-301.777 -201.184)" fill="#ffd147" stroke="#707070" stroke-width="1"/>
            <path id="Path_325" data-name="Path 325" d="M417.551,201.184l3.992,8.088,8.926,1.3-6.459,6.3,1.525,8.89-7.984-4.2-7.984,4.2,1.525-8.89-6.459-6.3,8.926-1.3Z" transform="translate(-297.053 -201.184)" fill="#dee7ec" stroke="#707070" stroke-width="1"/>
          </g>
        </g>
        <path id="Path_326" data-name="Path 326" d="M398.545,253.56H313.277a7.673,7.673,0,0,1-7.673-7.673h0a7.673,7.673,0,0,1,7.673-7.674h85.268a7.673,7.673,0,0,1,7.673,7.674h0A7.673,7.673,0,0,1,398.545,253.56Z" transform="translate(-290.204 -108.153)" fill="none" stroke="#dee7ec" stroke-miterlimit="10" stroke-width="1.494"/>
        <rect id="Rectangle_25" data-name="Rectangle 25" width="147.474" height="35.145" rx="7.043" transform="translate(15.692 241.904)" fill="none" stroke="#dee7ec" stroke-miterlimit="10" stroke-width="1.59"/>
        <g id="Group_525" data-name="Group 525">
          <g id="Group_524" data-name="Group 524" transform="translate(16.839)">
            <path id="Path_327" data-name="Path 327" d="M314.755,129.241a3.951,3.951,0,1,1-3.951-3.951A3.951,3.951,0,0,1,314.755,129.241Z" transform="translate(-306.853 -125.29)" fill="#ffd147" stroke="#707070" stroke-width="1"/>
            <path id="Path_328" data-name="Path 328" d="M326.166,129.241a3.951,3.951,0,1,1-3.951-3.951A3.951,3.951,0,0,1,326.166,129.241Z" transform="translate(-305.121 -125.29)" fill="#ffd147" stroke="#707070" stroke-width="1"/>
            <path id="Path_329" data-name="Path 329" d="M337.577,129.241a3.951,3.951,0,1,1-3.951-3.951A3.951,3.951,0,0,1,337.577,129.241Z" transform="translate(-303.39 -125.29)" fill="#008c8d" stroke="#707070" stroke-width="1"/>
          </g>
          <line id="Line_4" data-name="Line 4" x2="180.159" transform="translate(0 15.363)" fill="none" stroke="#dee7ec" stroke-miterlimit="10" stroke-width="1.494"/>
        </g>
        <g id="Group_526" data-name="Group 526" transform="translate(77.11 37.739)">
          <line id="Line_5" data-name="Line 5" x2="72.006" fill="none" stroke="#dee7ec" stroke-miterlimit="10" stroke-width="1.494"/>
          <line id="Line_6" data-name="Line 6" x2="72.006" transform="translate(0 14.317)" fill="none" stroke="#dee7ec" stroke-miterlimit="10" stroke-width="1.494"/>
          <line id="Line_7" data-name="Line 7" x2="24.576" transform="translate(0 28.634)" fill="none" stroke="#dee7ec" stroke-miterlimit="10" stroke-width="1.494"/>
        </g>
        <g id="Group_529" data-name="Group 529" transform="translate(16.342 162.269)">
          <rect id="Rectangle_26" data-name="Rectangle 26" width="147.474" height="64.021" rx="7.043" fill="#ffd147" stroke="#707070" stroke-width="1"/>
          <g id="Group_528" data-name="Group 528" transform="translate(14.853 17.784)">
            <circle id="Ellipse_5" data-name="Ellipse 5" cx="14.57" cy="14.57" r="14.57" fill="#fff" stroke="#707070" stroke-width="1"/>
            <g id="Group_527" data-name="Group 527" transform="translate(38.153 2.593)">
              <line id="Line_8" data-name="Line 8" x2="78.554" fill="none" stroke="#fdfeff" stroke-linejoin="round" stroke-width="1.494"/>
              <line id="Line_9" data-name="Line 9" x2="78.554" transform="translate(0 11.005)" fill="none" stroke="#fdfeff" stroke-linejoin="round" stroke-width="1.494"/>
              <line id="Line_10" data-name="Line 10" x2="14.583" transform="translate(0 22.01)" fill="none" stroke="#fdfeff" stroke-linejoin="round" stroke-width="1.494"/>
            </g>
          </g>
        </g>
      </g>
    </g>
    <g id="Group_550" data-name="Group 550" transform="translate(461.108 150.061)">
      <g id="Group_539" data-name="Group 539" transform="translate(71.218 135.116)">
        <g id="Group_534" data-name="Group 534" transform="translate(0 3.739)">
          <g id="Group_533" data-name="Group 533" transform="translate(0 145.764)">
            <path id="Path_330" data-name="Path 330" d="M508.085,387.653l1.063,17.142h19.913l-1-18.052Z" transform="translate(-479.811 -386.742)" fill="#ffab91" stroke="#707070" stroke-width="1"/>
            <path id="Path_331" data-name="Path 331" d="M508.368,392.091l20.083,1.6-.194-3.494-20.014-.12Z" transform="translate(-479.787 -386.236)" fill="#f49a82" stroke="#707070" stroke-width="1"/>
            <path id="Path_332" data-name="Path 332" d="M508.368,392.091l20.083,1.6-.194-3.494-20.014-.12Z" transform="translate(-479.787 -386.236)" fill="#f49a82" stroke="#707070" stroke-width="1"/>
            <g id="Group_532" data-name="Group 532" transform="translate(0 15.858)">
              <path id="Path_333" data-name="Path 333" d="M506.819,400.511H537.08l4.188,29.7H486.542a3,3,0,0,1-1.487-5.607l22.41-12.778Z" transform="translate(-483.536 -400.511)" fill="#008c8d" stroke="#707070" stroke-width="1"/>
              <line id="Line_11" data-name="Line 11" x2="55.51" transform="translate(0.873 24.46)" fill="none" stroke="#000" stroke-miterlimit="10" stroke-width="0.853"/>
              <line id="Line_12" data-name="Line 12" x2="7.101" y2="2.721" transform="translate(15.715 15.997)" fill="none" stroke="#000" stroke-miterlimit="10" stroke-width="0.853"/>
              <line id="Line_13" data-name="Line 13" x2="7.101" y2="2.721" transform="translate(20.861 13.276)" fill="none" stroke="#000" stroke-miterlimit="10" stroke-width="0.853"/>
              <path id="Path_334" data-name="Path 334" d="M525.807,412.9a4.081,4.081,0,1,1-4.081-4.081A4.081,4.081,0,0,1,525.807,412.9Z" transform="translate(-478.36 -399.25)" fill="none" stroke="#000" stroke-miterlimit="10" stroke-width="0.853"/>
            </g>
          </g>
          <path id="Path_335" data-name="Path 335" d="M496.615,260.184l6.724,149.564,33.5.2-4.75-145.819Z" transform="translate(-481.551 -260.184)" fill="#053c5e" stroke="#707070" stroke-width="1"/>
        </g>
        <g id="Group_538" data-name="Group 538" transform="translate(27.217)">
          <g id="Group_536" data-name="Group 536" transform="translate(14.079 149.226)">
            <path id="Path_336" data-name="Path 336" d="M542.113,387.413l2.114,17.142h19.913L562.09,386.5Z" transform="translate(-515.942 -386.503)" fill="#ffab91" stroke="#707070" stroke-width="1"/>
            <path id="Path_337" data-name="Path 337" d="M542.7,392.041l20.208,1.572-.4-3.483H542.463Z" transform="translate(-515.889 -385.952)" fill="#f49a82" stroke="#707070" stroke-width="1"/>
            <path id="Path_338" data-name="Path 338" d="M542.7,392.041l20.208,1.572-.4-3.483H542.463Z" transform="translate(-515.889 -385.952)" fill="#f49a82" stroke="#707070" stroke-width="1"/>
            <g id="Group_535" data-name="Group 535" transform="translate(0 15.859)">
              <path id="Path_339" data-name="Path 339" d="M541.622,400.272h30.26l5.239,29.7H522.4a3,3,0,0,1-1.486-5.607l22.409-12.778Z" transform="translate(-519.391 -400.272)" fill="#008c8d" stroke="#707070" stroke-width="1"/>
              <line id="Line_14" data-name="Line 14" x2="55.51" transform="translate(0.873 24.459)" fill="none" stroke="#000" stroke-miterlimit="10" stroke-width="0.853"/>
              <line id="Line_15" data-name="Line 15" x2="7.101" y2="2.721" transform="translate(15.714 15.996)" fill="none" stroke="#000" stroke-miterlimit="10" stroke-width="0.853"/>
              <line id="Line_16" data-name="Line 16" x2="7.101" y2="2.721" transform="translate(20.861 13.276)" fill="none" stroke="#000" stroke-miterlimit="10" stroke-width="0.853"/>
              <path id="Path_340" data-name="Path 340" d="M561.662,412.665a4.081,4.081,0,1,1-4.082-4.082A4.081,4.081,0,0,1,561.662,412.665Z" transform="translate(-514.214 -399.011)" fill="none" stroke="#000" stroke-miterlimit="10" stroke-width="0.853"/>
            </g>
          </g>
          <g id="Group_537" data-name="Group 537">
            <path id="Path_341" data-name="Path 341" d="M558.154,259.119l15.215,151.222H539.29l-26.86-153.4Z" transform="translate(-506.368 -256.938)" fill="#053c5e" stroke="#707070" stroke-width="1"/>
            <path id="Path_342" data-name="Path 342" d="M540.422,407.382,517.034,284.694l-9.866-8.253" transform="translate(-507.167 -253.979)" fill="none" stroke="#554647" stroke-miterlimit="10" stroke-width="1.028"/>
          </g>
        </g>
      </g>
      <g id="Group_545" data-name="Group 545" transform="translate(0 33.252)">
        <path id="Path_343" data-name="Path 343" d="M519.553,185s-18-1.14-19.044,24.228-4.5,63.706-4.5,63.706l67.725,4.842-3.088-58.1S559.322,176.5,519.553,185Z" transform="translate(-410.425 -166.16)" fill="#008c8d" stroke="#707070" stroke-width="1"/>
        <g id="Group_544" data-name="Group 544">
          <g id="Group_540" data-name="Group 540">
            <path id="Path_344" data-name="Path 344" d="M442.7,168.5l6.488,13.148,14.51,2.108-10.5,10.234,2.479,14.451L442.7,201.615l-12.978,6.823,2.477-14.451-10.5-10.234,14.51-2.108Z" transform="translate(-421.701 -168.496)" fill="#ffd147" stroke="#707070" stroke-width="1"/>
            <path id="Path_345" data-name="Path 345" d="M510.686,246.527l-54.267-39.286-7.765,16.585,42.6,45.373a14.953,14.953,0,0,0,20.9-.139h0A14.955,14.955,0,0,0,510.686,246.527Z" transform="translate(-417.611 -162.616)" fill="#ffab91"/>
            <path id="Path_346" data-name="Path 346" d="M462.868,208.558c-1.231-4.8-2.842-10.511-3.6-12.852a3.173,3.173,0,0,0-6.188.927l.319,5.118-12.814-12.075a2.672,2.672,0,0,0-3.41-.28,2.575,2.575,0,0,0-.449,3.689l1.67,2.537-2.024-1.915a2.463,2.463,0,0,0-3.217-.21,2.374,2.374,0,0,0-.24,3.468l1.219,1.392c-1.257-.953-2.7-1.09-3.468-.28h0a2.311,2.311,0,0,0-.05,3.211l1.836,1.732c-1.836-1.732-2.94-1.192-3.528-.571a2.226,2.226,0,0,0-.009,3.052l7.105,9.869a24.621,24.621,0,0,0,5.532,5.564c2.917,2.113,7.124,4.873,10.188,5.672l8.655-7.934S464.855,216.3,462.868,208.558Z" transform="translate(-420.698 -165.399)" fill="#ffab91"/>
          </g>
          <g id="Group_543" data-name="Group 543" transform="translate(70.47 32.605)">
            <g id="Group_541" data-name="Group 541" transform="translate(0 13.309)">
              <path id="Path_347" data-name="Path 347" d="M518.89,208.36l-32.668,40.288a14.94,14.94,0,0,0,1.637,20.538h0a14.939,14.939,0,0,0,19.973-.032l36.011-32.467Z" transform="translate(-482.886 -208.36)" fill="#ffab91"/>
              <path id="Path_348" data-name="Path 348" d="M507.31,216.791l22.71,27.6,4.694-4.1Z" transform="translate(-479.179 -207.081)" fill="#f49a82" stroke="#707070" stroke-width="1"/>
            </g>
            <g id="Group_542" data-name="Group 542" transform="translate(24.522)">
              <path id="Path_349" data-name="Path 349" d="M516.94,200.408l-12.763,16.345,35.582,30.285,9.6-10.816a9.372,9.372,0,0,0,.465-11.877L531.8,200.521A9.372,9.372,0,0,0,516.94,200.408Z" transform="translate(-504.177 -196.805)" fill="#008c8d" stroke="#707070" stroke-width="1"/>
              <path id="Path_350" data-name="Path 350" d="M507.827,219.067l-2.955-2.274,12.488-16.2" transform="translate(-504.071 -196.23)" fill="none" stroke="#098245" stroke-miterlimit="10" stroke-width="1.257"/>
              <path id="Path_351" data-name="Path 351" d="M531.1,241.745s20.744-17.252,21.632-34.5" transform="translate(-500.091 -195.221)" fill="none" stroke="#098245" stroke-miterlimit="10" stroke-width="1.257"/>
            </g>
          </g>
        </g>
      </g>
      <g id="Group_549" data-name="Group 549" transform="translate(74.44)">
        <g id="Group_546" data-name="Group 546" transform="translate(21.195 30.698)">
          <path id="Path_352" data-name="Path 352" d="M530.835,186.678a5.467,5.467,0,0,0-.335-1.558l-7.151-18.842-18.612,5.556,3.666,18.9C511.133,199.844,530.763,186.725,530.835,186.678Z" transform="translate(-504.736 -166.278)" fill="#ffab91" stroke="#707070" stroke-width="1"/>
        </g>
        <path id="Path_353" data-name="Path 353" d="M526.6,159.839s6.32-19.529-6.357-18.261c-7.57.757-10.248-1.008-19.961-1.9-11.235-1.037-22.561,14.079-4.372,21.714L518.553,150.2Z" transform="translate(-486.333 -139.625)" fill="#4d2d3c" stroke="#707070" stroke-width="1"/>
        <path id="Path_354" data-name="Path 354" d="M504.445,164.324a5.58,5.58,0,1,1-6.6-4.321A5.58,5.58,0,0,1,504.445,164.324Z" transform="translate(-485.261 -136.551)" fill="#f49a82" stroke="#707070" stroke-width="1"/>
        <path id="Path_355" data-name="Path 355" d="M507.159,184.011l12.868-11.327-14.519,2.849Z" transform="translate(-483.424 -134.608)" fill="#4d2d3c" stroke="#707070" stroke-width="1"/>
        <path id="Path_356" data-name="Path 356" d="M517.069,181.3l-5.8,1.212a12.183,12.183,0,0,1-14.492-9.829l-2.464-14.1a13.611,13.611,0,0,1,10.625-15.667h0c7.359-1.538,15.861,2.913,17.4,10.271l2.626,16.682A10.073,10.073,0,0,1,517.069,181.3Z" transform="translate(-485.154 -139.172)" fill="#ffab91" stroke="#707070" stroke-width="1"/>
        <path id="Path_357" data-name="Path 357" d="M517.472,161.452l4.758,7.958-.691-9.62Z" transform="translate(-481.608 -136.565)" fill="#4d2d3c" stroke="#707070" stroke-width="1"/>
        <g id="Group_547" data-name="Group 547" transform="translate(10.744 20.256)">
          <path id="Path_358" data-name="Path 358" d="M502.185,165.379l.155,2.944,1.751-.366" transform="translate(-494.672 -155.973)" fill="none" stroke="#4d2d3c" stroke-linejoin="round" stroke-width="0.63"/>
          <path id="Path_359" data-name="Path 359" d="M507.791,157.3s-3.039.17-2.779,1.764c0,0,.2,1.075,2.84.86s3.271-.575,3.324-1.624S509.192,157.076,507.791,157.3Z" transform="translate(-494.245 -157.212)" fill="#4d2d3c" stroke="#707070" stroke-width="1"/>
          <path id="Path_360" data-name="Path 360" d="M497.9,159.282s2.4-.737,2.875.722c0,0,.3.992-1.812,1.573s-2.879.34-3.233-.442C495.332,160.248,496.735,159.5,497.9,159.282Z" transform="translate(-495.662 -156.926)" fill="#4d2d3c" stroke="#707070" stroke-width="1"/>
          <path id="Path_361" data-name="Path 361" d="M502.339,170.085l8.253-1.724s.625,2.884-4.171,3.893A3.386,3.386,0,0,1,502.339,170.085Z" transform="translate(-494.648 -155.52)" fill="#fff" stroke="#707070" stroke-width="1"/>
          <path id="Path_362" data-name="Path 362" d="M500.183,163.527a1.162,1.162,0,1,1-1.328-.97A1.164,1.164,0,0,1,500.183,163.527Z" transform="translate(-495.326 -156.403)" fill="#4d2d3c" stroke="#707070" stroke-width="1"/>
          <path id="Path_363" data-name="Path 363" d="M508.242,162.126a1.162,1.162,0,1,1-1.327-.969A1.163,1.163,0,0,1,508.242,162.126Z" transform="translate(-494.103 -156.615)" fill="#4d2d3c" stroke="#707070" stroke-width="1"/>
        </g>
        <path id="Path_364" data-name="Path 364" d="M523.464,162.518s-10.324-2.359-9.169-10.811c0,0-15.211-3.688-19.859,4.905l-4.04-13.877,20.022-.924,14.443,2.208,1.119,15.489Z" transform="translate(-485.717 -139.293)" fill="#4d2d3c" stroke="#707070" stroke-width="1"/>
        <g id="Group_548" data-name="Group 548" transform="translate(34.688 17.787)">
          <path id="Path_365" data-name="Path 365" d="M527.494,159.509a5.58,5.58,0,1,1-6.6-4.321A5.581,5.581,0,0,1,527.494,159.509Z" transform="translate(-516.451 -155.069)" fill="#ffab91" stroke="#707070" stroke-width="1"/>
          <path id="Path_366" data-name="Path 366" d="M519.944,162.215s-.827-3.96,3.089-4.128" transform="translate(-515.932 -154.611)" fill="none" stroke="#4d2d3c" stroke-linejoin="round" stroke-width="0.63"/>
        </g>
      </g>
    </g>
  </g>
</svg>
