<svg xmlns="http://www.w3.org/2000/svg" width="471.396" height="397.615" viewBox="0 0 471.396 397.615">
  <g id="app" transform="translate(-14.302 -53.785)">
    <g id="Group_86" data-name="Group 86">
      <g id="Group_80" data-name="Group 80">
        <g id="Group_67" data-name="Group 67">
          <g id="Group_66" data-name="Group 66">
            <g id="Group_65" data-name="Group 65">
              <g id="Group_64" data-name="Group 64">
                <g id="Group_63" data-name="Group 63">
                  <path id="Path_136" data-name="Path 136" d="M402.475,259.818a31.306,31.306,0,0,1-7.051,4.439l-.411,7.714-12.6,2.156-2.954-7.137a31.327,31.327,0,0,1-8.127-1.841l-5.743,5.162-10.432-7.384,2.957-7.133a31.22,31.22,0,0,1-4.439-7.052l-7.715-.41-2.156-12.6,7.138-2.954a31.339,31.339,0,0,1,1.842-8.127l-5.163-5.742,7.383-10.435,7.134,2.959A31.215,31.215,0,0,1,369.192,207l.411-7.716,12.6-2.156,2.953,7.139a31.419,31.419,0,0,1,8.127,1.841l5.742-5.161,10.434,7.383-2.958,7.132a31.283,31.283,0,0,1,4.439,7.053l7.715.411,2.157,12.6-7.139,2.954a31.34,31.34,0,0,1-1.842,8.127l5.162,5.742-7.382,10.433-7.134-2.957Zm-9.311-15.8a13.711,13.711,0,1,0-19.112,3.272A13.71,13.71,0,0,0,393.164,244.021Z" fill="none" stroke="#707070" stroke-width="1"/>
                </g>
              </g>
            </g>
          </g>
        </g>
        <g id="Group_73" data-name="Group 73">
          <g id="Group_72" data-name="Group 72">
            <g id="Group_71" data-name="Group 71">
              <g id="Group_70" data-name="Group 70">
                <g id="Group_69" data-name="Group 69">
                  <g id="Group_68" data-name="Group 68">
                    <path id="Path_137" data-name="Path 137" d="M393.164,244.021a10.352,10.352,0,0,1-2.184,2.6,13.645,13.645,0,0,1-8.522,3.445,13.821,13.821,0,0,1-6.336-1.215,14.032,14.032,0,0,1-5.7-4.731,14.047,14.047,0,0,1-2.531-7.776,13.988,13.988,0,0,1,9.625-13.6,14.049,14.049,0,0,1,8.176-.2,14.03,14.03,0,0,1,6.358,3.8,13.824,13.824,0,0,1,3.253,5.572,13.643,13.643,0,0,1-.415,9.182,10.335,10.335,0,0,1-1.726,2.925c-.083-.051.682-1.015,1.441-3.035a13.667,13.667,0,0,0,.169-8.9,13.391,13.391,0,0,0-9.271-8.84,13.384,13.384,0,0,0-7.742.233,13.284,13.284,0,0,0-9.1,12.857,13.41,13.41,0,0,0,2.356,7.377,13.4,13.4,0,0,0,11.42,5.8,13.667,13.667,0,0,0,8.342-3.122C392.434,245,393.089,243.959,393.164,244.021Z" fill="#e0e0e0" stroke="#707070" stroke-width="1"/>
                  </g>
                </g>
              </g>
            </g>
          </g>
        </g>
        <g id="Group_79" data-name="Group 79">
          <g id="Group_78" data-name="Group 78">
            <g id="Group_77" data-name="Group 77">
              <g id="Group_76" data-name="Group 76">
                <g id="Group_75" data-name="Group 75">
                  <g id="Group_74" data-name="Group 74">
                    <path id="Path_138" data-name="Path 138" d="M402.475,259.819a2.948,2.948,0,0,1,.455.157l1.362.532,5.364,2.151-.15.043,7.322-10.475.015.249-5.186-5.721-.093-.1.049-.132a31.276,31.276,0,0,0,1.8-8.07l.014-.155.145-.061,7.13-2.974-.169.306c-.688-3.965-1.419-8.173-2.186-12.591l.289.257-7.715-.4-.2-.01-.083-.179a31.058,31.058,0,0,0-4.4-6.97l-.131-.157.078-.191c.914-2.212,1.921-4.652,2.948-7.136l.121.42-10.442-7.37.456-.027-5.737,5.167-.169.152-.212-.079a31.145,31.145,0,0,0-8.029-1.812l-.23-.021-.088-.213-2.958-7.137.421.232-12.6,2.162.325-.365c-.13,2.437-.269,5.067-.41,7.715l-.012.238-.217.1a30.994,30.994,0,0,0-6.956,4.379l0,0,0,0-.4.062-.007,0-.014-.006-.028-.011-.057-.024-.112-.046-.225-.094-.448-.186-.9-.372-1.789-.742-3.556-1.475.471-.136-7.386,10.433-.028-.486,5.16,5.745.157.174-.082.219a30.994,30.994,0,0,0-1.825,8.026l-.02.23-.214.088-7.14,2.949.226-.41,2.144,12.6-.337-.3,7.714.42.213.012.089.194a30.984,30.984,0,0,0,4.379,6.98l.132.159-.079.19-2.969,7.127-.113-.392,10.417,7.4-.375.022,5.755-5.148.128-.115.159.06a31.165,31.165,0,0,0,8.052,1.848l.157.015.059.144c1.065,2.6,2.024,4.937,2.929,7.147l-.253-.14,12.607-2.1-.147.164c.184-3.08.335-5.607.461-7.711l0-.078.07-.031a32.424,32.424,0,0,0,5.435-3.106l1.25-.918a3.06,3.06,0,0,1,.418-.3,4.117,4.117,0,0,1-.377.351c-.262.221-.659.555-1.214.971a30.281,30.281,0,0,1-5.407,3.231l.074-.108c-.1,2.106-.217,4.634-.361,7.716l-.007.141-.14.024-12.588,2.212-.182.032-.072-.173-2.978-7.127.216.158a31.561,31.561,0,0,1-8.2-1.834l.288-.054-5.731,5.176-.178.161-.2-.139-10.447-7.363-.214-.15.1-.242,2.945-7.138.053.349a31.69,31.69,0,0,1-4.5-7.124l.3.206-7.715-.4-.289-.015-.049-.286q-1.057-6.141-2.169-12.593l-.051-.295.277-.115,7.136-2.96-.234.317a31.654,31.654,0,0,1,1.861-8.226l.074.392-5.165-5.74-.209-.231.18-.254,7.38-10.436.182-.257.29.121,3.556,1.474,1.789.742.9.372.449.186.225.093.112.047.056.023.028.011.014.006.007,0-.4.061v0l0,0a31.709,31.709,0,0,1,7.135-4.489l-.229.336c.142-2.649.282-5.279.413-7.715l.016-.313.308-.052,12.6-2.151.3-.052.117.285c1.018,2.464,2.025,4.9,2.949,7.141l-.317-.234a31.9,31.9,0,0,1,8.222,1.87l-.38.072,5.747-5.155.219-.2.238.169,10.424,7.4.229.162-.107.259c-1.034,2.481-2.049,4.918-2.969,7.127l-.053-.347a31.678,31.678,0,0,1,4.475,7.135l-.278-.19,7.713.426.248.014.041.243c.747,4.422,1.458,8.633,2.128,12.6l.037.221-.206.085-7.147,2.934.158-.215a31.605,31.605,0,0,1-1.883,8.184l-.044-.235,5.139,5.763.107.12-.093.129-7.443,10.389-.059.083-.092-.039c-2.284-.978-4.044-1.732-5.266-2.254l-1.356-.6A3.892,3.892,0,0,1,402.475,259.819Z" fill="#e0e0e0" stroke="#707070" stroke-width="1"/>
                  </g>
                </g>
              </g>
            </g>
          </g>
        </g>
      </g>
      <g id="Group_85" data-name="Group 85">
        <g id="Group_84" data-name="Group 84">
          <g id="Group_83" data-name="Group 83">
            <g id="Group_82" data-name="Group 82">
              <g id="Group_81" data-name="Group 81">
                <path id="Path_139" data-name="Path 139" d="M390.2,164.694a44.348,44.348,0,0,1-9.969,6.277l-.581,10.906-17.812,3.049-4.176-10.092a44.274,44.274,0,0,1-11.491-2.6l-8.121,7.3L323.3,169.09l4.18-10.085a44.25,44.25,0,0,1-6.276-9.971l-10.907-.581-3.05-17.81,10.093-4.178a44.279,44.279,0,0,1,2.605-11.49l-7.3-8.119L323.087,92.1l10.086,4.183a44.186,44.186,0,0,1,9.97-6.276l.581-10.909,17.812-3.049,4.176,10.1a44.357,44.357,0,0,1,11.49,2.6l8.12-7.3L400.074,91.89l-4.183,10.085a44.139,44.139,0,0,1,6.277,9.971l10.909.581,3.049,17.81-10.094,4.177a44.294,44.294,0,0,1-2.6,11.491l7.3,8.119-10.439,14.75-10.086-4.18Zm-13.165-22.336a19.386,19.386,0,1,0-27.022,4.626A19.385,19.385,0,0,0,377.037,142.358Z" fill="#e0e0e0" stroke="#707070" stroke-width="1" fill-rule="evenodd"/>
              </g>
            </g>
          </g>
        </g>
      </g>
    </g>
    <g id="Group_111" data-name="Group 111">
      <g id="Group_110" data-name="Group 110">
        <g id="Group_92" data-name="Group 92">
          <g id="Group_91" data-name="Group 91">
            <g id="Group_90" data-name="Group 90">
              <g id="Group_89" data-name="Group 89">
                <g id="Group_88" data-name="Group 88">
                  <g id="Group_87" data-name="Group 87">
                    <path id="Path_140" data-name="Path 140" d="M166.5,161.413a41.95,41.95,0,0,1,6.459,9.069l10.323-.039,3.836,16.643-9.3,4.485a41.848,41.848,0,0,1-1.837,10.983l7.325,7.269L174.253,224.3l-9.742-3.4a41.776,41.776,0,0,1-9.071,6.459l.039,10.324-16.641,3.837-4.486-9.3a41.858,41.858,0,0,1-10.983-1.839L116.1,237.71l-14.483-9.056,3.4-9.743a41.8,41.8,0,0,1-6.459-9.069l-10.325.039L84.4,193.237l9.3-4.484a41.972,41.972,0,0,1,1.837-10.983L88.215,170.5,97.27,156.02l9.742,3.4a41.713,41.713,0,0,1,9.071-6.46l-.04-10.325,16.642-3.836,4.485,9.3a41.858,41.858,0,0,1,10.984,1.839l7.267-7.325L169.9,151.67l-3.4,9.743Zm-20.369,13.626a18.322,18.322,0,1,0,5.821,25.249A18.321,18.321,0,0,0,146.133,175.039Z" fill="#e0e0e0" stroke="#707070" stroke-width="1" fill-rule="evenodd"/>
                  </g>
                </g>
              </g>
            </g>
          </g>
        </g>
        <g id="Group_98" data-name="Group 98">
          <g id="Group_97" data-name="Group 97">
            <g id="Group_96" data-name="Group 96">
              <g id="Group_95" data-name="Group 95">
                <g id="Group_94" data-name="Group 94">
                  <g id="Group_93" data-name="Group 93">
                    <path id="Path_141" data-name="Path 141" d="M176.558,91.412a23.222,23.222,0,0,1,3.576,5.02l5.715-.021,2.124,9.214-5.148,2.483a23.193,23.193,0,0,1-1.017,6.081l4.055,4.024-5.014,8.018-5.394-1.884a23.107,23.107,0,0,1-5.022,3.576l.022,5.716-9.213,2.124-2.484-5.148a23.154,23.154,0,0,1-6.08-1.018l-4.024,4.056-8.019-5.014,1.884-5.394a23.136,23.136,0,0,1-3.576-5.021l-5.716.021L131.1,109.03l5.149-2.482a23.193,23.193,0,0,1,1.017-6.08l-4.055-4.025,5.014-8.018,5.393,1.885a23.16,23.16,0,0,1,5.022-3.577l-.021-5.716,9.213-2.124,2.483,5.149a23.159,23.159,0,0,1,6.081,1.017L170.423,81l8.017,5.013-1.882,5.4Zm-11.277,7.543a10.144,10.144,0,1,0,3.222,13.98A10.145,10.145,0,0,0,165.281,98.955Z" fill="#e0e0e0" stroke="#707070" stroke-width="1" fill-rule="evenodd"/>
                  </g>
                </g>
              </g>
            </g>
          </g>
        </g>
        <g id="Group_109" data-name="Group 109">
          <g id="Group_108" data-name="Group 108">
            <g id="Group_107" data-name="Group 107">
              <g id="Group_106" data-name="Group 106">
                <g id="Group_105" data-name="Group 105">
                  <g id="Group_104" data-name="Group 104">
                    <g id="Group_99" data-name="Group 99">
                      <path id="Path_142" data-name="Path 142" d="M105.523,102.332a18.822,18.822,0,0,1,2.9,4.068l4.631-.018,1.721,7.467L110.6,115.86a18.782,18.782,0,0,1-.824,4.927l3.286,3.261-4.063,6.5-4.37-1.526a18.764,18.764,0,0,1-4.069,2.9l.017,4.631-7.465,1.721L91.1,134.1a18.79,18.79,0,0,1-4.927-.825l-3.261,3.286-6.5-4.062,1.527-4.371a18.758,18.758,0,0,1-2.9-4.068l-4.632.017-1.72-7.466,4.172-2.012a18.837,18.837,0,0,1,.824-4.927l-3.286-3.26,4.063-6.5,4.37,1.527a18.73,18.73,0,0,1,4.069-2.9l-.018-4.632,7.466-1.721,2.012,4.172a18.8,18.8,0,0,1,4.927.825l3.26-3.286,6.5,4.062-1.525,4.371Zm-9.137,6.112A8.219,8.219,0,1,0,99,119.771,8.219,8.219,0,0,0,96.386,108.444Z" fill="none" stroke="#707070" stroke-width="1"/>
                    </g>
                    <g id="Group_101" data-name="Group 101">
                      <g id="Group_100" data-name="Group 100">
                        <path id="Path_143" data-name="Path 143" d="M96.386,108.444a1.992,1.992,0,0,1,.46.258,6.534,6.534,0,0,1,1.178.954,8.179,8.179,0,0,1,2.363,4.987,8.284,8.284,0,0,1-.509,3.843,8.424,8.424,0,0,1-2.642,3.583,8.455,8.455,0,0,1-4.579,1.787,8.409,8.409,0,0,1-8.495-5.312,8.448,8.448,0,0,1-.4-4.9,8.429,8.429,0,0,1,2.065-3.944,8.3,8.3,0,0,1,3.232-2.14,8.181,8.181,0,0,1,5.519-.058,6.465,6.465,0,0,1,1.373.641,2.016,2.016,0,0,1,.434.3c-.03.054-.635-.368-1.869-.749a8.188,8.188,0,0,0-5.327.21,8.017,8.017,0,0,0-4.958,5.839,8.023,8.023,0,0,0,.4,4.612,7.943,7.943,0,0,0,7.982,4.991,8.023,8.023,0,0,0,4.323-1.656,8.02,8.02,0,0,0,3.08-7.014,8.191,8.191,0,0,0-2.143-4.881C96.994,108.853,96.349,108.494,96.386,108.444Z" fill="#e0e0e0" stroke="#707070" stroke-width="1"/>
                      </g>
                    </g>
                    <g id="Group_103" data-name="Group 103">
                      <g id="Group_102" data-name="Group 102">
                        <path id="Path_144" data-name="Path 144" d="M105.523,102.332a1.608,1.608,0,0,1,.077-.278l.269-.833q.385-1.15,1.1-3.287l.034.1-6.522-4.021.164-.019-3.246,3.3-.064.066-.089-.027a18.734,18.734,0,0,0-4.888-.8l-.1,0-.045-.094c-.632-1.3-1.315-2.7-2.025-4.165l.208.1-7.461,1.74.159-.2c.009,1.433.018,3.012.028,4.631v.13L83,98.731a18.641,18.641,0,0,0-4.016,2.872l-.1.093-.129-.045-4.373-1.52.274-.1-4.054,6.5-.035-.3c1.025,1.014,2.149,2.128,3.289,3.257l.106.1-.044.143a18.7,18.7,0,0,0-.809,4.862l0,.153-.138.066L68.8,116.837l.138-.287c.546,2.364,1.131,4.9,1.725,7.466l-.254-.2,4.632-.018H75.2l.073.139a18.56,18.56,0,0,0,2.855,4.009v0h0c.025.118-.055-.263.057.265l0,0,0,.009-.006.017-.012.035-.024.068-.048.138-.1.275-.192.55-.383,1.1-.762,2.178-.107-.306,6.5,4.064-.32.037,3.262-3.284.109-.11.148.045a18.5,18.5,0,0,0,4.86.818l.153.005.066.137,2.008,4.173-.279-.134,7.467-1.713-.186.235q0-2.358-.011-4.631v-.142l.125-.066a18.53,18.53,0,0,0,4.023-2.855l.1-.094.128.046,4.367,1.534-.255.089,4.078-6.486.028.247-3.277-3.27-.08-.08.033-.108a18.706,18.706,0,0,0,.832-4.877l0-.1.093-.045,4.178-2-.083.173c-.652-2.9-1.208-5.361-1.685-7.474l.114.09-4.63-.015h-.052l-.023-.045a19.445,19.445,0,0,0-2.041-3.148l-.59-.718a1.722,1.722,0,0,1-.192-.241,2.234,2.234,0,0,1,.224.212c.142.149.356.374.625.692a18.173,18.173,0,0,1,2.122,3.125l-.074-.045,4.631-.05h.092l.022.091c.5,2.108,1.077,4.57,1.757,7.458l.028.119-.111.054-4.164,2.027.1-.148a18.957,18.957,0,0,1-.817,4.976l-.047-.187c1.049,1.035,2.137,2.108,3.3,3.252l.113.111-.084.136-4.049,6.5-.091.147-.164-.057-4.373-1.518.228-.048a19.01,19.01,0,0,1-4.113,2.939l.124-.207q.012,2.274.024,4.631v.191l-.187.044-7.463,1.729-.193.045-.087-.179-2.016-4.169.219.142a19.019,19.019,0,0,1-4.994-.833l.257-.064L83.1,136.74l-.145.146-.174-.109-6.5-4.061-.176-.11.068-.2q.379-1.085.761-2.179l.383-1.1.192-.55.1-.275.048-.137.024-.069.012-.035.006-.017,0-.008,0-.005c.111.527.03.146.055.263h0v0a19.056,19.056,0,0,1-2.935-4.122l.231.138-4.632.017h-.206l-.047-.2c-.591-2.569-1.173-5.1-1.717-7.467l-.046-.2.184-.088,4.173-2.009-.142.219a19.121,19.121,0,0,1,.839-4.991l.062.248-3.281-3.264-.138-.137.1-.164,4.071-6.491.1-.157.175.061,4.367,1.534-.228.048A19,19,0,0,1,82.8,98.351l-.114.191c0-1.619-.005-3.2-.008-4.632v-.164l.159-.037,7.47-1.7.145-.033.064.133,2,4.178-.149-.1a18.945,18.945,0,0,1,4.967.85l-.154.038,3.275-3.271.076-.075.088.056,6.47,4.1.057.036-.022.062q-.762,2.094-1.173,3.226c-.131.351-.234.625-.312.832A2.182,2.182,0,0,1,105.523,102.332Z" fill="#e0e0e0" stroke="#707070" stroke-width="1"/>
                      </g>
                    </g>
                  </g>
                </g>
              </g>
            </g>
          </g>
        </g>
      </g>
    </g>
    <g id="Group_119" data-name="Group 119">
      <g id="Group_118" data-name="Group 118">
        <g id="Group_117" data-name="Group 117">
          <g id="Group_116" data-name="Group 116">
            <g id="Group_113" data-name="Group 113">
              <g id="Group_112" data-name="Group 112">
                <path id="Path_145" data-name="Path 145" d="M333.657,445.872l-132.863-.615a28.94,28.94,0,0,1-28.807-29.063l1.407-333.089a28.944,28.944,0,0,1,29.075-28.82l132.863.614A28.943,28.943,0,0,1,364.14,83.963l-1.408,333.09A28.942,28.942,0,0,1,333.657,445.872Z" fill="#455a64" stroke="#707070" stroke-width="1"/>
              </g>
            </g>
            <g id="Group_115" data-name="Group 115">
              <g id="Group_114" data-name="Group 114">
                <path id="Path_146" data-name="Path 146" d="M335.142,66.395l-25.759-.119a6.4,6.4,0,0,0-6.282,6.51l-.021,4.673a6.4,6.4,0,0,1-6.282,6.51l-50.212-.232a6.4,6.4,0,0,1-6.227-6.568l.02-4.672a6.4,6.4,0,0,0-6.228-6.568l-9.06-.043-22.546-.1a20.268,20.268,0,0,0-20.362,20.183l-1.374,325.119a20.269,20.269,0,0,0,20.175,20.356l132.6.611a20.269,20.269,0,0,0,20.362-20.183l1.375-325.12A20.27,20.27,0,0,0,335.142,66.395Z" fill="#fafafa" stroke="#707070" stroke-width="1"/>
              </g>
            </g>
          </g>
        </g>
      </g>
    </g>
    <g id="Group_120" data-name="Group 120">
      <rect id="Rectangle_12" data-name="Rectangle 12" width="71.568" height="71.568" rx="9.763" transform="translate(234.567 153.147)" fill="#ffd147" stroke="#707070" stroke-width="1"/>
    </g>
    <g id="Group_121" data-name="Group 121">
      <path id="Path_147" data-name="Path 147" d="M215.683,179.181l1.725,3.5,3.858.561-2.792,2.721.659,3.843-3.451-1.814-3.451,1.814.659-3.843-2.792-2.721,3.858-.561Z" fill="#ffd147" stroke="#707070" stroke-width="1"/>
    </g>
    <g id="Group_122" data-name="Group 122">
      <path id="Path_148" data-name="Path 148" d="M327.181,144.529l1.334,2.7,2.984.434-2.159,2.1.51,2.972-2.669-1.4-2.669,1.4.51-2.972-2.159-2.1,2.984-.434Z" fill="#ffd147" stroke="#707070" stroke-width="1"/>
    </g>
    <g id="Group_123" data-name="Group 123">
      <path id="Path_149" data-name="Path 149" d="M324.558,209.382l1.157,1.569,1.948-.064-1.135,1.585.663,1.833-1.858-.589-1.539,1.2-.014-1.949-1.614-1.094,1.85-.616Z" fill="#ffd147" stroke="#707070" stroke-width="1"/>
    </g>
    <g id="Group_124" data-name="Group 124">
      <path id="Path_150" data-name="Path 150" d="M214.358,155.974a1.826,1.826,0,1,1,1.825-1.826A1.828,1.828,0,0,1,214.358,155.974Zm0-2.651a.826.826,0,1,0,.825.825A.826.826,0,0,0,214.358,153.323Z" fill="#ffd147" stroke="#707070" stroke-width="1"/>
    </g>
    <g id="Group_125" data-name="Group 125">
      <path id="Path_151" data-name="Path 151" d="M317.538,181.2a1.826,1.826,0,1,1,1.825-1.826A1.828,1.828,0,0,1,317.538,181.2Zm0-2.651a.826.826,0,1,0,.825.825A.827.827,0,0,0,317.538,178.551Z" fill="#ffd147" stroke="#707070" stroke-width="1"/>
    </g>
    <g id="Group_126" data-name="Group 126">
      <path id="Path_152" data-name="Path 152" d="M293.72,142.682a1.825,1.825,0,1,1,1.825-1.825A1.827,1.827,0,0,1,293.72,142.682Zm0-2.65a.825.825,0,1,0,.825.825A.826.826,0,0,0,293.72,140.032Z" fill="#ffd147" stroke="#707070" stroke-width="1"/>
    </g>
    <g id="Group_127" data-name="Group 127">
      <circle id="Ellipse_1" data-name="Ellipse 1" cx="1.325" cy="1.325" r="1.325" transform="translate(203.104 212.148)" fill="#ffd147" stroke="#707070" stroke-width="1"/>
    </g>
    <g id="Group_128" data-name="Group 128">
      <path id="Path_153" data-name="Path 153" d="M266.869,232.387a1.326,1.326,0,1,1-1.326-1.325A1.326,1.326,0,0,1,266.869,232.387Z" fill="#ffd147" stroke="#707070" stroke-width="1"/>
    </g>
    <g id="Group_129" data-name="Group 129">
      <circle id="Ellipse_2" data-name="Ellipse 2" cx="1.325" cy="1.325" r="1.325" transform="translate(251.365 126.084)" fill="#ffd147" stroke="#707070" stroke-width="1"/>
    </g>
    <g id="Group_147" data-name="Group 147">
      <g id="Group_134" data-name="Group 134">
        <g id="Group_133" data-name="Group 133">
          <g id="Group_132" data-name="Group 132">
            <g id="Group_131" data-name="Group 131">
              <g id="Group_130" data-name="Group 130">
                <path id="Path_154" data-name="Path 154" d="M280.037,176.4a15.153,15.153,0,0,1,2.882,2.823l3.68-.672,2.429,5.693L286,186.433a15.17,15.17,0,0,1,.045,4.035l3.076,2.126-2.308,5.743-3.692-.593a15.071,15.071,0,0,1-2.824,2.882l.672,3.681-5.691,2.429-2.193-3.031a15.129,15.129,0,0,1-4.035.043l-2.126,3.077-5.743-2.308.593-3.692A15.093,15.093,0,0,1,258.889,198l-3.681.672-2.429-5.693,3.032-2.192a15.212,15.212,0,0,1-.045-4.035l-3.075-2.126L255,178.885l3.692.593a15.1,15.1,0,0,1,2.824-2.882l-.672-3.681,5.691-2.429,2.193,3.031a15.17,15.17,0,0,1,4.035-.044l2.126-3.076,5.743,2.307-.593,3.693Zm-6.4,6.158a6.64,6.64,0,1,0,3.686,8.636A6.639,6.639,0,0,0,273.64,182.555Z" fill="#fafafa" stroke="#707070" stroke-width="1"/>
              </g>
            </g>
          </g>
        </g>
      </g>
      <g id="Group_140" data-name="Group 140">
        <g id="Group_139" data-name="Group 139">
          <g id="Group_138" data-name="Group 138">
            <g id="Group_137" data-name="Group 137">
              <g id="Group_136" data-name="Group 136">
                <g id="Group_135" data-name="Group 135">
                  <path id="Path_155" data-name="Path 155" d="M273.64,182.555a5.042,5.042,0,0,1,1.471.737,6.606,6.606,0,0,1,2.578,3.628,6.679,6.679,0,0,1,.139,3.121,6.8,6.8,0,0,1-1.589,3.215,6.816,6.816,0,0,1-3.379,2.065,6.774,6.774,0,0,1-7.488-3.008,6.8,6.8,0,0,1-1.012-3.829,6.792,6.792,0,0,1,1.077-3.422,6.694,6.694,0,0,1,2.26-2.157,6.613,6.613,0,0,1,4.372-.835,5.012,5.012,0,0,1,1.571.485c-.014.045-.554-.207-1.591-.338a6.622,6.622,0,0,0-4.214.919,6.49,6.49,0,0,0-3.124,5.36,6.475,6.475,0,0,0,.978,3.62,6.433,6.433,0,0,0,7.078,2.843,6.483,6.483,0,0,0,3.21-1.937,6.49,6.49,0,0,0,1.453-6.03,6.616,6.616,0,0,0-2.407-3.58C274.184,182.789,273.62,182.6,273.64,182.555Z" fill="#fafafa" stroke="#707070" stroke-width="1"/>
                </g>
              </g>
            </g>
          </g>
        </g>
      </g>
      <g id="Group_146" data-name="Group 146">
        <g id="Group_145" data-name="Group 145">
          <g id="Group_144" data-name="Group 144">
            <g id="Group_143" data-name="Group 143">
              <g id="Group_142" data-name="Group 142">
                <g id="Group_141" data-name="Group 141">
                  <path id="Path_156" data-name="Path 156" d="M280.037,176.4a1.4,1.4,0,0,1,.024-.232c.024-.172.056-.4.1-.7.1-.642.233-1.567.412-2.768l.037.066-5.756-2.274.115-.035-2.113,3.085-.038.055-.068-.008a15.154,15.154,0,0,0-4,.057l-.075.011-.044-.061-2.2-3.025.163.045-5.686,2.442.088-.165.68,3.679.017.094-.076.059a15.063,15.063,0,0,0-2.789,2.856l-.059.08-.1-.016-3.693-.587.184-.1c-.722,1.805-1.5,3.751-2.3,5.746l-.064-.212,3.078,2.123.09.062-.013.109a15.085,15.085,0,0,0,.047,3.986l.016.11-.09.066-3.031,2.194.063-.224c.769,1.8,1.6,3.733,2.431,5.691l-.208-.112,3.68-.672.114-.021.071.091a15.007,15.007,0,0,0,2.843,2.785v0h0c.033.082-.073-.182.075.184v.011l0,.014,0,.029-.009.058-.019.117-.037.232-.075.464-.149.926q-.148.924-.3,1.841l-.116-.207,5.742,2.309-.225.068,2.127-3.076.065-.093.112.014a14.964,14.964,0,0,0,3.985-.041l.111-.016.066.091,2.19,3.032-.219-.06,5.7-2.424-.1.193q-.341-1.873-.667-3.681l-.019-.1.082-.063a15.019,15.019,0,0,0,2.8-2.846l.06-.081.1.016,3.69.6-.172.1c.816-2.019,1.587-3.924,2.32-5.738l.052.174-3.071-2.134-.068-.047.01-.082a15.1,15.1,0,0,0-.032-4l-.011-.076.061-.043,3.038-2.183-.037.136c-.931-2.21-1.725-4.092-2.4-5.7l.094.05-3.685.648-.036.007-.023-.029a15.7,15.7,0,0,0-2.073-2.212l-.573-.486a1.689,1.689,0,0,1-.188-.163,1.7,1.7,0,0,1,.208.138c.134.1.336.248.594.463a14.743,14.743,0,0,1,2.129,2.184l-.06-.022,3.676-.7.067-.013.027.064,2.454,5.681.036.083-.074.053-3.023,2.2.05-.119a15.29,15.29,0,0,1,.057,4.07l-.058-.13,3.081,2.119.1.066-.043.109-2.3,5.747-.046.117-.126-.02-3.693-.586.159-.064a15.36,15.36,0,0,1-2.851,2.918l.062-.165q.333,1.806.677,3.679l.025.138-.129.055-5.689,2.435-.133.057-.085-.118-2.195-3.029.175.074a15.368,15.368,0,0,1-4.084.047l.177-.079-2.124,3.077-.086.124-.14-.056-5.744-2.306-.141-.057.024-.15q.147-.916.3-1.84l.149-.926.075-.464.037-.233.019-.116.009-.058.005-.029,0-.015v-.011c.148.365.04.1.073.182h0a15.384,15.384,0,0,1-2.915-2.857l.184.07-3.681.671-.149.027-.059-.139c-.835-1.959-1.659-3.891-2.427-5.694l-.058-.137.121-.087,3.033-2.191-.075.176a15.469,15.469,0,0,1-.042-4.083l.077.171-3.073-2.129-.117-.081.053-.131c.8-1.993,1.587-3.937,2.314-5.74l.051-.126.134.021,3.691.6-.158.064a15.37,15.37,0,0,1,2.859-2.909l-.058.153c-.233-1.287-.459-2.542-.665-3.682l-.021-.118.11-.047,5.7-2.416.1-.042.064.088,2.184,3.037-.12-.05a15.3,15.3,0,0,1,4.067-.032l-.106.048c.771-1.105,1.49-2.138,2.138-3.068l.045-.063.071.029,5.729,2.34.046.019-.008.047c-.205,1.186-.362,2.1-.471,2.734-.055.3-.1.533-.129.706A1.761,1.761,0,0,1,280.037,176.4Z" fill="#fafafa" stroke="#707070" stroke-width="1"/>
                </g>
              </g>
            </g>
          </g>
        </g>
      </g>
    </g>
    <g id="Group_154" data-name="Group 154">
      <g id="Group_148" data-name="Group 148">
        <rect id="Rectangle_13" data-name="Rectangle 13" width="73.077" height="52.864" transform="translate(244.622 247.766)" fill="#263238" stroke="#707070" stroke-width="1"/>
      </g>
      <g id="Group_149" data-name="Group 149">
        <rect id="Rectangle_14" data-name="Rectangle 14" width="63.705" height="52.864" transform="translate(220.616 247.766)" fill="#455a64" stroke="#707070" stroke-width="1"/>
      </g>
      <g id="Group_150" data-name="Group 150">
        <path id="Path_157" data-name="Path 157" d="M220.616,247.766l-11.308-11.308h28.659l10.646,11.308Z" fill="#455a64" stroke="#707070" stroke-width="1"/>
      </g>
      <g id="Group_151" data-name="Group 151">
        <path id="Path_158" data-name="Path 158" d="M284.321,247.766l13.01-11.308h35.691L317.7,247.766Z" fill="#455a64" stroke="#707070" stroke-width="1"/>
      </g>
      <g id="Group_153" data-name="Group 153">
        <g id="Group_152" data-name="Group 152">
          <path id="Path_159" data-name="Path 159" d="M284.321,247.766c0,.144-14.262.26-31.851.26s-31.854-.116-31.854-.26,14.259-.261,31.854-.261S284.321,247.622,284.321,247.766Z" fill="#263238" stroke="#707070" stroke-width="1"/>
        </g>
      </g>
    </g>
    <g id="Group_158" data-name="Group 158">
      <g id="Group_157" data-name="Group 157">
        <g id="Group_155" data-name="Group 155">
          <rect id="Rectangle_15" data-name="Rectangle 15" width="127.795" height="10.402" rx="5.078" transform="translate(206.454 356.883)" fill="#e0e0e0" stroke="#707070" stroke-width="1"/>
        </g>
        <g id="Group_156" data-name="Group 156">
          <rect id="Rectangle_16" data-name="Rectangle 16" width="67.804" height="10.402" rx="5.078" transform="translate(206.454 356.883)" fill="#ffd147" stroke="#707070" stroke-width="1"/>
        </g>
      </g>
    </g>
    <g id="Group_160" data-name="Group 160">
      <g id="Group_159" data-name="Group 159">
        <path id="Path_160" data-name="Path 160" d="M485.2,445.579c0,.143-105.31.26-235.187.26-129.921,0-235.209-.117-235.209-.26s105.288-.261,235.209-.261C379.888,445.318,485.2,445.435,485.2,445.579Z" fill="#263238" stroke="#707070" stroke-width="1"/>
      </g>
    </g>
    <g id="Group_375" data-name="Group 375">
      <g id="Group_161" data-name="Group 161">
        <path id="Path_161" data-name="Path 161" d="M198.363,434.164l2.872,11,32.191-.3s-4.4-3.327-20.577-3.085l-1.569-7.621Z" fill="#ffbe9d" stroke="#707070" stroke-width="1"/>
      </g>
      <g id="Group_210" data-name="Group 210">
        <g id="Group_162" data-name="Group 162">
          <path id="Path_162" data-name="Path 162" d="M163.269,309.9l-24.147,2.278-9.809,2.777a26.59,26.59,0,0,0-11.172,6.4L86.532,351.7l-5.77-47.133L64.97,305.936l2.635,60.669a18.071,18.071,0,0,0,17.214,12.577,18.658,18.658,0,0,0,12.715-5.234l22.508-21.154-2.236,27.915-7.736,17.353,55.249,31.2s6.489-32.123,9.974-54.344c2.818-17.978,4.251-57.133,4.251-57.133Z" fill="#008c8d" stroke="#707070" stroke-width="1"/>
        </g>
        <g id="Group_163" data-name="Group 163">
          <path id="Path_163" data-name="Path 163" d="M178.1,317.231s12.218,4.529,15.171,14.1c2.62,8.485,11.36,56.2,11.36,56.2l8.672,50.5-18.158.691-20.908-86.066Z" fill="#008c8d" stroke="#707070" stroke-width="1"/>
        </g>
        <g id="Group_165" data-name="Group 165">
          <g id="Group_164" data-name="Group 164">
            <path id="Path_164" data-name="Path 164" d="M117.347,379.472c-.143-.014.666-9.681,1.808-21.59s2.183-21.557,2.326-21.543-.666,9.679-1.808,21.592S117.49,379.486,117.347,379.472Z" fill="#263238" stroke="#707070" stroke-width="1"/>
          </g>
        </g>
        <g id="Group_167" data-name="Group 167">
          <g id="Group_166" data-name="Group 166">
            <path id="Path_165" data-name="Path 165" d="M157.56,355.736a1.815,1.815,0,0,1-.16.471l-.553,1.316a19.568,19.568,0,0,1-.972,2.037c-.416.776-.847,1.686-1.454,2.616l-.915,1.483c-.322.513-.707,1.013-1.079,1.549-.728,1.086-1.631,2.151-2.556,3.292a49.316,49.316,0,0,1-14.876,11.815c-1.321.642-2.563,1.28-3.786,1.744-.606.241-1.181.5-1.753.7l-1.652.555c-1.043.381-2.027.594-2.877.825a20.022,20.022,0,0,1-2.205.485l-1.406.24a1.844,1.844,0,0,1-.5.049,1.793,1.793,0,0,1,.477-.152l1.382-.335c.6-.131,1.337-.3,2.172-.569s1.807-.492,2.835-.892l1.627-.582c.564-.206,1.13-.475,1.728-.722,1.2-.476,2.428-1.123,3.73-1.771a51.089,51.089,0,0,0,14.736-11.7c.926-1.121,1.833-2.166,2.569-3.231.377-.526.767-1.016,1.1-1.519l.935-1.453c.623-.911,1.073-1.8,1.511-2.559s.782-1.43,1.046-1.988c.255-.507.466-.926.64-1.27A1.774,1.774,0,0,1,157.56,355.736Z" fill="#263238" stroke="#707070" stroke-width="1"/>
          </g>
        </g>
        <g id="Group_169" data-name="Group 169" opacity="0.2">
          <g id="Group_168" data-name="Group 168">
            <path id="Path_166" data-name="Path 166" d="M123.758,384.369a3.7,3.7,0,0,1-2.225-4.442,6.379,6.379,0,0,1,3.6-3.921,26.427,26.427,0,0,1,5.26-1.557,44.125,44.125,0,0,0,20.542-11.525c.522-.52,1.267-1.1,1.914-.743.869.475.324,1.8-.321,2.555a66.327,66.327,0,0,1-29.33,19.677" stroke="#707070" stroke-width="1"/>
          </g>
        </g>
        <g id="Group_171" data-name="Group 171">
          <g id="Group_170" data-name="Group 170">
            <path id="Path_167" data-name="Path 167" d="M178.921,373a4.359,4.359,0,0,1-.369-1.027c-.205-.669-.481-1.644-.807-2.852-.652-2.417-1.491-5.771-2.33-9.5s-1.515-7.119-1.96-9.582c-.223-1.231-.391-2.23-.492-2.923a4.445,4.445,0,0,1-.107-1.085,4.381,4.381,0,0,1,.306,1.047q.269,1.189.654,2.889c.566,2.565,1.3,5.877,2.107,9.54.837,3.655,1.594,6.961,2.18,9.522q.38,1.7.645,2.891A4.421,4.421,0,0,1,178.921,373Z" fill="#263238" stroke="#707070" stroke-width="1"/>
          </g>
        </g>
        <g id="Group_173" data-name="Group 173">
          <g id="Group_172" data-name="Group 172">
            <path id="Path_168" data-name="Path 168" d="M67.763,310.467a11.3,11.3,0,0,1-.4-4.806,11.3,11.3,0,0,1,.4,4.806Z" fill="#263238" stroke="#707070" stroke-width="1"/>
          </g>
        </g>
        <g id="Group_175" data-name="Group 175">
          <g id="Group_174" data-name="Group 174">
            <path id="Path_169" data-name="Path 169" d="M72.384,310.613a12.63,12.63,0,0,1-.26-5.1,12.632,12.632,0,0,1,.26,5.1Z" fill="#263238" stroke="#707070" stroke-width="1"/>
          </g>
        </g>
        <g id="Group_177" data-name="Group 177">
          <g id="Group_176" data-name="Group 176">
            <path id="Path_170" data-name="Path 170" d="M76.977,310.318a15.608,15.608,0,0,1-.317-5.675,15.667,15.667,0,0,1,.317,5.675Z" fill="#263238" stroke="#707070" stroke-width="1"/>
          </g>
        </g>
        <g id="Group_179" data-name="Group 179">
          <g id="Group_178" data-name="Group 178">
            <path id="Path_171" data-name="Path 171" d="M85.857,358.935a33.55,33.55,0,0,1,.856-8.3,33.549,33.549,0,0,1-.856,8.3Z" fill="#263238" stroke="#707070" stroke-width="1"/>
          </g>
        </g>
        <g id="Group_181" data-name="Group 181">
          <g id="Group_180" data-name="Group 180">
            <path id="Path_172" data-name="Path 172" d="M198.136,433.456a13.236,13.236,0,0,1,.89,5.153,13.236,13.236,0,0,1-.89-5.153Z" fill="#263238" stroke="#707070" stroke-width="1"/>
          </g>
        </g>
        <g id="Group_183" data-name="Group 183">
          <g id="Group_182" data-name="Group 182">
            <path id="Path_173" data-name="Path 173" d="M204.107,433.452a10.909,10.909,0,0,1,.778,4.676,10.91,10.91,0,0,1-.778-4.676Z" fill="#263238" stroke="#707070" stroke-width="1"/>
          </g>
        </g>
        <g id="Group_185" data-name="Group 185">
          <g id="Group_184" data-name="Group 184">
            <path id="Path_174" data-name="Path 174" d="M209.772,432.877a22.608,22.608,0,0,1,.883,5.24,9.888,9.888,0,0,1-.883-5.24Z" fill="#263238" stroke="#707070" stroke-width="1"/>
          </g>
        </g>
        <g id="Group_187" data-name="Group 187">
          <g id="Group_186" data-name="Group 186">
            <path id="Path_175" data-name="Path 175" d="M187.91,323.113c0,.1-1.268.02-3.237.432a15.081,15.081,0,0,0-11.253,9.821c-.674,1.895-.77,3.162-.865,3.148a2.607,2.607,0,0,1,.016-.89,12.5,12.5,0,0,1,.5-2.374A14.51,14.51,0,0,1,184.6,323.183a12.463,12.463,0,0,1,2.421-.174A2.638,2.638,0,0,1,187.91,323.113Z" fill="#263238" stroke="#707070" stroke-width="1"/>
          </g>
        </g>
        <g id="Group_189" data-name="Group 189">
          <g id="Group_188" data-name="Group 188">
            <path id="Path_176" data-name="Path 176" d="M195.377,343.64a18.9,18.9,0,0,1-3.013,1.277c-1.889.715-4.523,1.638-7.465,2.558s-5.634,1.658-7.594,2.145a18.882,18.882,0,0,1-3.2.664,21.883,21.883,0,0,1,3.106-1.019l7.537-2.288,7.5-2.407A22.042,22.042,0,0,1,195.377,343.64Z" fill="#fafafa" stroke="#707070" stroke-width="1"/>
          </g>
        </g>
        <g id="Group_191" data-name="Group 191">
          <g id="Group_190" data-name="Group 190">
            <path id="Path_177" data-name="Path 177" d="M203.078,378.449a20.129,20.129,0,0,1-3.132.849c-1.948.459-4.644,1.058-7.629,1.688s-5.7,1.172-7.662,1.539a20.068,20.068,0,0,1-3.208.489,19.93,19.93,0,0,1,3.127-.848c1.948-.459,4.647-1.059,7.635-1.689s5.7-1.173,7.666-1.54A19.856,19.856,0,0,1,203.078,378.449Z" fill="#fafafa" stroke="#707070" stroke-width="1"/>
          </g>
        </g>
        <g id="Group_193" data-name="Group 193">
          <g id="Group_192" data-name="Group 192">
            <path id="Path_178" data-name="Path 178" d="M211.809,422.02a19.387,19.387,0,0,1-3,.155c-1.851.047-4.406.126-7.224.287s-5.365.378-7.209.543a19.471,19.471,0,0,1-3,.191,15.4,15.4,0,0,1,2.956-.557c1.838-.259,4.391-.533,7.221-.7s5.4-.182,7.253-.135A15.5,15.5,0,0,1,211.809,422.02Z" fill="#fafafa" stroke="#707070" stroke-width="1"/>
          </g>
        </g>
        <g id="Group_195" data-name="Group 195">
          <g id="Group_194" data-name="Group 194">
            <path id="Path_179" data-name="Path 179" d="M131.664,381.058a10.246,10.246,0,0,1-2.077-.884l-4.9-2.344-4.911-2.313a10.247,10.247,0,0,1-2-1.051,9.3,9.3,0,0,1,2.145.713c1.3.51,3.066,1.269,4.987,2.181s3.626,1.8,4.841,2.486A9.3,9.3,0,0,1,131.664,381.058Z" fill="#fafafa" stroke="#707070" stroke-width="1"/>
          </g>
        </g>
        <g id="Group_197" data-name="Group 197">
          <g id="Group_196" data-name="Group 196">
            <path id="Path_180" data-name="Path 180" d="M171.908,387.886a5.917,5.917,0,0,1-1.18-.449c-.841-.365-1.894-.824-3.147-1.37-2.654-1.161-6.33-2.738-10.432-4.379s-7.854-3.033-10.577-4.022l-3.223-1.178a5.87,5.87,0,0,1-1.164-.489,5.874,5.874,0,0,1,1.227.3c.781.222,1.9.57,3.281,1.022,2.757.9,6.537,2.243,10.65,3.886s7.772,3.28,10.391,4.528c1.31.624,2.362,1.145,3.08,1.522A5.777,5.777,0,0,1,171.908,387.886Z" fill="#fafafa" stroke="#707070" stroke-width="1"/>
          </g>
        </g>
        <g id="Group_199" data-name="Group 199">
          <g id="Group_198" data-name="Group 198">
            <path id="Path_181" data-name="Path 181" d="M175.042,359.471a2.27,2.27,0,0,1-.563-.048l-1.6-.239-5.864-.95c-4.95-.808-11.791-1.9-19.36-3.018s-14.44-2.035-19.413-2.687l-5.889-.779-1.6-.231a2.316,2.316,0,0,1-.553-.116,2.314,2.314,0,0,1,.565.012l1.611.134c1.4.126,3.416.335,5.91.615,4.986.558,11.866,1.423,19.443,2.537s14.411,2.268,19.347,3.17c2.469.45,4.463.831,5.838,1.113l1.581.336A2.339,2.339,0,0,1,175.042,359.471Z" fill="#fafafa" stroke="#707070" stroke-width="1"/>
          </g>
        </g>
        <g id="Group_201" data-name="Group 201">
          <g id="Group_200" data-name="Group 200">
            <path id="Path_182" data-name="Path 182" d="M172.78,329.46c-.022.143-10.843-1.356-24.166-3.347s-24.113-3.721-24.092-3.864,10.84,1.357,24.169,3.349S172.8,329.318,172.78,329.46Z" fill="#fafafa" stroke="#707070" stroke-width="1"/>
          </g>
        </g>
        <g id="Group_203" data-name="Group 203">
          <g id="Group_202" data-name="Group 202">
            <path id="Path_183" data-name="Path 183" d="M116.1,355.707a26.317,26.317,0,0,1-1.537-3.249c-.957-2.154-2.172-4.889-3.515-7.914l-3.591-7.882a26.311,26.311,0,0,1-1.412-3.3,3.51,3.51,0,0,1,.517.818c.3.543.722,1.337,1.226,2.326,1.008,1.977,2.344,4.739,3.735,7.828s2.569,5.92,3.38,7.986c.406,1.033.722,1.874.927,2.46A3.528,3.528,0,0,1,116.1,355.707Z" fill="#fafafa" stroke="#707070" stroke-width="1"/>
          </g>
        </g>
        <g id="Group_205" data-name="Group 205">
          <g id="Group_204" data-name="Group 204">
            <path id="Path_184" data-name="Path 184" d="M94.556,376.788c-.141.029-1.519-6.01-3.079-13.487s-2.709-13.566-2.568-13.6,1.519,6.008,3.078,13.488S94.7,376.758,94.556,376.788Z" fill="#fafafa" stroke="#707070" stroke-width="1"/>
          </g>
        </g>
        <g id="Group_207" data-name="Group 207">
          <g id="Group_206" data-name="Group 206">
            <path id="Path_185" data-name="Path 185" d="M85.654,343.977a89.642,89.642,0,0,1-9.373,2.274,89.231,89.231,0,0,1-9.483,1.765,89.247,89.247,0,0,1,9.374-2.274A89.155,89.155,0,0,1,85.654,343.977Z" fill="#fafafa" stroke="#707070" stroke-width="1"/>
          </g>
        </g>
        <g id="Group_209" data-name="Group 209">
          <g id="Group_208" data-name="Group 208">
            <path id="Path_186" data-name="Path 186" d="M82.519,316.631a11.652,11.652,0,0,1-2.465.54c-1.534.262-3.663.569-6.022.838s-4.5.445-6.057.535a11.567,11.567,0,0,1-2.523.026,12.7,12.7,0,0,1,2.49-.393l6.031-.686,6.03-.684A12.572,12.572,0,0,1,82.519,316.631Z" fill="#fafafa" stroke="#707070" stroke-width="1"/>
          </g>
        </g>
      </g>
      <g id="Group_216" data-name="Group 216">
        <g id="Group_214" data-name="Group 214">
          <g id="Group_211" data-name="Group 211">
            <path id="Path_187" data-name="Path 187" d="M90.648,269.128c.286.565,7.794,39.166,7.794,39.166l-17.705.827-6.856-33.2Z" fill="#455a64" stroke="#707070" stroke-width="1"/>
          </g>
          <g id="Group_212" data-name="Group 212">
            <path id="Path_188" data-name="Path 188" d="M98.442,308.294l2.028-.858-7.662-38.049-2.4-.16Z" fill="#263238" stroke="#707070" stroke-width="1"/>
          </g>
          <g id="Group_213" data-name="Group 213">
            <path id="Path_189" data-name="Path 189" d="M83.53,277.566a.917.917,0,1,1-1.023-.8A.917.917,0,0,1,83.53,277.566Z" fill="#263238" stroke="#707070" stroke-width="1"/>
          </g>
        </g>
        <g id="Group_215" data-name="Group 215">
          <path id="Path_190" data-name="Path 190" d="M79.875,304.663l-.262-5.055,7.563-3.115-2.949-7.006a6.1,6.1,0,0,0-8.5-2.906L72.7,288.228a8.675,8.675,0,0,0-4.305,5.6,111.522,111.522,0,0,0-1.757,12.346" fill="#ffbe9d" stroke="#707070" stroke-width="1"/>
        </g>
      </g>
      <g id="Group_234" data-name="Group 234">
        <g id="Group_217" data-name="Group 217">
          <path id="Path_191" data-name="Path 191" d="M59.629,433.35s-31.116,8.612-32.365,9.051c-1.874.66-1.559,7.528,1.358,7.421,1.38-.051,23.9.838,26.746.66s11.431-3.56,11.431-3.56Z" fill="#008c8d" stroke="#707070" stroke-width="1"/>
        </g>
        <g id="Group_219" data-name="Group 219">
          <g id="Group_218" data-name="Group 218">
            <path id="Path_192" data-name="Path 192" d="M46.667,445.222a29.447,29.447,0,0,0-1.372-3.34,29.167,29.167,0,0,0-2.2-2.865,6.915,6.915,0,0,1,3.572,6.2Z" fill="#263238" stroke="#707070" stroke-width="1"/>
          </g>
        </g>
        <g id="Group_221" data-name="Group 221">
          <g id="Group_220" data-name="Group 220">
            <path id="Path_193" data-name="Path 193" d="M49.911,443.751c-.152.027-.468-1.444-1.3-3.069s-1.807-2.764-1.7-2.87a7.8,7.8,0,0,1,2.991,5.939Z" fill="#263238" stroke="#707070" stroke-width="1"/>
          </g>
        </g>
        <g id="Group_223" data-name="Group 223">
          <g id="Group_222" data-name="Group 222">
            <path id="Path_194" data-name="Path 194" d="M52.954,442.936a21.123,21.123,0,0,0-.728-3.287,21.227,21.227,0,0,0-1.694-2.91,5.839,5.839,0,0,1,2.422,6.2Z" fill="#263238" stroke="#707070" stroke-width="1"/>
          </g>
        </g>
        <g id="Group_225" data-name="Group 225">
          <g id="Group_224" data-name="Group 224">
            <path id="Path_195" data-name="Path 195" d="M52.4,438.917a5.509,5.509,0,0,1-.334-2.315,10.923,10.923,0,0,1,.315-2.537,10.812,10.812,0,0,1,.463-1.445,1.739,1.739,0,0,1,.5-.762.829.829,0,0,1,1.068.052,1.371,1.371,0,0,1,.415.88,6.082,6.082,0,0,1,.041.822,6.929,6.929,0,0,1-.192,1.524,9.255,9.255,0,0,1-.958,2.378,6.291,6.291,0,0,1-1.4,1.874c-.071-.05.45-.775,1.071-2.044a10.211,10.211,0,0,0,.816-2.313,6.819,6.819,0,0,0,.15-1.422c-.014-.478-.007-1.076-.286-1.306a.3.3,0,0,0-.412-.034,1.321,1.321,0,0,0-.341.543,11.287,11.287,0,0,0-.471,1.373,12.538,12.538,0,0,0-.412,2.43C52.345,438.024,52.487,438.9,52.4,438.917Z" fill="#263238" stroke="#707070" stroke-width="1"/>
          </g>
        </g>
        <g id="Group_227" data-name="Group 227">
          <g id="Group_226" data-name="Group 226">
            <path id="Path_196" data-name="Path 196" d="M52.441,438.6a4.333,4.333,0,0,1,2.007-.324,9,9,0,0,1,2.208.27,4.852,4.852,0,0,1,1.271.469,1.313,1.313,0,0,1,.7,1.422,1.552,1.552,0,0,1-1.121,1.11,2.849,2.849,0,0,1-1.4,0,5.363,5.363,0,0,1-2.021-.994,5.482,5.482,0,0,1-1.447-1.425,13.743,13.743,0,0,1,1.658,1.123,5.517,5.517,0,0,0,1.908.826,2.459,2.459,0,0,0,1.154-.016,1.055,1.055,0,0,0,.758-.74.8.8,0,0,0-.462-.868,4.748,4.748,0,0,0-1.129-.44,10.443,10.443,0,0,0-2.1-.366C53.217,438.56,52.454,438.684,52.441,438.6Z" fill="#263238" stroke="#707070" stroke-width="1"/>
          </g>
        </g>
        <g id="Group_229" data-name="Group 229">
          <g id="Group_228" data-name="Group 228">
            <path id="Path_197" data-name="Path 197" d="M41.886,445.556a16.718,16.718,0,0,0-.614-2.807,16.764,16.764,0,0,0-1.523-2.436,4.468,4.468,0,0,1,2.137,5.243Z" fill="#263238" stroke="#707070" stroke-width="1"/>
          </g>
        </g>
        <g id="Group_231" data-name="Group 231">
          <g id="Group_230" data-name="Group 230">
            <path id="Path_198" data-name="Path 198" d="M63.6,446.992a6.527,6.527,0,0,1-1.2.566,26.643,26.643,0,0,1-3.463,1.073,49.357,49.357,0,0,1-11.879,1.126c-4.663-.051-8.865-.263-11.913-.385l-3.606-.191a6.519,6.519,0,0,1-1.32-.141,6.517,6.517,0,0,1,1.326-.062L35.15,449l11.9.233a55.671,55.671,0,0,0,11.8-.965C61.825,447.661,63.562,446.9,63.6,446.992Z" fill="#263238" stroke="#707070" stroke-width="1"/>
          </g>
        </g>
        <g id="Group_233" data-name="Group 233">
          <g id="Group_232" data-name="Group 232">
            <path id="Path_199" data-name="Path 199" d="M64.518,447.7c-.042.072-.894-.426-2.332-1.056a10.831,10.831,0,0,0-5.888-.979,9.32,9.32,0,0,0-5.089,3.028,18.168,18.168,0,0,1-1.793,1.831,9.616,9.616,0,0,1,1.522-2.081A12.347,12.347,0,0,1,53,446.515a7.381,7.381,0,0,1,3.214-1.363,10.294,10.294,0,0,1,6.126,1.159A8.3,8.3,0,0,1,64.518,447.7Z" fill="#263238" stroke="#707070" stroke-width="1"/>
          </g>
        </g>
      </g>
      <g id="Group_254" data-name="Group 254">
        <g id="Group_235" data-name="Group 235">
          <path id="Path_200" data-name="Path 200" d="M92.658,424.758s29.445,19.279,30.5,20.077c1.585,1.2-.233,6.9-2.98,5.916-1.3-.468-26.008-7.341-28.665-8.375s-9.809-6.864-9.809-6.864Z" fill="#008c8d" stroke="#707070" stroke-width="1"/>
        </g>
        <g id="Group_237" data-name="Group 237">
          <g id="Group_236" data-name="Group 236">
            <path id="Path_201" data-name="Path 201" d="M101.4,440.007a6.914,6.914,0,0,1,5.287-4.827,29.412,29.412,0,0,0-2.966,2.061A29.452,29.452,0,0,0,101.4,440.007Z" fill="#263238" stroke="#707070" stroke-width="1"/>
          </g>
        </g>
        <g id="Group_239" data-name="Group 239">
          <g id="Group_238" data-name="Group 238">
            <path id="Path_202" data-name="Path 202" d="M98.758,437.621a7.8,7.8,0,0,1,4.653-4.751c.074.135-1.215.909-2.486,2.219S98.895,437.692,98.758,437.621Z" fill="#263238" stroke="#707070" stroke-width="1"/>
          </g>
        </g>
        <g id="Group_241" data-name="Group 241">
          <g id="Group_240" data-name="Group 240">
            <path id="Path_203" data-name="Path 203" d="M96.106,435.92a5.842,5.842,0,0,1,4.19-5.169,21.067,21.067,0,0,0-2.5,2.258A21.1,21.1,0,0,0,96.106,435.92Z" fill="#263238" stroke="#707070" stroke-width="1"/>
          </g>
        </g>
        <g id="Group_243" data-name="Group 243">
          <g id="Group_242" data-name="Group 242">
            <path id="Path_204" data-name="Path 204" d="M97.853,432.258c-.077-.038.325-.834.666-2.2a12.429,12.429,0,0,0,.346-2.441,11.309,11.309,0,0,0-.032-1.451,1.308,1.308,0,0,0-.16-.621.3.3,0,0,0-.4-.092c-.337.134-.512.7-.67,1.156a6.842,6.842,0,0,0-.289,1.4,10.2,10.2,0,0,0,.075,2.452c.206,1.4.483,2.247.4,2.273a6.272,6.272,0,0,1-.763-2.209,9.287,9.287,0,0,1-.19-2.558,6.833,6.833,0,0,1,.28-1.509,5.9,5.9,0,0,1,.288-.771,1.379,1.379,0,0,1,.662-.713.829.829,0,0,1,1.034.275,1.733,1.733,0,0,1,.244.878,10.961,10.961,0,0,1-.468,4.03A5.512,5.512,0,0,1,97.853,432.258Z" fill="#263238" stroke="#707070" stroke-width="1"/>
          </g>
        </g>
        <g id="Group_245" data-name="Group 245">
          <g id="Group_244" data-name="Group 244">
            <path id="Path_205" data-name="Path 205" d="M97.912,431.945c-.038.075-.728-.275-1.914-.564a10.525,10.525,0,0,0-2.109-.288,4.726,4.726,0,0,0-1.209.077.8.8,0,0,0-.7.687,1.055,1.055,0,0,0,.5.934,2.457,2.457,0,0,0,1.1.366,5.528,5.528,0,0,0,2.069-.207,13.665,13.665,0,0,1,1.921-.566,5.5,5.5,0,0,1-1.811.917,5.347,5.347,0,0,1-2.228.333,2.845,2.845,0,0,1-1.331-.42,1.554,1.554,0,0,1-.731-1.4,1.313,1.313,0,0,1,1.1-1.141,4.844,4.844,0,0,1,1.353-.06,8.96,8.96,0,0,1,2.186.413A4.348,4.348,0,0,1,97.912,431.945Z" fill="#263238" stroke="#707070" stroke-width="1"/>
          </g>
        </g>
        <g id="Group_247" data-name="Group 247">
          <g id="Group_246" data-name="Group 246">
            <path id="Path_206" data-name="Path 206" d="M116.427,449.675c-.034.046-.5-.3-.72-1.141a4.344,4.344,0,0,1,.551-3.2,11.8,11.8,0,0,1,.986-1.47,5.441,5.441,0,0,1,1-1.073,1.746,1.746,0,0,1,.941-.394c.246-.01.372.05.368.08a2.784,2.784,0,0,0-1.071.6,6.734,6.734,0,0,0-.85,1.074,16.859,16.859,0,0,0-.917,1.438,4.548,4.548,0,0,0-.648,2.871C116.174,449.222,116.5,449.624,116.427,449.675Z" fill="#263238" stroke="#707070" stroke-width="1"/>
          </g>
        </g>
        <g id="Group_249" data-name="Group 249">
          <g id="Group_248" data-name="Group 248">
            <path id="Path_207" data-name="Path 207" d="M105.856,441.777a4.466,4.466,0,0,1,3.628-4.346,16.7,16.7,0,0,0-2.191,1.858A16.75,16.75,0,0,0,105.856,441.777Z" fill="#263238" stroke="#707070" stroke-width="1"/>
          </g>
        </g>
        <g id="Group_251" data-name="Group 251">
          <g id="Group_250" data-name="Group 250">
            <path id="Path_208" data-name="Path 208" d="M84.734,436.552a10.4,10.4,0,0,1,1.294.888,36.831,36.831,0,0,0,3.63,2.224,47.629,47.629,0,0,0,5.767,2.567c2.229.832,4.73,1.616,7.375,2.382,5.3,1.525,10.093,2.92,13.553,3.961l4.091,1.256a9.05,9.05,0,0,1,1.481.529,9.134,9.134,0,0,1-1.537-.334l-4.137-1.1c-3.487-.951-8.295-2.288-13.6-3.815-2.65-.768-5.162-1.571-7.4-2.433a43.529,43.529,0,0,1-5.774-2.693,28.851,28.851,0,0,1-3.573-2.385A8.025,8.025,0,0,1,84.734,436.552Z" fill="#263238" stroke="#707070" stroke-width="1"/>
          </g>
        </g>
        <g id="Group_253" data-name="Group 253">
          <g id="Group_252" data-name="Group 252">
            <path id="Path_209" data-name="Path 209" d="M83.642,436.948a8.267,8.267,0,0,1,2.5-.664,10.3,10.3,0,0,1,6.188.756,7.4,7.4,0,0,1,2.649,2.275,12.341,12.341,0,0,1,1.38,2.465,9.671,9.671,0,0,1,.819,2.445,18.136,18.136,0,0,1-1.153-2.29,9.325,9.325,0,0,0-3.929-4.43,10.843,10.843,0,0,0-5.908-.856C84.622,436.813,83.66,437.029,83.642,436.948Z" fill="#263238" stroke="#707070" stroke-width="1"/>
          </g>
        </g>
      </g>
      <g id="Group_360" data-name="Group 360">
        <g id="Group_356" data-name="Group 356">
          <g id="Group_355" data-name="Group 355">
            <g id="Group_271" data-name="Group 271">
              <g id="Group_270" data-name="Group 270">
                <g id="Group_269" data-name="Group 269">
                  <g id="Group_261" data-name="Group 261">
                    <g id="Group_260" data-name="Group 260">
                      <g id="Group_259" data-name="Group 259">
                        <g id="Group_258" data-name="Group 258">
                          <g id="Group_257" data-name="Group 257">
                            <g id="Group_256" data-name="Group 256">
                              <g id="Group_255" data-name="Group 255">
                                <path id="Path_210" data-name="Path 210" d="M161.66,272.019l1.921,38.891a11.583,11.583,0,0,1-11.569,12.155h0a11.588,11.588,0,0,1-11.569-11.03c-.142-2.927-.266-5.369-.3-5.669,0,0-9.946-.442-11.145-10.2-.58-4.719-.982-14.534-1.243-23.418A18.323,18.323,0,0,1,144.067,254l.943-.1C155.248,253.37,161.415,261.77,161.66,272.019Z" fill="#ffbe9d" stroke="#707070" stroke-width="1"/>
                              </g>
                            </g>
                          </g>
                        </g>
                      </g>
                    </g>
                  </g>
                  <g id="Group_268" data-name="Group 268">
                    <g id="Group_267" data-name="Group 267">
                      <g id="Group_266" data-name="Group 266">
                        <g id="Group_265" data-name="Group 265">
                          <g id="Group_264" data-name="Group 264">
                            <g id="Group_263" data-name="Group 263">
                              <g id="Group_262" data-name="Group 262">
                                <path id="Path_211" data-name="Path 211" d="M140.111,306.227a22.874,22.874,0,0,0,12.346-5.028s-2.236,7.368-12.09,7.564Z" fill="#eb996e" stroke="#707070" stroke-width="1"/>
                              </g>
                            </g>
                          </g>
                        </g>
                      </g>
                    </g>
                  </g>
                </g>
              </g>
            </g>
            <g id="Group_338" data-name="Group 338">
              <g id="Group_337" data-name="Group 337">
                <g id="Group_322" data-name="Group 322">
                  <g id="Group_321" data-name="Group 321">
                    <g id="Group_320" data-name="Group 320">
                      <g id="Group_287" data-name="Group 287">
                        <g id="Group_278" data-name="Group 278">
                          <g id="Group_277" data-name="Group 277">
                            <g id="Group_276" data-name="Group 276">
                              <g id="Group_275" data-name="Group 275">
                                <g id="Group_274" data-name="Group 274">
                                  <g id="Group_273" data-name="Group 273">
                                    <g id="Group_272" data-name="Group 272">
                                      <path id="Path_212" data-name="Path 212" d="M130.861,278.846a1.406,1.406,0,0,0,1.5,1.26,1.343,1.343,0,0,0,1.3-1.418,1.4,1.4,0,0,0-1.5-1.261A1.345,1.345,0,0,0,130.861,278.846Z" fill="#263238" stroke="#707070" stroke-width="1"/>
                                    </g>
                                  </g>
                                </g>
                              </g>
                            </g>
                          </g>
                        </g>
                        <g id="Group_286" data-name="Group 286">
                          <g id="Group_285" data-name="Group 285">
                            <g id="Group_284" data-name="Group 284">
                              <g id="Group_283" data-name="Group 283">
                                <g id="Group_282" data-name="Group 282">
                                  <g id="Group_281" data-name="Group 281">
                                    <g id="Group_280" data-name="Group 280">
                                      <g id="Group_279" data-name="Group 279">
                                        <path id="Path_213" data-name="Path 213" d="M130.384,277.309c.193.163,1.164-.736,2.667-.9,1.5-.183,2.687.468,2.83.266.071-.09-.142-.4-.66-.7a3.856,3.856,0,0,0-2.29-.438,3.7,3.7,0,0,0-2.1.942C130.41,276.891,130.289,277.237,130.384,277.309Z" fill="#263238" stroke="#707070" stroke-width="1"/>
                                      </g>
                                    </g>
                                  </g>
                                </g>
                              </g>
                            </g>
                          </g>
                        </g>
                      </g>
                      <g id="Group_303" data-name="Group 303">
                        <g id="Group_294" data-name="Group 294">
                          <g id="Group_293" data-name="Group 293">
                            <g id="Group_292" data-name="Group 292">
                              <g id="Group_291" data-name="Group 291">
                                <g id="Group_290" data-name="Group 290">
                                  <g id="Group_289" data-name="Group 289">
                                    <g id="Group_288" data-name="Group 288">
                                      <path id="Path_214" data-name="Path 214" d="M145.615,277.575a1.4,1.4,0,0,0,1.5,1.261,1.345,1.345,0,0,0,1.3-1.418,1.406,1.406,0,0,0-1.5-1.261A1.343,1.343,0,0,0,145.615,277.575Z" fill="#263238" stroke="#707070" stroke-width="1"/>
                                    </g>
                                  </g>
                                </g>
                              </g>
                            </g>
                          </g>
                        </g>
                        <g id="Group_302" data-name="Group 302">
                          <g id="Group_301" data-name="Group 301">
                            <g id="Group_300" data-name="Group 300">
                              <g id="Group_299" data-name="Group 299">
                                <g id="Group_298" data-name="Group 298">
                                  <g id="Group_297" data-name="Group 297">
                                    <g id="Group_296" data-name="Group 296">
                                      <g id="Group_295" data-name="Group 295">
                                        <path id="Path_215" data-name="Path 215" d="M145.183,275.961c.194.163,1.166-.737,2.668-.9,1.5-.183,2.687.468,2.83.266.071-.091-.14-.4-.661-.7a3.853,3.853,0,0,0-2.289-.439,3.7,3.7,0,0,0-2.1.943C145.211,275.542,145.09,275.889,145.183,275.961Z" fill="#263238" stroke="#707070" stroke-width="1"/>
                                      </g>
                                    </g>
                                  </g>
                                </g>
                              </g>
                            </g>
                          </g>
                        </g>
                      </g>
                      <g id="Group_311" data-name="Group 311">
                        <g id="Group_310" data-name="Group 310">
                          <g id="Group_309" data-name="Group 309">
                            <g id="Group_308" data-name="Group 308">
                              <g id="Group_307" data-name="Group 307">
                                <g id="Group_306" data-name="Group 306">
                                  <g id="Group_305" data-name="Group 305">
                                    <g id="Group_304" data-name="Group 304">
                                      <path id="Path_216" data-name="Path 216" d="M140.959,287.7a10,10,0,0,0-2.488-.172c-.388,0-.76-.033-.853-.288a1.96,1.96,0,0,1,.13-1.165q.389-1.452.813-3.047c1.117-4.333,1.88-7.879,1.705-7.922s-1.222,3.433-2.339,7.767q-.4,1.6-.763,3.058a2.237,2.237,0,0,0-.033,1.528.97.97,0,0,0,.693.491,2.6,2.6,0,0,0,.662.019A9.834,9.834,0,0,0,140.959,287.7Z" fill="#263238" stroke="#707070" stroke-width="1"/>
                                    </g>
                                  </g>
                                </g>
                              </g>
                            </g>
                          </g>
                        </g>
                      </g>
                      <g id="Group_319" data-name="Group 319">
                        <g id="Group_318" data-name="Group 318">
                          <g id="Group_317" data-name="Group 317">
                            <g id="Group_316" data-name="Group 316">
                              <g id="Group_315" data-name="Group 315">
                                <g id="Group_314" data-name="Group 314">
                                  <g id="Group_313" data-name="Group 313">
                                    <g id="Group_312" data-name="Group 312">
                                      <path id="Path_217" data-name="Path 217" d="M145.5,288.256c-.246.013-.069,1.644-1.338,2.956s-3.024,1.323-3.011,1.553c-.012.1.422.274,1.158.213a4.089,4.089,0,0,0,2.524-1.2,3.562,3.562,0,0,0,1.017-2.467C145.833,288.618,145.606,288.235,145.5,288.256Z" fill="#263238" stroke="#707070" stroke-width="1"/>
                                    </g>
                                  </g>
                                </g>
                              </g>
                            </g>
                          </g>
                        </g>
                      </g>
                    </g>
                  </g>
                </g>
                <g id="Group_329" data-name="Group 329">
                  <g id="Group_328" data-name="Group 328">
                    <g id="Group_327" data-name="Group 327">
                      <g id="Group_326" data-name="Group 326">
                        <g id="Group_325" data-name="Group 325">
                          <g id="Group_324" data-name="Group 324">
                            <g id="Group_323" data-name="Group 323">
                              <path id="Path_218" data-name="Path 218" d="M144.146,270.115c.193.392,1.672.034,3.458.052,1.787-.018,3.265.341,3.458-.051.085-.187-.205-.544-.823-.876a6.012,6.012,0,0,0-5.269,0C144.351,269.572,144.061,269.929,144.146,270.115Z" fill="#263238" stroke="#707070" stroke-width="1"/>
                            </g>
                          </g>
                        </g>
                      </g>
                    </g>
                  </g>
                </g>
                <g id="Group_336" data-name="Group 336">
                  <g id="Group_335" data-name="Group 335">
                    <g id="Group_334" data-name="Group 334">
                      <g id="Group_333" data-name="Group 333">
                        <g id="Group_332" data-name="Group 332">
                          <g id="Group_331" data-name="Group 331">
                            <g id="Group_330" data-name="Group 330">
                              <path id="Path_219" data-name="Path 219" d="M130.456,272.9c.3.312,1.3-.156,2.541-.31,1.237-.2,2.324-.024,2.527-.408.087-.185-.116-.509-.612-.781a3.707,3.707,0,0,0-4.084.579C130.427,272.379,130.321,272.747,130.456,272.9Z" fill="#263238" stroke="#707070" stroke-width="1"/>
                            </g>
                          </g>
                        </g>
                      </g>
                    </g>
                  </g>
                </g>
              </g>
            </g>
            <g id="Group_354" data-name="Group 354">
              <g id="Group_345" data-name="Group 345">
                <g id="Group_344" data-name="Group 344">
                  <g id="Group_343" data-name="Group 343">
                    <g id="Group_342" data-name="Group 342">
                      <g id="Group_341" data-name="Group 341">
                        <g id="Group_340" data-name="Group 340">
                          <g id="Group_339" data-name="Group 339">
                            <path id="Path_220" data-name="Path 220" d="M161.66,279.346c.158-.09,6.5-2.728,7.022,3.98s-6.319,5.85-6.345,5.659S161.66,279.346,161.66,279.346Z" fill="#ffbe9d" stroke="#707070" stroke-width="1"/>
                          </g>
                        </g>
                      </g>
                    </g>
                  </g>
                </g>
              </g>
              <g id="Group_353" data-name="Group 353">
                <g id="Group_352" data-name="Group 352">
                  <g id="Group_351" data-name="Group 351">
                    <g id="Group_350" data-name="Group 350">
                      <g id="Group_349" data-name="Group 349">
                        <g id="Group_348" data-name="Group 348">
                          <g id="Group_347" data-name="Group 347">
                            <g id="Group_346" data-name="Group 346">
                              <path id="Path_221" data-name="Path 221" d="M164.187,286.283c.028-.023.124.073.328.148a1.174,1.174,0,0,0,.875-.05,2.9,2.9,0,0,0,1.135-2.7,3.856,3.856,0,0,0-.458-1.647,1.351,1.351,0,0,0-.949-.828.594.594,0,0,0-.664.374c-.075.194-.022.325-.057.339-.017.018-.153-.1-.12-.382a.741.741,0,0,1,.231-.441.88.88,0,0,1,.633-.221,1.644,1.644,0,0,1,1.3.944,3.984,3.984,0,0,1,.552,1.838,3.044,3.044,0,0,1-1.479,3.03,1.255,1.255,0,0,1-1.082-.094C164.212,286.444,164.165,286.3,164.187,286.283Z" fill="#eb996e" stroke="#707070" stroke-width="1"/>
                            </g>
                          </g>
                        </g>
                      </g>
                    </g>
                  </g>
                </g>
              </g>
            </g>
          </g>
        </g>
        <g id="Group_359" data-name="Group 359">
          <g id="Group_358" data-name="Group 358">
            <g id="Group_357" data-name="Group 357">
              <path id="Path_222" data-name="Path 222" d="M165.353,278.709a3.535,3.535,0,0,0-3.035,2c-.33,1-.306,2.1-.634,3.1s-1.213,1.974-2.26,1.846a2.071,2.071,0,0,1-1.561-1.372,5.7,5.7,0,0,1-.258-2.154c.05-3.165.365-6.333.143-9.491a16.153,16.153,0,0,0-2.975-8.87c-1.946-2.5-5.2-4.132-8.3-3.533-2.059.4-3.845,1.69-5.877,2.206a8.212,8.212,0,0,1-7.034-1.516c-.249-.2-1.368-.772-1.368-.772a3.869,3.869,0,0,1,.475-2.144c3.677-4.238,10.938-6.109,16.5-5.344A19.625,19.625,0,0,1,163.1,261.5c2.885,4.812,2.973,11.937,2.256,17.207" fill="#263238" stroke="#707070" stroke-width="1"/>
            </g>
          </g>
        </g>
      </g>
      <g id="Group_373" data-name="Group 373">
        <g id="Group_361" data-name="Group 361">
          <path id="Path_223" data-name="Path 223" d="M56.092,432.99s72.209-47.365,75.166-48.35,10.1-5.667,17.248-3.7,13.552,8.377,16.755,17.74,3.45,30.307,3.45,30.307-5.668,16.509-16.755,19.958a28.191,28.191,0,0,1-2.887.725c-13.534,2.685-27.3-3.538-34.874-15.07l-1.611-2.453s-47.237,17.354-47.976,17.107Z" fill="#263238" stroke="#707070" stroke-width="1"/>
        </g>
        <g id="Group_362" data-name="Group 362">
          <path id="Path_224" data-name="Path 224" d="M31.468,377.741S22.634,380.895,22.6,390.8c-.071,18.972,38.335,39.885,38.335,39.885l51.107-33.863v-3.558S46.251,369.61,31.468,377.741Z" fill="#263238" stroke="#707070" stroke-width="1"/>
        </g>
        <g id="Group_364" data-name="Group 364">
          <g id="Group_363" data-name="Group 363">
            <path id="Path_225" data-name="Path 225" d="M145.427,419.952s-.131.067-.4.176l-1.182.469-4.578,1.762-17.013,6.409c-7.227,2.7-15.883,5.9-25.6,9.437s-20.478,7.406-31.973,11.3l-.209.071-.1-.2-5.642-10.773c-.985-1.883-1.962-3.751-2.875-5.5l-.111-.211.2-.127,55.081-34.966,16.546-10.436,4.493-2.8,1.173-.717c.266-.159.409-.23.409-.23s-.125.1-.381.273l-1.147.76-4.443,2.884-16.459,10.572-54.99,35.1.089-.339,2.877,5.494,5.638,10.776-.311-.126c11.489-3.881,22.258-7.739,31.98-11.241l25.632-9.328,17.067-6.261,4.61-1.677,1.2-.424C145.284,419.988,145.427,419.952,145.427,419.952Z" fill="#455a64" stroke="#707070" stroke-width="1"/>
          </g>
        </g>
        <g id="Group_366" data-name="Group 366">
          <g id="Group_365" data-name="Group 365">
            <path id="Path_226" data-name="Path 226" d="M86.15,413.926a9.733,9.733,0,0,1-1.331-.9c-.837-.607-2.032-1.508-3.5-2.64-2.927-2.261-6.908-5.467-11.191-9.143s-8.054-7.13-10.732-9.68c-1.339-1.275-2.411-2.32-3.137-3.056a9.614,9.614,0,0,1-1.094-1.179,9.365,9.365,0,0,1,1.233,1.032l3.249,2.933c2.739,2.479,6.544,5.881,10.821,9.555s8.215,6.917,11.08,9.25l3.39,2.768A9.406,9.406,0,0,1,86.15,413.926Z" fill="#455a64" stroke="#707070" stroke-width="1"/>
          </g>
        </g>
        <g id="Group_368" data-name="Group 368">
          <g id="Group_367" data-name="Group 367">
            <path id="Path_227" data-name="Path 227" d="M45.9,384.832a10.108,10.108,0,0,1,4.925.447,10.115,10.115,0,0,1,4.379,2.3c-.085.135-1.948-1.052-4.526-1.8C48.1,385.007,45.893,384.992,45.9,384.832Z" fill="#455a64" stroke="#707070" stroke-width="1"/>
          </g>
        </g>
        <g id="Group_370" data-name="Group 370">
          <g id="Group_369" data-name="Group 369">
            <path id="Path_228" data-name="Path 228" d="M50.3,381.842a6.144,6.144,0,0,1,3.03,2.279,6.144,6.144,0,0,1,1.59,3.442c-.149.052-.707-1.54-1.995-3.115C51.655,382.858,50.216,381.977,50.3,381.842Z" fill="#455a64" stroke="#707070" stroke-width="1"/>
          </g>
        </g>
        <g id="Group_372" data-name="Group 372">
          <g id="Group_371" data-name="Group 371">
            <path id="Path_229" data-name="Path 229" d="M28.657,441.915c-.027-.059.61-.182,1.318.4a4.781,4.781,0,0,1,1.477,2.966,5.83,5.83,0,0,1-.466,3.271c-.362.777-.76,1.141-.8,1.1-.07-.048.21-.479.462-1.241a6.639,6.639,0,0,0,.292-3.06,5.131,5.131,0,0,0-1.208-2.767C29.185,442.02,28.647,442,28.657,441.915Z" fill="#263238" stroke="#707070" stroke-width="1"/>
          </g>
        </g>
      </g>
      <g id="Group_374" data-name="Group 374">
        <path id="Path_230" data-name="Path 230" d="M66.642,302.02" fill="#ffbe9d" stroke="#707070" stroke-width="1"/>
      </g>
    </g>
    <g id="Group_498" data-name="Group 498">
      <g id="Group_378" data-name="Group 378">
        <g id="Group_376" data-name="Group 376">
          <rect id="Rectangle_17" data-name="Rectangle 17" width="69.761" height="9.585" transform="translate(383.114 387.397)" fill="#263238" stroke="#707070" stroke-width="1"/>
        </g>
        <g id="Group_377" data-name="Group 377">
          <path id="Path_231" data-name="Path 231" d="M452.993,397.1h-70v-9.824h70Zm-69.76-.239h69.522v-9.347H383.233Z" fill="#263238" stroke="#707070" stroke-width="1"/>
        </g>
      </g>
      <g id="Group_380" data-name="Group 380">
        <g id="Group_379" data-name="Group 379">
          <path id="Path_232" data-name="Path 232" d="M389.582,393.792l10.041,49.538h37.154l9.707-46.348Z" fill="#263238" stroke="#707070" stroke-width="1"/>
        </g>
      </g>
      <g id="Group_382" data-name="Group 382">
        <g id="Group_381" data-name="Group 381">
          <path id="Path_233" data-name="Path 233" d="M389.582,438.644l5.355,7.364H440.1l6.386-7.364Z" fill="#455a64" stroke="#707070" stroke-width="1"/>
        </g>
      </g>
      <g id="Group_385" data-name="Group 385">
        <g id="Group_384" data-name="Group 384">
          <g id="Group_383" data-name="Group 383">
            <path id="Path_234" data-name="Path 234" d="M415.374,395.239c-.137,0-.313-22.949-.392-51.253s-.033-51.259.1-51.259.313,22.944.393,51.258S415.512,395.239,415.374,395.239Z" fill="#263238" stroke="#707070" stroke-width="1"/>
          </g>
        </g>
      </g>
      <g id="Group_388" data-name="Group 388">
        <g id="Group_387" data-name="Group 387">
          <g id="Group_386" data-name="Group 386">
            <path id="Path_235" data-name="Path 235" d="M430.914,337.808a2.522,2.522,0,0,1-.187.534l-.623,1.485-.455,1.069-.464,1.3q-.254.7-.538,1.494c-.187.531-.333,1.108-.516,1.7a69.359,69.359,0,0,0-1.951,8.542,103.672,103.672,0,0,0-1.08,10.681,143.946,143.946,0,0,0,.551,19.511c.224,2.49.45,4.5.616,5.893.072.651.13,1.182.176,1.6a2.4,2.4,0,0,1,.028.564,2.415,2.415,0,0,1-.127-.55c-.071-.417-.159-.943-.269-1.59-.224-1.383-.5-3.393-.774-5.884a128.513,128.513,0,0,1-.7-19.57,97.215,97.215,0,0,1,1.125-10.733,64.626,64.626,0,0,1,2.067-8.569c.195-.6.354-1.174.553-1.7l.577-1.49.505-1.3c.172-.39.348-.739.5-1.057l.71-1.451A2.4,2.4,0,0,1,430.914,337.808Z" fill="#263238" stroke="#707070" stroke-width="1"/>
          </g>
        </g>
      </g>
      <g id="Group_391" data-name="Group 391">
        <g id="Group_390" data-name="Group 390">
          <g id="Group_389" data-name="Group 389">
            <path id="Path_236" data-name="Path 236" d="M429.131,319.246a4.67,4.67,0,0,1-.222.757l-.727,2.134q-.242.7-.533,1.538-.259.858-.561,1.853c-.408,1.328-.881,2.837-1.3,4.535q-.336,1.269-.7,2.653l-.654,2.9c-.488,2-.839,4.167-1.289,6.434-.769,4.558-1.446,9.6-1.913,14.912-.441,5.32-.633,10.4-.7,15.027-.014,4.624.045,8.791.235,12.284.061,1.749.173,3.327.263,4.714s.168,2.582.256,3.556q.108,1.411.171,2.248a4.639,4.639,0,0,1,.026.788,4.661,4.661,0,0,1-.126-.777q-.1-.837-.263-2.241c-.119-.972-.234-2.165-.341-3.553s-.253-2.966-.337-4.717c-.236-3.5-.331-7.671-.342-12.306.042-4.634.221-9.731.663-15.065.468-5.33,1.161-10.383,1.957-14.95.464-2.272.831-4.445,1.338-6.445q.354-1.5.683-2.9l.734-2.653c.443-1.7.941-3.2,1.375-4.526l.6-1.845q.314-.831.575-1.527l.815-2.1A4.569,4.569,0,0,1,429.131,319.246Z" fill="#263238" stroke="#707070" stroke-width="1"/>
          </g>
        </g>
      </g>
      <g id="Group_394" data-name="Group 394">
        <g id="Group_393" data-name="Group 393">
          <g id="Group_392" data-name="Group 392">
            <path id="Path_237" data-name="Path 237" d="M410.962,399.3a1.041,1.041,0,0,1-.039-.268c-.018-.206-.039-.466-.066-.79-.05-.731-.118-1.748-.2-3.039-.168-2.677-.406-6.487-.7-11.179-.606-9.437-1.481-22.474-3.069-36.812-.812-7.168-1.753-13.976-2.731-20.149-.52-3.081-.991-6.013-1.527-8.74-.49-2.736-1.019-5.27-1.506-7.582-.458-2.319-.97-4.395-1.381-6.228s-.8-3.4-1.121-4.684c-.308-1.256-.551-2.245-.725-2.957l-.176-.773a1.132,1.132,0,0,1-.044-.267,1.077,1.077,0,0,1,.093.254c.058.2.132.448.224.76.2.706.469,1.688.815,2.935.356,1.275.774,2.838,1.205,4.668s.973,3.9,1.454,6.217c.509,2.311,1.058,4.844,1.567,7.58.554,2.727,1.041,5.66,1.574,8.743,1,6.177,1.96,12.992,2.773,20.168,1.589,14.352,2.41,27.4,2.926,36.847.256,4.722.435,8.546.542,11.189.047,1.293.085,2.312.112,3.044.007.325.012.586.016.792A1.081,1.081,0,0,1,410.962,399.3Z" fill="#263238" stroke="#707070" stroke-width="1"/>
          </g>
        </g>
      </g>
      <g id="Group_396" data-name="Group 396">
        <g id="Group_395" data-name="Group 395">
          <path id="Path_238" data-name="Path 238" d="M414.8,303.759c-.3-3.251-3.588-5.7-6.854-5.737s-6.308,1.924-8.3,4.508a25.963,25.963,0,0,0-4,8.876c-2.2,7.66-3.4,15.707-2.461,23.621s4.151,15.7,9.829,21.3c.923.909,2.119,1.818,3.387,1.548a4.089,4.089,0,0,0,1.786-1.1,52.859,52.859,0,0,0,17.155-40.2c-.088-3.009-.483-6.141-2.15-8.648s-5.551-5.169-8.388-4.163" fill="#008c8d" stroke="#707070" stroke-width="1"/>
        </g>
      </g>
      <g id="Group_416" data-name="Group 416">
        <g id="Group_398" data-name="Group 398">
          <g id="Group_397" data-name="Group 397">
            <path id="Path_239" data-name="Path 239" d="M390.424,277.718q-2.3,4.164-4.6,8.329c-.107.194-.249.411-.47.43-.241.02-.422-.209-.554-.412q-6.079-9.33-12.158-18.66l2.8-1.587Z" fill="#008c8d" stroke="#707070" stroke-width="1"/>
          </g>
        </g>
        <g id="Group_401" data-name="Group 401" opacity="0.2">
          <g id="Group_400" data-name="Group 400">
            <g id="Group_399" data-name="Group 399">
              <path id="Path_240" data-name="Path 240" d="M390.424,277.718q-2.3,4.164-4.6,8.329c-.107.194-.249.411-.47.43-.241.02-.422-.209-.554-.412q-6.079-9.33-12.158-18.66l2.8-1.587Z" stroke="#707070" stroke-width="1"/>
            </g>
          </g>
        </g>
        <g id="Group_403" data-name="Group 403">
          <g id="Group_402" data-name="Group 402">
            <path id="Path_241" data-name="Path 241" d="M415.086,292.726l-41.475-24.474a1.931,1.931,0,0,1-1.01-1.018c-.165-.614.3-1.206.738-1.662a28.581,28.581,0,0,1,22.165-8.708,25.325,25.325,0,0,1,20.038,12.462c4,7.152,4.135,16.611-.456,23.4" fill="#008c8d" stroke="#707070" stroke-width="1"/>
          </g>
        </g>
        <g id="Group_406" data-name="Group 406">
          <g id="Group_405" data-name="Group 405">
            <g id="Group_404" data-name="Group 404">
              <path id="Path_242" data-name="Path 242" d="M379.588,260.44a2.276,2.276,0,0,1,.544-.068c.357-.018.885-.082,1.567-.075a31.216,31.216,0,0,1,5.755.457A33.637,33.637,0,0,1,414.3,285.045a31.222,31.222,0,0,1,1.028,5.68c.075.678.063,1.209.081,1.567a2.275,2.275,0,0,1-.013.547c-.044,0-.1-.748-.261-2.093a35.328,35.328,0,0,0-1.173-5.605A33.883,33.883,0,0,0,387.392,261.1a35.371,35.371,0,0,0-5.694-.61C380.343,260.461,379.591,260.484,379.588,260.44Z" fill="#263238" stroke="#707070" stroke-width="1"/>
            </g>
          </g>
        </g>
        <g id="Group_409" data-name="Group 409">
          <g id="Group_408" data-name="Group 408">
            <g id="Group_407" data-name="Group 407">
              <path id="Path_243" data-name="Path 243" d="M409.472,275.834a10,10,0,0,1-2.1.953c-1.322.521-3.168,1.186-5.234,1.843s-3.959,1.178-5.338,1.515a10,10,0,0,1-2.262.431,11.231,11.231,0,0,1,2.167-.77l5.283-1.65,5.265-1.7A11.241,11.241,0,0,1,409.472,275.834Z" fill="#263238" stroke="#707070" stroke-width="1"/>
            </g>
          </g>
        </g>
        <g id="Group_412" data-name="Group 412">
          <g id="Group_411" data-name="Group 411">
            <g id="Group_410" data-name="Group 410">
              <path id="Path_244" data-name="Path 244" d="M402.941,258.29a28.973,28.973,0,0,1,.235,9.273,28.96,28.96,0,0,1-.241-4.633A28.97,28.97,0,0,1,402.941,258.29Z" fill="#263238" stroke="#707070" stroke-width="1"/>
            </g>
          </g>
        </g>
        <g id="Group_415" data-name="Group 415">
          <g id="Group_414" data-name="Group 414">
            <g id="Group_413" data-name="Group 413">
              <path id="Path_245" data-name="Path 245" d="M373.249,267.788a18.715,18.715,0,0,1,3.013-1.06c1.884-.581,4.508-1.316,7.433-2.022s5.6-1.245,7.54-1.585a18.4,18.4,0,0,1,3.165-.428,22.546,22.546,0,0,1-3.1.772c-1.921.429-4.573,1.022-7.492,1.724s-5.549,1.384-7.455,1.877A22.312,22.312,0,0,1,373.249,267.788Z" fill="#263238" stroke="#707070" stroke-width="1"/>
            </g>
          </g>
        </g>
      </g>
      <g id="Group_434" data-name="Group 434">
        <g id="Group_418" data-name="Group 418">
          <g id="Group_417" data-name="Group 417">
            <path id="Path_246" data-name="Path 246" d="M395.962,296.064c-3.567-2.7-7.339-3.238-11.812-3.061a36.115,36.115,0,0,0-12.928,3.336c-6.993,3.063-13.567,7.578-17.746,13.968s-5.633,14.85-2.5,21.814a3.1,3.1,0,0,0,1.416,1.719,3.388,3.388,0,0,0,2.341-.179c7.954-2.6,15.965-5.214,23.279-9.278s13.97-9.712,17.9-17.1a14.693,14.693,0,0,0,1.884-5.675,7.053,7.053,0,0,0-1.825-5.543" fill="#008c8d" stroke="#707070" stroke-width="1"/>
          </g>
        </g>
        <g id="Group_421" data-name="Group 421">
          <g id="Group_420" data-name="Group 420">
            <g id="Group_419" data-name="Group 419">
              <path id="Path_247" data-name="Path 247" d="M396.033,295.225a2.967,2.967,0,0,1-.573.232l-1.666.573-1.207.4c-.438.157-.9.353-1.41.549-1.007.407-2.175.814-3.4,1.411l-1.951.888c-.676.313-1.351.7-2.066,1.061-1.442.708-2.9,1.613-4.454,2.53a70.388,70.388,0,0,0-17.547,15.438c-1.108,1.424-2.191,2.756-3.078,4.1-.452.663-.919,1.284-1.315,1.915s-.769,1.239-1.129,1.821c-.749,1.144-1.3,2.251-1.833,3.2-.259.478-.513.915-.725,1.329l-.553,1.146-.78,1.579a2.92,2.92,0,0,1-.3.539,2.865,2.865,0,0,1,.212-.579l.7-1.622q.237-.534.516-1.168c.2-.422.443-.867.69-1.353.511-.962,1.045-2.087,1.778-3.248q.531-.885,1.108-1.849c.39-.64.852-1.27,1.3-1.941.878-1.359,1.955-2.708,3.061-4.15a68.147,68.147,0,0,1,17.663-15.54c1.57-.913,3.046-1.809,4.505-2.506.723-.359,1.406-.736,2.091-1.041l1.974-.864c1.246-.579,2.429-.966,3.449-1.35.513-.184.986-.367,1.43-.512l1.224-.363,1.7-.485A2.839,2.839,0,0,1,396.033,295.225Z" fill="#263238" stroke="#707070" stroke-width="1"/>
            </g>
          </g>
        </g>
        <g id="Group_424" data-name="Group 424">
          <g id="Group_423" data-name="Group 423">
            <g id="Group_422" data-name="Group 422">
              <path id="Path_248" data-name="Path 248" d="M368.165,310.314a83.669,83.669,0,0,1-8.677,2.8,84.09,84.09,0,0,1-8.817,2.319,83.558,83.558,0,0,1,8.678-2.8A83.758,83.758,0,0,1,368.165,310.314Z" fill="#263238" stroke="#707070" stroke-width="1"/>
            </g>
          </g>
        </g>
        <g id="Group_427" data-name="Group 427">
          <g id="Group_426" data-name="Group 426">
            <g id="Group_425" data-name="Group 425">
              <path id="Path_249" data-name="Path 249" d="M367.808,329.462a13.925,13.925,0,0,1-.191-2.7c-.046-1.671-.053-3.982.018-6.532s.208-4.858.347-6.524a13.872,13.872,0,0,1,.342-2.689,15.5,15.5,0,0,1,.009,2.708c-.056,1.832-.125,4.058-.2,6.519s-.117,4.687-.163,6.518A15.566,15.566,0,0,1,367.808,329.462Z" fill="#263238" stroke="#707070" stroke-width="1"/>
            </g>
          </g>
        </g>
        <g id="Group_430" data-name="Group 430">
          <g id="Group_429" data-name="Group 429">
            <g id="Group_428" data-name="Group 428">
              <path id="Path_250" data-name="Path 250" d="M384.211,321.106c-.137.009-.574-4.686-.975-10.486s-.615-10.511-.478-10.52.573,4.684.974,10.486S384.347,321.1,384.211,321.106Z" fill="#263238" stroke="#707070" stroke-width="1"/>
            </g>
          </g>
        </g>
        <g id="Group_433" data-name="Group 433">
          <g id="Group_432" data-name="Group 432">
            <g id="Group_431" data-name="Group 431">
              <path id="Path_251" data-name="Path 251" d="M363.793,299.644a15.387,15.387,0,0,1,2.782-.084c1.715.012,4.082.062,6.695.149s4.98.192,6.692.294a15.471,15.471,0,0,1,2.769.267,15.281,15.281,0,0,1-2.777.084c-1.715-.012-4.084-.062-6.7-.148s-4.983-.193-6.7-.295A15.393,15.393,0,0,1,363.793,299.644Z" fill="#263238" stroke="#707070" stroke-width="1"/>
            </g>
          </g>
        </g>
      </g>
      <g id="Group_437" data-name="Group 437">
        <g id="Group_436" data-name="Group 436">
          <g id="Group_435" data-name="Group 435">
            <path id="Path_252" data-name="Path 252" d="M404.794,358.557a2.473,2.473,0,0,1-.059-.567c-.019-.427-.044-.966-.073-1.63-.063-1.415-.077-3.466-.024-6s.214-5.548.512-8.885c.323-3.336.79-6.993,1.46-10.8.687-3.808,1.512-7.4,2.36-10.644.873-3.236,1.756-6.123,2.588-8.517s1.546-4.315,2.094-5.621l.631-1.5a2.392,2.392,0,0,1,.251-.511,2.489,2.489,0,0,1-.158.548c-.142.4-.322.91-.544,1.536-.491,1.326-1.16,3.26-1.94,5.663s-1.633,5.29-2.479,8.522c-.821,3.237-1.629,6.821-2.314,10.616-.667,3.8-1.146,7.437-1.493,10.759-.323,3.324-.527,6.327-.617,8.852s-.137,4.572-.134,5.986c-.008.663-.015,1.2-.02,1.629A2.478,2.478,0,0,1,404.794,358.557Z" fill="#263238" stroke="#707070" stroke-width="1"/>
          </g>
        </g>
      </g>
      <g id="Group_440" data-name="Group 440">
        <g id="Group_439" data-name="Group 439">
          <g id="Group_438" data-name="Group 438">
            <path id="Path_253" data-name="Path 253" d="M406.982,330.258a11.408,11.408,0,0,1-1.655,1.816c-1.073,1.07-2.6,2.507-4.334,4.031s-3.364,2.847-4.565,3.771a11.431,11.431,0,0,1-2.016,1.4,12.713,12.713,0,0,1,1.794-1.674l4.459-3.873,4.422-3.913A12.823,12.823,0,0,1,406.982,330.258Z" fill="#263238" stroke="#707070" stroke-width="1"/>
          </g>
        </g>
      </g>
      <g id="Group_443" data-name="Group 443">
        <g id="Group_442" data-name="Group 442">
          <g id="Group_441" data-name="Group 441">
            <path id="Path_254" data-name="Path 254" d="M420.11,340.833a19.406,19.406,0,0,1-1.762-2.441l-4.1-5.98c-1.589-2.251-3.027-4.285-4.184-5.923a19.528,19.528,0,0,1-1.676-2.5,16.772,16.772,0,0,1,1.958,2.29c1.15,1.461,2.689,3.52,4.31,5.85s3.016,4.487,3.986,6.074A16.944,16.944,0,0,1,420.11,340.833Z" fill="#263238" stroke="#707070" stroke-width="1"/>
          </g>
        </g>
      </g>
      <g id="Group_446" data-name="Group 446">
        <g id="Group_445" data-name="Group 445">
          <g id="Group_444" data-name="Group 444">
            <path id="Path_255" data-name="Path 255" d="M413.233,307.576c.074.115-4.287,3.051-9.739,6.556s-9.935,6.255-10.009,6.139,4.286-3.051,9.74-6.557S413.158,307.46,413.233,307.576Z" fill="#263238" stroke="#707070" stroke-width="1"/>
          </g>
        </g>
      </g>
      <g id="Group_449" data-name="Group 449">
        <g id="Group_448" data-name="Group 448">
          <g id="Group_447" data-name="Group 447">
            <path id="Path_256" data-name="Path 256" d="M425.529,320.847a81.4,81.4,0,0,1-6.6-6.095,81.222,81.222,0,0,1-6.249-6.451,162.721,162.721,0,0,1,12.845,12.546Z" fill="#263238" stroke="#707070" stroke-width="1"/>
          </g>
        </g>
      </g>
      <g id="Group_467" data-name="Group 467">
        <g id="Group_451" data-name="Group 451">
          <g id="Group_450" data-name="Group 450">
            <path id="Path_257" data-name="Path 257" d="M428.621,320.581l3.744-.31a18.521,18.521,0,0,0,7.56-2.314,30.127,30.127,0,0,1,3.523-1.77c4.629-1.858,9.793-1.525,14.774-1.775a61.161,61.161,0,0,0,23.5-6.01,2.279,2.279,0,0,0,1.024-.929c.769-1.4-.659-2.648-1.888-3.4-6.307-3.887-12.727-7.822-19.879-9.752s-15.271-1.6-21.374,2.6c-7.164,4.93-9.774,15.056-10.985,23.668" fill="#008c8d" stroke="#707070" stroke-width="1"/>
          </g>
        </g>
        <g id="Group_454" data-name="Group 454">
          <g id="Group_453" data-name="Group 453">
            <g id="Group_452" data-name="Group 452">
              <path id="Path_258" data-name="Path 258" d="M482.832,307.013a3.627,3.627,0,0,1-.635-.3l-1.774-.929c-1.539-.809-3.755-2-6.554-3.346a61.266,61.266,0,0,0-10.145-3.91,33.476,33.476,0,0,0-13.148-1.065,22.478,22.478,0,0,0-11.987,5.147,26.663,26.663,0,0,0-6.241,8.767,73.349,73.349,0,0,0-2.716,6.826q-.414,1.173-.666,1.888a3.777,3.777,0,0,1-.262.649,3.78,3.78,0,0,1,.167-.68l.578-1.919a62.234,62.234,0,0,1,2.58-6.912,26.549,26.549,0,0,1,6.257-8.962,22.725,22.725,0,0,1,12.225-5.3,33.462,33.462,0,0,1,13.336,1.117,58.974,58.974,0,0,1,10.176,4.035c2.79,1.388,4.982,2.631,6.493,3.493l1.73,1.011A3.776,3.776,0,0,1,482.832,307.013Z" fill="#263238" stroke="#707070" stroke-width="1"/>
            </g>
          </g>
        </g>
        <g id="Group_457" data-name="Group 457">
          <g id="Group_456" data-name="Group 456">
            <g id="Group_455" data-name="Group 455">
              <path id="Path_259" data-name="Path 259" d="M473.841,311.843c-.076.114-4.973-3.053-10.934-7.073s-10.735-7.373-10.658-7.487,4.972,3.053,10.936,7.075S473.918,311.729,473.841,311.843Z" fill="#263238" stroke="#707070" stroke-width="1"/>
            </g>
          </g>
        </g>
        <g id="Group_460" data-name="Group 460">
          <g id="Group_459" data-name="Group 459">
            <g id="Group_458" data-name="Group 458">
              <path id="Path_260" data-name="Path 260" d="M469.138,296.815a18.358,18.358,0,0,1-7.719.71,90.174,90.174,0,0,1,7.719-.71Z" fill="#263238" stroke="#707070" stroke-width="1"/>
            </g>
          </g>
        </g>
        <g id="Group_463" data-name="Group 463">
          <g id="Group_462" data-name="Group 462">
            <g id="Group_461" data-name="Group 461">
              <path id="Path_261" data-name="Path 261" d="M447.186,292.882a25.949,25.949,0,0,1-3.641,6.171,25.984,25.984,0,0,1,3.641-6.171Z" fill="#263238" stroke="#707070" stroke-width="1"/>
            </g>
          </g>
        </g>
        <g id="Group_466" data-name="Group 466">
          <g id="Group_465" data-name="Group 465">
            <g id="Group_464" data-name="Group 464">
              <path id="Path_262" data-name="Path 262" d="M451.573,314.727a12.974,12.974,0,0,1-2.357-1.277c-1.414-.859-3.325-2.117-5.368-3.6s-3.843-2.886-5.137-3.912a14.517,14.517,0,0,1-2.033-1.744,14.132,14.132,0,0,1,2.244,1.463l5.218,3.79c2.036,1.478,3.906,2.775,5.267,3.707A16.113,16.113,0,0,1,451.573,314.727Z" fill="#263238" stroke="#707070" stroke-width="1"/>
            </g>
          </g>
        </g>
      </g>
      <g id="Group_485" data-name="Group 485">
        <g id="Group_469" data-name="Group 469">
          <g id="Group_468" data-name="Group 468">
            <path id="Path_263" data-name="Path 263" d="M434.133,336.486c-3.57-.943-7.827,2.53-8.563,6.149s.622,7.321,2.211,10.654a54.336,54.336,0,0,0,14.766,19.32c6.394,5.1,14.4,8.353,22.577,8.312-1.509-7.012.4-14.337-.442-21.459a27.915,27.915,0,0,0-24.722-24.477c-2.28-.246-4.917-.6-5.827,1.5" fill="#008c8d" stroke="#707070" stroke-width="1"/>
          </g>
        </g>
        <g id="Group_472" data-name="Group 472">
          <g id="Group_471" data-name="Group 471">
            <g id="Group_470" data-name="Group 470">
              <path id="Path_264" data-name="Path 264" d="M465.124,380.921a2.339,2.339,0,0,1-.508-.237,9.249,9.249,0,0,1-1.336-.9,13.923,13.923,0,0,1-3.525-4.715c-.57-1.106-1.206-2.306-1.827-3.635-.6-1.333-1.246-2.754-1.921-4.246a41.237,41.237,0,0,0-2.361-4.539,35.583,35.583,0,0,0-3.249-4.418c-2.444-2.872-5.067-5.356-7.341-7.73a50.476,50.476,0,0,1-5.6-6.715,24.7,24.7,0,0,1-2.735-5.224c-.23-.659-.395-1.174-.477-1.532a2.432,2.432,0,0,1-.113-.548c.047-.014.249.729.77,2.009a26.982,26.982,0,0,0,2.845,5.1,53.22,53.22,0,0,0,5.636,6.6c2.284,2.347,4.922,4.825,7.392,7.726a35.147,35.147,0,0,1,3.285,4.486,40.387,40.387,0,0,1,2.363,4.6c.66,1.5,1.288,2.925,1.878,4.263.6,1.323,1.218,2.536,1.765,3.647a14.447,14.447,0,0,0,3.338,4.728C464.448,380.539,465.154,380.873,465.124,380.921Z" fill="#263238" stroke="#707070" stroke-width="1"/>
            </g>
          </g>
        </g>
        <g id="Group_475" data-name="Group 475">
          <g id="Group_474" data-name="Group 474">
            <g id="Group_473" data-name="Group 473">
              <path id="Path_265" data-name="Path 265" d="M446.66,375.094a10.668,10.668,0,0,1,.327-2.4c.28-1.471.739-3.489,1.357-5.689s1.283-4.161,1.812-5.561a10.736,10.736,0,0,1,.975-2.221,12.921,12.921,0,0,1-.642,2.335c-.443,1.425-1.049,3.393-1.666,5.582s-1.126,4.184-1.493,5.63A12.929,12.929,0,0,1,446.66,375.094Z" fill="#263238" stroke="#707070" stroke-width="1"/>
            </g>
          </g>
        </g>
        <g id="Group_478" data-name="Group 478">
          <g id="Group_477" data-name="Group 477">
            <g id="Group_476" data-name="Group 476">
              <path id="Path_266" data-name="Path 266" d="M464.448,357.884a14.754,14.754,0,0,1-2.516-.579c-1.538-.4-3.663-.951-6.027-1.485s-4.52-.946-6.082-1.242a14.815,14.815,0,0,1-2.52-.555,12.166,12.166,0,0,1,2.576.208c1.581.209,3.758.57,6.136,1.105s4.5,1.142,6.015,1.632A12.177,12.177,0,0,1,464.448,357.884Z" fill="#263238" stroke="#707070" stroke-width="1"/>
            </g>
          </g>
        </g>
        <g id="Group_481" data-name="Group 481">
          <g id="Group_480" data-name="Group 480">
            <g id="Group_479" data-name="Group 479">
              <path id="Path_267" data-name="Path 267" d="M433.41,362.884a14.422,14.422,0,0,1,.386-2.781c.314-1.7.814-4.048,1.481-6.609s1.379-4.849,1.938-6.49a14.539,14.539,0,0,1,1.022-2.615,16.908,16.908,0,0,1-.687,2.72c-.472,1.664-1.125,3.96-1.792,6.511s-1.217,4.873-1.618,6.555A17.111,17.111,0,0,1,433.41,362.884Z" fill="#263238" stroke="#707070" stroke-width="1"/>
            </g>
          </g>
        </g>
        <g id="Group_484" data-name="Group 484">
          <g id="Group_483" data-name="Group 483">
            <g id="Group_482" data-name="Group 482">
              <path id="Path_268" data-name="Path 268" d="M456.256,342.885c-.015.137-4.472-.224-9.955-.805s-9.918-1.164-9.9-1.3,4.471.224,9.956.8S456.27,342.749,456.256,342.885Z" fill="#263238" stroke="#707070" stroke-width="1"/>
            </g>
          </g>
        </g>
      </g>
      <g id="Group_488" data-name="Group 488">
        <g id="Group_487" data-name="Group 487">
          <g id="Group_486" data-name="Group 486">
            <path id="Path_269" data-name="Path 269" d="M452.99,396.942c0,.138-15.669.249-34.994.249s-35-.111-35-.249,15.666-.248,35-.248S452.99,396.8,452.99,396.942Z" fill="#455a64" stroke="#707070" stroke-width="1"/>
          </g>
        </g>
      </g>
      <g id="Group_491" data-name="Group 491">
        <g id="Group_490" data-name="Group 490">
          <g id="Group_489" data-name="Group 489">
            <path id="Path_270" data-name="Path 270" d="M442.088,417.107c0,.137-10.557.248-23.578.248s-23.58-.111-23.58-.248,10.555-.248,23.58-.248S442.088,416.97,442.088,417.107Z" fill="#455a64" stroke="#707070" stroke-width="1"/>
          </g>
        </g>
      </g>
      <g id="Group_494" data-name="Group 494">
        <g id="Group_493" data-name="Group 493">
          <g id="Group_492" data-name="Group 492">
            <path id="Path_271" data-name="Path 271" d="M442.5,419.99c0,.137-10.558.248-23.578.248s-23.58-.111-23.58-.248,10.555-.248,23.58-.248S442.5,419.853,442.5,419.99Z" fill="#455a64" stroke="#707070" stroke-width="1"/>
          </g>
        </g>
      </g>
      <g id="Group_497" data-name="Group 497">
        <g id="Group_496" data-name="Group 496">
          <g id="Group_495" data-name="Group 495">
            <path id="Path_272" data-name="Path 272" d="M442.5,414.73c0,.138-10.92.249-24.388.249s-24.391-.111-24.391-.249,10.918-.248,24.391-.248S442.5,414.593,442.5,414.73Z" fill="#455a64" stroke="#707070" stroke-width="1"/>
          </g>
        </g>
      </g>
    </g>
  </g>
</svg>
