<svg xmlns="http://www.w3.org/2000/svg" xmlns:xlink="http://www.w3.org/1999/xlink" width="615.823" height="461.469" viewBox="0 0 615.823 461.469">
  <defs>
    <linearGradient id="linear-gradient" y1="0.5" x2="1" y2="0.5" gradientUnits="objectBoundingBox">
      <stop offset="0" stop-color="#dfefea"/>
      <stop offset="1" stop-color="#bfe3ee"/>
    </linearGradient>
    <linearGradient id="linear-gradient-2" y1="0.5" x2="1" y2="0.5" gradientUnits="objectBoundingBox">
      <stop offset="0" stop-color="#f1f8f7"/>
      <stop offset="1" stop-color="#bfe3ee"/>
    </linearGradient>
    <linearGradient id="linear-gradient-4" x1="0.321" y1="8.569" x2="1.292" y2="8.569" xlink:href="#linear-gradient-2"/>
    <linearGradient id="linear-gradient-5" x1="0.258" y1="8.619" x2="1.248" y2="8.619" xlink:href="#linear-gradient-2"/>
  </defs>
  <g id="banner" transform="translate(-2484.375 1771.483)">
    <g id="Group_48" data-name="Group 48" transform="translate(2484.905 -1747.667)">
      <g id="Group_2" data-name="Group 2" transform="translate(469.783 36.419)">
        <path id="Path_10" data-name="Path 10" d="M5057.282-1452.033l32.6,37.415,48.246,3.439L5113.837-1368l10.423,46.335-47.362-9.148-42.061,23.618-4.722-47.258-36.673-33.317,44.7-18.48Z" transform="translate(-4993.443 1452.033)" fill="#ffd147" stroke="#707070" stroke-width="1"/>
        <path id="Path_11" data-name="Path 11" d="M5417.91-1407.344l-48.247-3.44-31.973-36.531,19.582,120.54,46.768,8.948-10.424-46.334Z" transform="translate(-5273.222 1448.198)" fill="#f6a505" stroke="#707070" stroke-width="1"/>
      </g>
      <g id="Group_9" data-name="Group 9" transform="translate(531.181 159.062)">
        <g id="Group_4" data-name="Group 4" transform="translate(44.749)">
          <path id="Path_12" data-name="Path 12" d="M5567.561-728.25l-.6,42.6,11.561-3.078L5572-730.257Z" transform="translate(-5565.706 742.784)" fill="#f39f85" stroke="#707070" stroke-width="1"/>
          <g id="Group_3" data-name="Group 3">
            <path id="Path_13" data-name="Path 13" d="M5568.31-793.09a6.193,6.193,0,0,1-.278,4.413l-1.5,5.584-1.058.536-3.389,1.223c.529-1.069.213.085.213.085l-1.23-8.609s-3.621-5.06,4.351-7.216a1.9,1.9,0,0,1,2.069.675A4.857,4.857,0,0,1,5568.31-793.09Z" transform="translate(-5560.245 797.148)" fill="#f39f85" stroke="#707070" stroke-width="1"/>
          </g>
          <path id="Path_14" data-name="Path 14" d="M5573.393-483.2a250.078,250.078,0,0,1-6.43-33.5l11.152-5.673,5.033,14.716Z" transform="translate(-5565.705 573.833)" fill="#00666b" stroke="#707070" stroke-width="1"/>
        </g>
        <path id="Path_15" data-name="Path 15" d="M5604.31,224.71l-4.849.841c-1-6.013-16.082-34.524-17.307-49.332a334.439,334.439,0,0,0-5.182-34.741l16.219-4.823s4.106,0-.4,33.5C5602.929,183.47,5605.647,213.676,5604.31,224.71Z" transform="translate(-5529.09 38.222)" fill="#f39f85" stroke="#707070" stroke-width="1"/>
        <path id="Path_16" data-name="Path 16" d="M5551.012,71.58S5547.2,94.5,5541.9,119.012c5.534,14.8-2.9,56.106-3.056,55.96-.636-.6-3.549,2.992-3.549,2.992s-6.151-36.453-7.511-52.892-1.7-36.482-1.7-36.482Z" transform="translate(-5487.736 91.11)" fill="#f7b58e" stroke="#707070" stroke-width="1"/>
        <path id="Path_17" data-name="Path 17" d="M5511.2,611.342s2.308,1.958,1.885,4.454-1.022,8.34-1.022,8.34h-2.373l.072-5.451c-.007-.357-5.09,5.451-5.952,5.451h-12.561s-.834-3.677,6.542-4.859S5511.2,611.342,5511.2,611.342Z" transform="translate(-5459.395 -347.569)" fill="#053c5e" stroke="#707070" stroke-width="1"/>
        <g id="Group_5" data-name="Group 5" transform="translate(56.938 257.646)">
          <path id="Path_18" data-name="Path 18" d="M5675.439,580.6l.335,5.2a4.856,4.856,0,0,1-.856,3.078,19.517,19.517,0,0,1-3.777,3.926c3.642,1.17,6.953-2.913,8.689-5.626a6.476,6.476,0,0,0,.943-4.458l-.613-4.093Z" transform="translate(-5662.562 -578.626)" fill="#f39f85" stroke="#707070" stroke-width="1"/>
          <path id="Path_19" data-name="Path 19" d="M5643.612,604.434s3.2.287,3.735,2.724,2.045,7.366,2.045,7.366l-1.748,1.393-2.463-4.888s-5.3,7.141-6.139,7.493h-13.71s0-4.538,8.579-4.743C5641.818,613.588,5643.612,604.434,5643.612,604.434Z" transform="translate(-5625.332 -599.601)" fill="#212b53" stroke="#707070" stroke-width="1"/>
        </g>
        <g id="Group_7" data-name="Group 7" transform="translate(0 4.962)">
          <path id="Path_20" data-name="Path 20" d="M5351.277-705.364l15.227,39.787,9.6-7.142-21.445-36.153Z" transform="translate(-5345.662 720.442)" fill="#f7b58e" stroke="#707070" stroke-width="1"/>
          <g id="Group_6" data-name="Group 6">
            <path id="Path_21" data-name="Path 21" d="M5328.8-767.606a6.187,6.187,0,0,1,1.376,4.2l.673,5.744-.784.889-2.694,2.391c.095-1.189.229,0,.229,0l-4.331-7.541s-5.238-3.359,1.368-8.315a1.9,1.9,0,0,1,2.172-.139A4.854,4.854,0,0,1,5328.8-767.606Z" transform="translate(-5321.294 770.654)" fill="#f7b58e" stroke="#707070" stroke-width="1"/>
          </g>
        </g>
        <path id="Path_22" data-name="Path 22" d="M5569.263-475.658h9.813l-3.917-11.532-7.673,4.715Z" transform="translate(-5521.381 545.237)" fill="#f39f85" stroke="#707070" stroke-width="1"/>
        <path id="Path_23" data-name="Path 23" d="M5446.587-496.328c.049-.291.116-.534.174-.8-9.717-12.531-14.179-21.355-14.179-21.355l8.257-9.4,14.987,17.825,5.507.023s7.44-4.909,13.938,1.792c2.374,2.447,3.955,9.088,2.369,16.107-4.372,19.35-.95,29.587-.95,29.587l-25.317,9.439s-.576-16.827-.971-28.628c0-.014,0-.027,0-.041a13.156,13.156,0,0,0-2.055-6.458A11.542,11.542,0,0,1,5446.587-496.328Z" transform="translate(-5411.741 578.311)" fill="#ffd200" stroke="#707070" stroke-width="1"/>
        <g id="Group_8" data-name="Group 8" transform="translate(38.661 37.318)">
          <path id="Path_24" data-name="Path 24" d="M5533.509-597.877l16.091,5.633-1.586,12.012c-.022.17-.068.333-.1.5-.309.056-.619.113-.926.189-.05.012-.1.03-.149.042s-.1.018-.146.03a11.017,11.017,0,0,0-7.522,7.531,18.988,18.988,0,0,1-6.964-.089,6.977,6.977,0,0,1-3.658-1.578C5525.153-581.015,5533.509-597.877,5533.509-597.877Z" transform="translate(-5527.737 597.877)" fill="#f7b58e" stroke="#707070" stroke-width="1"/>
        </g>
        <path id="Path_25" data-name="Path 25" d="M5545.764-604.9c4.333,2.118,3.312,24.443,4.06,39.647a17.279,17.279,0,0,0,14.629,16.16c5.736.915,12.032,1.083,15.83-1.08-2.511-2.054-16.047-21.971-11.711-48.344.571-3.471.641-13.135-5.206-18.381-6.493-5.826-19.892,1.776-19.892,1.776S5539.813-607.806,5545.764-604.9Z" transform="translate(-5500.961 652.437)" fill="#212b53" stroke="#707070" stroke-width="1"/>
        <path id="Path_26" data-name="Path 26" d="M5515.547-182.155s-3.369,17.156-3.369,27.36c0,5.607,1.374,40.928,1.374,40.928s24.052,1.741,28.724,1.741c1.159-28.944,7.757-29.835,7.757-43.333,0-5.867-3.008-12.5-5.317-16.724a24.461,24.461,0,0,1-3.336-9.384l-.156-.548Z" transform="translate(-5476.431 297.327)" fill="#008c8d" stroke="#707070" stroke-width="1"/>
        <path id="Path_27" data-name="Path 27" d="M5679.082,162.763" transform="translate(-5612.078 17.003)" fill="#ffd147" stroke="#707070" stroke-width="1"/>
      </g>
      <g id="Group_21" data-name="Group 21" transform="translate(141.77 126.968)">
        <g id="Group_10" data-name="Group 10" transform="translate(11.794 292.381)">
          <path id="Path_28" data-name="Path 28" d="M3313.831,626.349s2.086,2.887,11.919,5.392c2.165.551,4.5.928,4.5,4.5h-9.707l-9.925-1.716v1.716h-5.361s-1.492-8.766,1.638-9.891Z" transform="translate(-3304.902 -620.052)" fill="#212b53" stroke="#707070" stroke-width="1"/>
          <path id="Path_29" data-name="Path 29" d="M3322.994,592.727l-.51,6.3h0a6.063,6.063,0,0,1-6.567.22l-.368-.22v-6.3Z" transform="translate(-3313.555 -592.727)" fill="#f7b58e" stroke="#707070" stroke-width="1"/>
        </g>
        <g id="Group_11" data-name="Group 11" transform="translate(46.801 292.381)">
          <path id="Path_30" data-name="Path 30" d="M3500.758,626.349s2.087,2.887,11.92,5.392c2.165.551,4.5.928,4.5,4.5h-9.707l-9.925-1.716v1.716h-5.36s-1.492-8.766,1.639-9.891Z" transform="translate(-3491.83 -620.052)" fill="#212b53" stroke="#707070" stroke-width="1"/>
          <path id="Path_31" data-name="Path 31" d="M3509.921,592.727l-.51,6.3h0a6.063,6.063,0,0,1-6.567.22l-.368-.22v-6.3Z" transform="translate(-3500.482 -592.727)" fill="#f7b58e" stroke="#707070" stroke-width="1"/>
        </g>
        <g id="Group_12" data-name="Group 12" transform="translate(13.029 150.799)">
          <path id="Path_32" data-name="Path 32" d="M3428.489-162.012c4.9,62.657-7.916,142-7.916,142h-9.967s-3.042-140.173-19.346-143.282C3416.183-163.291,3417.81-162.012,3428.489-162.012Z" transform="translate(-3376.323 163.291)" fill="#212b53" stroke="#707070" stroke-width="1"/>
          <path id="Path_33" data-name="Path 33" d="M3351.078-156.464c3.828,51.245-29.809,142-29.809,142H3311.5s6.281-48.014,6.488-97.878c.045-10.791,2.182-32.934,1.095-42.847C3329.357-155.186,3341.747-156.464,3351.078-156.464Z" transform="translate(-3311.496 157.743)" fill="#053c5e" stroke="#707070" stroke-width="1"/>
        </g>
        <g id="Group_20" data-name="Group 20">
          <g id="Group_14" data-name="Group 14" transform="translate(48.361 6.925)">
            <g id="Group_13" data-name="Group 13" transform="translate(34.165)">
              <path id="Path_34" data-name="Path 34" d="M3696.859-918.317l4.145-6.422a1.926,1.926,0,0,0,.1-1.884l-.707-1.425a1.926,1.926,0,0,0-1.1-.966l-7.131-2.431a1.925,1.925,0,0,0-2.252.8l-.5.8a1.923,1.923,0,0,0-.254,1.416l1.936,9.29Z" transform="translate(-3687.892 931.548)" fill="#f7b58e" stroke="#707070" stroke-width="1"/>
              <path id="Path_35" data-name="Path 35" d="M3685.79-905.884l-3-6.052a1.843,1.843,0,0,1,1.228-2.613l2.858-.674c.76-.179,3.629,2.931,3.629,2.931s-1.631,2.645-3.961-.474a2.9,2.9,0,0,1-1.3.694,8.277,8.277,0,0,1,4.719,6.787Z" transform="translate(-3682.593 918.287)" fill="#f39f85" stroke="#707070" stroke-width="1"/>
            </g>
            <path id="Path_36" data-name="Path 36" d="M3544.489-869.82s-2.091,39.539-5.375,54.677-20.629,39.421-20.629,39.421l-18.326-21.716s17.309-16.29,24.081-30.028,12.24-44.126,12.24-44.126Z" transform="translate(-3500.159 882.82)" fill="#008c8d" stroke="#707070" stroke-width="1"/>
          </g>
          <g id="Group_15" data-name="Group 15">
            <path id="Path_37" data-name="Path 37" d="M3245.528-955.95l-3.41-6.84a1.924,1.924,0,0,1,.112-1.883l.861-1.339a1.926,1.926,0,0,1,1.2-.839l7.356-1.628a1.925,1.925,0,0,1,2.15,1.043l.408.846a1.925,1.925,0,0,1,.1,1.435l-2.949,9.019Z" transform="translate(-3241.925 968.524)" fill="#f7b58e" stroke="#707070" stroke-width="1"/>
            <path id="Path_38" data-name="Path 38" d="M3274.025-943.252l3.654-5.684a1.843,1.843,0,0,0-.931-2.733l-2.766-.986c-.736-.262-3.931,2.512-3.931,2.512s1.329,2.809,3.99-.033a2.9,2.9,0,0,0,1.219.833,8.277,8.277,0,0,0-5.439,6.224Z" transform="translate(-3264.595 955.641)" fill="#f7b58e" stroke="#707070" stroke-width="1"/>
          </g>
          <path id="Path_39" data-name="Path 39" d="M3305.955-831.537c15.373,10.174,8.356,71.466,8.356,71.466l-45.659-.482,5.087-50.127s-12.882-25.008-16.952-44.042-6.1-49.047-6.1-49.047h8.648s9.665,39.13,15.77,49.047,16.692,22.931,16.692,22.931Z" transform="translate(-3249.042 915.897)" fill="#008c8d" stroke="#707070" stroke-width="1"/>
          <g id="Group_16" data-name="Group 16" transform="translate(61.094 89.218)">
            <path id="Path_40" data-name="Path 40" d="M3572.251-428.813h1.036c1.131-12.808,3.4-48.365-4.578-63.306-.179.375-.362.748-.556,1.117C3575.5-476.106,3573.315-441.231,3572.251-428.813Z" transform="translate(-3568.153 492.119)" stroke="#707070" stroke-width="1" fill="url(#linear-gradient)"/>
          </g>
          <g id="Group_19" data-name="Group 19" transform="translate(34.584 45.396)">
            <g id="Group_17" data-name="Group 17" transform="translate(12.039 29.272)">
              <path id="Path_41" data-name="Path 41" d="M3490.879-561.066l2.051-8.749,10.052,1.123.749,10.4a2.111,2.111,0,0,1-.208.208A28.591,28.591,0,0,0,3490.879-561.066Z" transform="translate(-3490.879 569.815)" fill="#f39f85" stroke="#707070" stroke-width="1"/>
            </g>
            <g id="Group_18" data-name="Group 18">
              <path id="Path_42" data-name="Path 42" d="M3472.412-664.386l2.638,13.763a2.162,2.162,0,0,1,2.3,2.453,2.621,2.621,0,0,1,.374.988,16.054,16.054,0,0,0,12.751,1.154c8.537-2.9.88-19.12.88-19.12Z" transform="translate(-3463.832 676.566)" fill="#f7b58e" stroke="#707070" stroke-width="1"/>
              <path id="Path_43" data-name="Path 43" d="M3432.218-702.914a8.576,8.576,0,0,0-2.757-3.529c-5.565-3.6-1.559-7.357-.125-8.589,1.587-1.363.8-4.476,2.814-6.557,3.07-3.177,6.781-.845,8.93-1.562s3.111-3.842,6.536-2.735,3.423,3.676,4.6,4.6,2.656-2.281,6.253.638c5.472,4.441-3.559,7.926-3.559,7.926s-4.815,2.827-11.949,1.116a2.241,2.241,0,0,0-2.528,1.007c-1.306,2.432.286,14,.286,14l-2.518-1.562S3433.167-698.3,3432.218-702.914Z" transform="translate(-3426.596 726.12)" fill="#212b53" stroke="#707070" stroke-width="1"/>
              <path id="Path_44" data-name="Path 44" d="M3484.292-614.081a2.149,2.149,0,0,0,2.938.776,2.149,2.149,0,0,0,.776-2.938,2.15,2.15,0,0,0-2.939-.776A2.149,2.149,0,0,0,3484.292-614.081Z" transform="translate(-3473.25 637.688)" fill="#f7b58e" stroke="#707070" stroke-width="1"/>
            </g>
          </g>
          <path id="Path_45" data-name="Path 45" d="M3491.882-543.5l.207,4.764-15.549-3.1,3.259-5.192Z" transform="translate(-3432.603 625.965)" fill="#008c8d" stroke="#707070" stroke-width="1"/>
        </g>
      </g>
      <g id="Group_31" data-name="Group 31" transform="translate(256.414 155.368)">
        <path id="Path_46" data-name="Path 46" d="M4024.546-674.625l24.08-10.121c5.144-2.162,11.143-5.882,13.4-10.986l12.084-27.34,4.181.732s-2.267,29.038-11.531,40.769-27.482,18.114-27.482,18.114Z" transform="translate(-3992.625 740.638)" fill="#f7b58e" stroke="#707070" stroke-width="1"/>
        <path id="Path_47" data-name="Path 47" d="M3907.86-517.708s7.245-13.607,16.731-15.987c8.128,0,10.032,1.19,10.032,1.19s10.421,12.918,14.05,21.271a11.961,11.961,0,0,1-.053,9.785c-6.4,13.793-5.586,40.351-5.586,40.351h-31.976s5.592-39.75,4.522-47.6S3907.86-517.708,3907.86-517.708Z" transform="translate(-3897.792 586.727)" fill="#ffd200" stroke="#707070" stroke-width="1"/>
        <g id="Group_23" data-name="Group 23" transform="translate(60.299 265.269)">
          <g id="Group_22" data-name="Group 22" transform="translate(1.736)">
            <path id="Path_48" data-name="Path 48" d="M4191.793,599.6l1.887,4.909a6.3,6.3,0,0,0,2.569,3.262,25.348,25.348,0,0,0,6.5,2.817c-3.781,3.228-9.8-.01-13.24-2.394a8.421,8.421,0,0,1-3.364-4.874l-.789-3.719Z" transform="translate(-4185.353 -599.605)" fill="#f7b58e" stroke="#707070" stroke-width="1"/>
          </g>
          <path id="Path_49" data-name="Path 49" d="M4178.229,613.239s-2.558,2.011-2.088,4.573,1.132,8.563,1.132,8.563h2.629l-.081-5.6c.007-.366,5.64,5.6,6.593,5.6h13.915s.924-3.775-7.247-4.989S4178.229,613.239,4178.229,613.239Z" transform="translate(-4176.083 -610.686)" fill="#053c5e" stroke="#707070" stroke-width="1"/>
        </g>
        <path id="Path_50" data-name="Path 50" d="M4001.695-146.043,4025.734-6.085l-7.775.159s-17.056-29.415-19.566-53.8c-.415-4.032-.606-8.133-3.238-11.215-20.078-23.516-14.365-60.661-14.365-60.661l10.859-14.44Z" transform="translate(-3956.453 271.672)" fill="#212b53" stroke="#707070" stroke-width="1"/>
        <g id="Group_25" data-name="Group 25" transform="translate(0 265.269)">
          <g id="Group_24" data-name="Group 24" transform="translate(1.736)">
            <path id="Path_51" data-name="Path 51" d="M3869.81,599.6l1.886,4.909a6.3,6.3,0,0,0,2.57,3.262,25.348,25.348,0,0,0,6.5,2.817c-3.781,3.228-9.8-.01-13.241-2.394a8.426,8.426,0,0,1-3.364-4.874l-.788-3.719Z" transform="translate(-3863.369 -599.605)" fill="#f7b58e" stroke="#707070" stroke-width="1"/>
          </g>
          <path id="Path_52" data-name="Path 52" d="M3856.245,613.239s-2.557,2.011-2.089,4.573,1.133,8.563,1.133,8.563h2.629l-.081-5.6c.008-.366,5.639,5.6,6.593,5.6h13.915s.925-3.775-7.247-4.989S3856.245,613.239,3856.245,613.239Z" transform="translate(-3854.099 -610.686)" fill="#053c5e" stroke="#707070" stroke-width="1"/>
        </g>
        <g id="Group_27" data-name="Group 27" transform="translate(18.623 17.87)">
          <path id="Path_53" data-name="Path 53" d="M4016.7-603.025l.022,15.574-9.349-10.19,1.008-14.5Z" transform="translate(-3997.289 632.61)" fill="#f39f85" stroke="#707070" stroke-width="1"/>
          <path id="Path_54" data-name="Path 54" d="M3974.508-714.624c-6.475.88-9.7,9.181-9.7,9.181l.073,24.567-11.228-9.708a87.518,87.518,0,0,1,1.955-23.16c2.4-7.6,12.093-9.607,18.9-5.9,3.309,1.8,5.275,5.345,6.444,8.861a28,28,0,0,1,.666,14.667l-3.852,18.027-4.793-4.752a19.592,19.592,0,0,1-.021-9.029C3975.418-700.916,3978.856-715.215,3974.508-714.624Z" transform="translate(-3953.544 721.453)" fill="#212b53" stroke="#707070" stroke-width="1"/>
          <path id="Path_55" data-name="Path 55" d="M4001.594-636.082a2.288,2.288,0,0,1,3.035.3,1.972,1.972,0,0,1,.406,2.841,2.289,2.289,0,0,1-3.035-.3A1.972,1.972,0,0,1,4001.594-636.082Z" transform="translate(-3992.234 652.436)" fill="#f7b58e" stroke="#707070" stroke-width="1"/>
          <g id="Group_26" data-name="Group 26" transform="translate(11.08 5.042)">
            <path id="Path_56" data-name="Path 56" d="M4023.739-669.78a5.048,5.048,0,0,0,3.024-.787c3.616-5.763-.5-21.3-.5-21.3l-5.78-2.667-7.343,5.02-.418,10.41A8.741,8.741,0,0,0,4016-671.92h0A14.023,14.023,0,0,0,4023.739-669.78Z" transform="translate(-4012.711 694.531)" fill="#f7b58e" stroke="#707070" stroke-width="1"/>
          </g>
          <path id="Path_57" data-name="Path 57" d="M4011.21-701.194c1.385,4.643-10.919,10.031-10.919,10.031l-3.091-5.8,5.648-6.924,7.14,1.141A4.107,4.107,0,0,1,4011.21-701.194Z" transform="translate(-3989.024 707.173)" fill="#212b53" stroke="#707070" stroke-width="1"/>
          <path id="Path_58" data-name="Path 58" d="M4072.3-688.491c.258,1.832,3.114,4.053,3.114,4.053l.269-2.189-.651-1.538-1.466-.815S4072.045-690.322,4072.3-688.491Z" transform="translate(-4050.039 695.446)" fill="#212b53" stroke="#707070" stroke-width="1"/>
        </g>
        <path id="Path_59" data-name="Path 59" d="M3872.1-146.043s-22.6,9.719-10.772,70.721a22.989,22.989,0,0,1-.775,10.791c-5.007,17.015-2.171,58.6-2.171,58.6h7.811s26.149-108.539,27.836-140.116Z" transform="translate(-3856.93 271.672)" fill="#053c5e" stroke="#707070" stroke-width="1"/>
        <g id="Group_28" data-name="Group 28" transform="translate(78.31)">
          <path id="Path_60" data-name="Path 60" d="M4288.75-803.235c.25-.417.969-1.925.715-5.248-.227-2.982-2.638-9.014.666-8.337,2.093,2.544,4.881,5.289,4.881,5.289,1.1,1.66.8,4.976.189,7.017l-2.666,6.079s-3.218,1.019-3.361,1.093l-.756-1.165A14.47,14.47,0,0,0,4288.75-803.235Z" transform="translate(-4285.38 816.873)" fill="#f7b58e" stroke="#707070" stroke-width="1"/>
          <path id="Path_61" data-name="Path 61" d="M4276.844-770.031a2.5,2.5,0,0,0,.322-.389c.233.362.484.707.746,1.042.3,1.532.652,3.053.97,4.581-.965.063-2.319.154-2.415.177l-4.209-9.576s.991-1,2.508.63A9.912,9.912,0,0,1,4276.844-770.031Z" transform="translate(-4272.259 782.433)" fill="#f7b58e" stroke="#707070" stroke-width="1"/>
        </g>
        <g id="Group_29" data-name="Group 29" transform="translate(11.131 54.336)">
          <path id="Path_62" data-name="Path 62" d="M3925.452-526.733l-.524.794c.128.085,12.814,8.611,12.814,22.532v56.735h-23.235l.74-43.687c-.315.249-.635.493-.965.726l-.743,43.914h25.155v-57.687C3938.693-517.835,3925.584-526.647,3925.452-526.733Z" transform="translate(-3913.538 526.733)" fill="#008c8d" stroke="#707070" stroke-width="1"/>
        </g>
        <path id="Path_63" data-name="Path 63" d="M3869.539-448.326s-15.908,41.161-5.019,44.91,30.762-25.852,30.762-25.852l-3.83-2.988-18.141,15.482s4.086-5.768,6.107-18.563S3869.539-448.326,3869.539-448.326Z" transform="translate(-3859.471 517.345)" fill="#f7b58e" stroke="#707070" stroke-width="1"/>
        <path id="Path_64" data-name="Path 64" d="M4022.24-412.92l1.176-8.571s2.962-3.249,5.2-3.831a1.689,1.689,0,0,1,1.789.681c.931,1.318,3.048,4.416,3.093,5.412a1.614,1.614,0,0,1-.6,1.28l-2.734,2.376-3.6,4.959Z" transform="translate(-3990.751 498.69)" fill="#f7b58e" stroke="#707070" stroke-width="1"/>
        <g id="Group_30" data-name="Group 30" transform="translate(8.69 124.025)">
          <path id="Rectangle_4" data-name="Rectangle 4" d="M11.323,0h7.705A11.323,11.323,0,0,1,30.351,11.323v0A11.323,11.323,0,0,1,19.028,22.646H11.323A11.323,11.323,0,0,1,0,11.323v0A11.323,11.323,0,0,1,11.323,0Z" transform="translate(0 0)" fill="#008c8d" stroke="#707070" stroke-width="1"/>
          <path id="Path_65" data-name="Path 65" d="M3930.854-143.756v-6.9a3.964,3.964,0,0,0-3.952-3.952h-22.448a3.963,3.963,0,0,0-3.952,3.952v6.9Z" transform="translate(-3900.503 154.608)" fill="#ffda71" stroke="#707070" stroke-width="1"/>
          <path id="Path_66" data-name="Path 66" d="M4030.02-131.962h0c-1.893,0-3.442-.812-3.442-2.7V-151.9c0-1.893,1.549-2.7,3.442-2.7h0c1.893,0,3.442,1.549,3.442,2.7v16.5C4033.461-132.773,4031.913-131.962,4030.02-131.962Z" transform="translate(-4002.967 154.608)" fill="#01888b" stroke="#707070" stroke-width="1"/>
          <path id="Path_67" data-name="Path 67" d="M3957.967-108.688h0a1.048,1.048,0,0,1-1.044-1.044V-115a1.047,1.047,0,0,1,1.044-1.044h0a1.047,1.047,0,0,1,1.044,1.044v5.264A1.047,1.047,0,0,1,3957.967-108.688Z" transform="translate(-3946.356 123.263)" fill="#053c5e" stroke="#707070" stroke-width="1"/>
        </g>
      </g>
      <g id="Group_36" data-name="Group 36" transform="translate(0 165.003)">
        <g id="Group_32" data-name="Group 32" transform="translate(0 183.564)">
          <path id="Path_68" data-name="Path 68" d="M2488.095,595.251s-2.794,1.479-2.789,4.011-.4,8.385-.4,8.385l2.514.456.892-5.366c.071-.349,4.51,5.669,7.531,8.69l11.111.215s1.538-3.45-6.066-6.026S2488.095,595.251,2488.095,595.251Z" transform="translate(-2484.905 -523.997)" fill="#00666b" stroke="#707070" stroke-width="1"/>
          <path id="Path_69" data-name="Path 69" d="M2510.968,241.66a48.162,48.162,0,0,1,.653-6.782,41.8,41.8,0,0,1,5.551-13.945c2.725-1.01,5.333-2.271,8.116-3.372a73.164,73.164,0,0,1,9.843-2.793q-.206.561-.42,1.126c-16.274,42.94-25.373,62.441-26.793,67.057a5.336,5.336,0,0,0-.339,2.138c.235,2.229,1.272,6.992,7.8,11.526-6.927,1.727-13.438-10.593-13.438-10.593S2510.624,256.437,2510.968,241.66Z" transform="translate(-2498.748 -214.768)" fill="#f39f85" stroke="#707070" stroke-width="1"/>
        </g>
        <path id="Path_70" data-name="Path 70" d="M2676.579-597.388l-.738,11.67-11.4-2.357,1.37-15.861Z" transform="translate(-2630.822 634.179)" fill="#f39f85" stroke="#707070" stroke-width="1"/>
        <path id="Path_71" data-name="Path 71" d="M2679.708-695.614a6.708,6.708,0,0,0,4.016-1.045c4.8-7.654-.668-28.287-.668-28.287l-17.429,3.125-.555,13.826a11.608,11.608,0,0,0,4.355,9.537h0A18.626,18.626,0,0,0,2679.708-695.614Z" transform="translate(-2631.324 732.525)" fill="#f7b58e" stroke="#707070" stroke-width="1"/>
        <path id="Path_72" data-name="Path 72" d="M2674.629,616.983s-2.4,1.886-1.959,4.289,1.062,8.031,1.062,8.031h2.466l-.076-5.25c.007-.343,5.289,5.25,6.183,5.25h13.051s.867-3.541-6.8-4.679S2674.629,616.983,2674.629,616.983Z" transform="translate(-2637.463 -358.095)" fill="#00666b" stroke="#707070" stroke-width="1"/>
        <g id="Group_33" data-name="Group 33" transform="translate(27.909 180.958)">
          <path id="Path_73" data-name="Path 73" d="M2636.573,234.454a48.01,48.01,0,0,1-1.739-6.588c-1.043-6.5-1.134-15.6-.508-18.546,2.205-1.892,5.093-.437,7.322-2.435a73.2,73.2,0,0,1,8.264-6.032q0,.6,0,1.2c-.376,45.919-2.149,67.365-1.88,72.187.041.737,2.216,10.226,9.909,12.216-5.9,4.021-14.747-7.675-14.747-7.675S2641.373,248.434,2636.573,234.454Z" transform="translate(-2633.933 -200.852)" fill="#f7b58e" stroke="#707070" stroke-width="1"/>
        </g>
        <path id="Path_74" data-name="Path 74" d="M2585.865-549.265l10.948,17.888a14,14,0,0,1,1,9.116l-6.955,30.526a26.789,26.789,0,0,0-.663,5.394l-1.662,80.028h-34.955a247.928,247.928,0,0,0,6.653-36.187c2.218-20.392-4.273-29.263-2.465-38.188a43.933,43.933,0,0,1,8.6-17.421,16.931,16.931,0,0,0,3.623-10.2c.372-15.137-15.481-56.926-.35-46.757S2585.865-549.265,2585.865-549.265Z" transform="translate(-2540.72 595.738)" fill="#ffd200" stroke="#707070" stroke-width="1"/>
        <path id="Path_75" data-name="Path 75" d="M2683.212-275.565l.822,2.935c.457,1.63,1.036,2.246,2.357,4.432,3.852,6.427,16.834,22.167,16.834,22.167l10.494,5.95s-.216,1.515-2.6,1.082a10.781,10.781,0,0,1-4.111-1.731s-.435,1.725,1.731,5.193c1.618,2.59,6.807,7,3.245,7.789a60.041,60.041,0,0,1-7.227-4,6.99,6.99,0,0,1-3.508-4.941l-.949-5.557-22.282-18.214a16.86,16.86,0,0,1-5.331-7.742l-.073-.223Z" transform="translate(-2637.464 367.303)" fill="#f7b58e" stroke="#707070" stroke-width="1"/>
        <path id="Path_76" data-name="Path 76" d="M3028.84-401.13c.528.035,2.344-.016,5.438-1.907,2.776-1.7,7.425-7.02,8.405-3.485-1.428,3.287-2.706,7.347-2.706,7.347-1.062,1.891-4.426,3.237-6.7,3.659l-7.209.427s-2.581-2.612-2.723-2.714l.754-1.309A15.761,15.761,0,0,0,3028.84-401.13Z" transform="translate(-2922.507 474.7)" fill="#f7b58e" stroke="#707070" stroke-width="1"/>
        <g id="Group_34" data-name="Group 34" transform="translate(27.269 61.37)">
          <path id="Path_77" data-name="Path 77" d="M2638.09-399.348l11.492-7.744-4.375-30.629-1.076.154,4.279,29.954-9.7,6.535-7.154-24.386-1.042.306Z" transform="translate(-2630.518 437.721)" fill="#e2b703" stroke="#707070" stroke-width="1"/>
        </g>
        <path id="Path_78" data-name="Path 78" d="M2598.371-749.629a17.754,17.754,0,0,0,9.406,2.175,11.945,11.945,0,0,0,9.211-6.07c1.224-2.636,1.492-5.374-2.571-8.438-2.783-2.069-6.242-.772-7.733.569a2.921,2.921,0,0,1-3.873.105,17.9,17.9,0,0,0-11.8-4.136c-6.062,0-5.894,5.879-4.973,10.149a6.137,6.137,0,0,1-2.717,6.536c-3.6,2.228-8.18,5.861-7.239,9.494a21.511,21.511,0,0,0,4.03,7.561,5.371,5.371,0,0,1,.051,6.551c-2.236,2.95-4.856,7.236-4.081,10.337.734,2.938,2.923,6.706,4.686,9.425a5.842,5.842,0,0,1,.005,6.327,7.778,7.778,0,0,0-1.229,5.884,13.582,13.582,0,0,0,2.211,4.76,3.8,3.8,0,0,0,6.512-.5c3.97-8.014,10.921-24.418,8.494-36.929-1.217-6.274-2.876-17.344-2.876-17.344S2592.1-752.3,2598.371-749.629Z" transform="translate(-2558.897 765.423)" fill="#212b53" stroke="#707070" stroke-width="1"/>
        <path id="Path_79" data-name="Path 79" d="M2744.054-364.346l13.345,6.915a7.307,7.307,0,0,0,5.4.529l36.7-11.591v-4.633l-35.769,4.342-11.188-5.948Z" transform="translate(-2695.522 447.899)" fill="#f7b58e" stroke="#707070" stroke-width="1"/>
        <path id="Path_80" data-name="Path 80" d="M2656.99-666.229c.964-.933,2.769-.756,4.031.395s1.5,2.84.54,3.773-2.769.757-4.031-.394S2656.027-665.3,2656.99-666.229Z" transform="translate(-2624.283 685.292)" fill="#f7b58e" stroke="#707070" stroke-width="1"/>
        <path id="Path_81" data-name="Path 81" d="M2729.191-425.348l3.7-22.821,15.848,18.213-4.345,14.172-15.1-7.811C2729.742-425.338,2729.289-423.6,2729.191-425.348Z" transform="translate(-2683.443 507.582)" fill="#ffd200" stroke="#707070" stroke-width="1"/>
        <g id="Group_35" data-name="Group 35" transform="translate(44.729 46.365)">
          <path id="Path_82" data-name="Path 82" d="M2731.348-469.8c-.423-.308-.423-.308-.853-.6l4.988-20.474a13.381,13.381,0,0,0-.925-8.631l-10.809-17.7c.352-.251.242-.215.415-.53.039-.071.485-.09.6-.108l10.936,17.718a14.718,14.718,0,0,1,1.048,9.537" transform="translate(-2723.749 517.842)" fill="#e2b703" stroke="#707070" stroke-width="1"/>
        </g>
        <path id="Path_83" data-name="Path 83" d="M3038.752-397.787a2.746,2.746,0,0,0,.536.12c-.235.4-.445.82-.64,1.239-1.334,1.05-2.634,2.143-3.957,3.208-.539-.9-1.3-2.17-1.367-2.25l7.191-8.82s1.457.466.632,2.741A10.776,10.776,0,0,1,3038.752-397.787Z" transform="translate(-2930.619 471.921)" fill="#f7b58e" stroke="#707070" stroke-width="1"/>
      </g>
      <g id="Group_37" data-name="Group 37" transform="translate(48.45 212.055)">
        <path id="Path_84" data-name="Path 84" d="M2826.268-514.176l17,46.622,43.8,20.524L2848.9-415.442l-6.9,46.989-40.925-25.535-47.734,6.952,12.551-45.8L2743.618-477.1l48.354-1.208Z" transform="translate(-2743.618 514.176)" fill="#ffd147" stroke="#707070" stroke-width="1"/>
        <path id="Path_85" data-name="Path 85" d="M3138.526-442.47l-43.8-20.524-16.735-45.571-24.978,119.538,40.441,25.134,6.9-46.989Z" transform="translate(-2995.073 509.616)" fill="#f6a505" stroke="#707070" stroke-width="1"/>
      </g>
      <g id="Group_38" data-name="Group 38" transform="translate(126.469 0)">
        <path id="Path_86" data-name="Path 86" d="M3238.217-1646.5l22.1,44.433,45.816,15.507-34.409,35.651-1.611,47.466-43.519-20.807-46.66,12.236,7.361-46.919-27.075-41.5,47.917-6.6Z" transform="translate(-3160.222 1646.504)" fill="#ffd147" stroke="#707070" stroke-width="1"/>
        <path id="Path_87" data-name="Path 87" d="M3596.467-1582.163l-45.816-15.508-21.716-43.419-11.481,121.579,42.993,20.464,1.611-47.465Z" transform="translate(-3450.554 1642.104)" fill="#f6a505" stroke="#707070" stroke-width="1"/>
      </g>
      <g id="Group_39" data-name="Group 39" transform="translate(299.056 79.422)">
        <path id="Path_88" data-name="Path 88" d="M4142.665-1222.411l9.429,34.113,29.966,17.088-28.938,20.279-7.584,33.01-27.636-20.486-34.33,2.219,11.535-31.846-13.311-32.733,34.443,1.9Z" transform="translate(-4081.796 1222.411)" fill="#ffd147" stroke="#707070" stroke-width="1"/>
        <path id="Path_89" data-name="Path 89" d="M4340.145-1167.9l-29.965-17.088-9.3-33.35-24.574,83.553,27.315,20.174,7.583-33.01Z" transform="translate(-4239.88 1219.103)" fill="#f6a505" stroke="#707070" stroke-width="1"/>
      </g>
      <g id="Group_46" data-name="Group 46" transform="translate(378.372 172.364)">
        <g id="Group_40" data-name="Group 40" transform="translate(53.864 251.255)">
          <path id="Path_90" data-name="Path 90" d="M4808.54,643.638s-3.606,3.345-11.828,5.439c-1.81.461-3.762-.155-3.762,2.831h9.978l8.3-1.435v1.435h4.482s1.248-7.33-1.37-8.27Z" transform="translate(-4792.95 -638.373)" fill="#212b53" stroke="#707070" stroke-width="1"/>
          <path id="Path_91" data-name="Path 91" d="M4876.7,615.524l-.5,5.265h0a5.07,5.07,0,0,0,5.491.184l.308-.184.931-5.265Z" transform="translate(-4860.604 -615.524)" fill="#f7b58e" stroke="#707070" stroke-width="1"/>
        </g>
        <g id="Group_41" data-name="Group 41" transform="translate(89.999 251.255)">
          <path id="Path_92" data-name="Path 92" d="M5001.494,643.638s-3.606,3.345-11.828,5.439c-1.81.461-3.761-.155-3.761,2.831h9.977l8.3-1.435v1.435h4.481s1.248-7.33-1.37-8.27Z" transform="translate(-4985.905 -638.373)" fill="#212b53" stroke="#707070" stroke-width="1"/>
          <path id="Path_93" data-name="Path 93" d="M5069.651,615.524l-.5,5.265h0a5.071,5.071,0,0,0,5.491.184l.308-.184.931-5.265Z" transform="translate(-5053.557 -615.524)" fill="#f7b58e" stroke="#707070" stroke-width="1"/>
        </g>
        <g id="Group_42" data-name="Group 42" transform="translate(0 51.033)">
          <path id="Path_94" data-name="Path 94" d="M4521.319-442.354c-.556.157-2.5.515-6.233-.8-3.346-1.181-9.512-5.8-9.755-1.811,2.268,3.183,4.553,7.224,4.553,7.224,1.561,1.776,5.454,2.449,7.979,2.383l7.787-1.179s2.161-3.371,2.29-3.512l-1.1-1.226A17.19,17.19,0,0,1,4521.319-442.354Z" transform="translate(-4505.33 447.881)" fill="#f7b58e" stroke="#707070" stroke-width="1"/>
          <path id="Path_95" data-name="Path 95" d="M4563.723-447.075a2.988,2.988,0,0,1-.544.249c.343.379.66.773.963,1.176,1.662.817,3.3,1.689,4.949,2.525.37-1.086.893-2.609.948-2.711l-9.67-7.778s-1.448.828-.052,3.067A11.749,11.749,0,0,0,4563.723-447.075Z" transform="translate(-4549.525 453.613)" fill="#f7b58e" stroke="#707070" stroke-width="1"/>
        </g>
        <g id="Group_44" data-name="Group 44" transform="translate(79.448)">
          <path id="Path_96" data-name="Path 96" d="M4987.125-599.241l-1.047,10.305,11.042.437-2.212-15.975Z" transform="translate(-4975.495 627.255)" fill="#f39f85" stroke="#707070" stroke-width="1"/>
          <g id="Group_43" data-name="Group 43" transform="translate(3.623 6.786)">
            <path id="Path_97" data-name="Path 97" d="M4953.527-666.772a5.544,5.544,0,0,1-3.094-.734c-3.7-5.381.515-19.887.515-19.887l5.914-2.49,7.514,4.687.428,9.721a7.887,7.887,0,0,1-3.355,6.7h0A15.4,15.4,0,0,1,4953.527-666.772Z" transform="translate(-4948.912 689.883)" fill="#f7b58e" stroke="#707070" stroke-width="1"/>
          </g>
          <path id="Path_98" data-name="Path 98" d="M4947.469-709.138c-.413-1.633-.2-5.4-1.86-5.128-1.213.2-5.37.37-6.769.37-3.333,0-9.274-1.3-9.274-6.376,0-2.536,2.46-4.722,4.018-5.372a6.754,6.754,0,0,1,4.819-.061c3.671,1.283,8.539,4.114,10.479,3.723,3.266-.656,6.524,1.259,6.478,4.034-.049,2.964-1.6,7.423-3.053,10.255a15.579,15.579,0,0,1-3.329,4.355h0Z" transform="translate(-4929.566 726.12)" fill="#212b53" stroke="#707070" stroke-width="1"/>
          <path id="Path_99" data-name="Path 99" d="M5025.954-635.307a2.509,2.509,0,0,0-3.105.277c-.972.809-1.159,2-.416,2.653a2.509,2.509,0,0,0,3.106-.278C5026.51-633.463,5026.7-634.651,5025.954-635.307Z" transform="translate(-5004.671 652.656)" fill="#f7b58e" stroke="#707070" stroke-width="1"/>
        </g>
        <path id="Path_100" data-name="Path 100" d="M4661.691-517.241c-20.809,16.178-61.166,11.9-61.166,11.9l-1.865,10.579s51.2,15.13,57.59,3.025S4682.5-533.42,4661.691-517.241Z" transform="translate(-4581.182 560.2)" fill="#008c8d" stroke="#707070" stroke-width="1"/>
        <path id="Path_101" data-name="Path 101" d="M4916.586-537.473q-.568,0-1.118.021c-12.178.447-21.689,17.25-21.689,29.437v44.072h47v-50.438a22.854,22.854,0,0,0-19.107-22.713A33.453,33.453,0,0,0,4916.586-537.473Z" transform="translate(-4821.033 572.802)" fill="#008c8d" stroke="#707070" stroke-width="1"/>
        <path id="Path_102" data-name="Path 102" d="M4852.02-235.993l-10.4,1.2c-4.254.163-7.663-5.892-8.807-10.524a.958.958,0,0,1,1.165-1.15c3.653.9,13.052,3.264,15.542,4.5Z" transform="translate(-4771.459 336.32)" fill="#f7b58e" stroke="#707070" stroke-width="1"/>
        <path id="Path_103" data-name="Path 103" d="M4958.214-472.947s23.706,31.661,8.813,47.018-48.4,8.842-48.4,8.842v-9.772s31.645.077,33.507-10.665-7.524-22.377-7.524-22.377" transform="translate(-4841.229 520.36)" fill="#008c8d" stroke="#707070" stroke-width="1"/>
        <g id="Group_45" data-name="Group 45" transform="translate(76.935 60.167)">
          <path id="Path_104" data-name="Path 104" d="M4958.958-366.511c-15,8.64-38.621,4.951-41.884,4.385v-8.92c4.108-.033,31.7-.646,33.5-11.049,1.876-10.825-7.232-22.266-7.621-22.748l-.724.584c.092.115,9.233,11.591,7.429,22-1.766,10.182-32.418,10.279-33.041,10.279h-.474v10.623l.376.073a95.316,95.316,0,0,0,16.1,1.343c8.353,0,18.425-1.153,26.339-5.526Z" transform="translate(-4916.144 404.843)" fill="#008c8d" stroke="#707070" stroke-width="1"/>
        </g>
        <path id="Path_105" data-name="Path 105" d="M4866.31-144.845c-5.373,26.069-6.2,54.126-6.32,77.675a623.02,623.02,0,0,0,2.917,65.653h7.756l16.2-108.432s1.766,16.126,4.156,43.47c1.875,21.457,2.761,39.6,7.8,64.962h7.781s6.718-78.3,6.718-143.328Z" transform="translate(-4793.564 253.703)" fill="#212b53" stroke="#707070" stroke-width="1"/>
        <path id="Path_106" data-name="Path 106" d="M4983.22-552.332h9.82l1.563,3.615h-12.646Z" transform="translate(-4892.697 584.878)" fill="#fff" stroke="#707070" stroke-width="1"/>
      </g>
      <g id="Group_47" data-name="Group 47" transform="translate(323.875 206.777)">
        <path id="Path_107" data-name="Path 107" d="M4258.031-542.36l41.634,27.008,47.333-9.96-11.484,48.2,22.762,41.683-48.052,4.228-33.944,34.273-17.534-44.138-44.421-21.948,37.9-30.059Z" transform="translate(-4214.325 542.36)" fill="#ffd147" stroke="#707070" stroke-width="1"/>
        <path id="Path_108" data-name="Path 108" d="M4540.354-522.376l-47.333,9.959-40.786-26.331,51.973,110.509,47.424-4.256-22.762-41.682Z" transform="translate(-4407.681 539.424)" fill="#f6a505" stroke="#707070" stroke-width="1"/>
      </g>
    </g>
    <g id="Group_55" data-name="Group 55" transform="translate(2885.886 -1692.875)">
      <g id="Group_49" data-name="Group 49" transform="translate(0 0)">
        <path id="Path_109" data-name="Path 109" d="M4662.114-1324.055l4.353,8.561-9.141-2.086-31.271-9.854Z" transform="translate(-4626.055 1332.395)" fill="#008c8d" stroke="#707070" stroke-width="1"/>
        <path id="Path_110" data-name="Path 110" d="M4774.453-1276.264l-15.528-.965,3.8-1.935Z" transform="translate(-4734.042 1293.164)" fill="#008c8d" stroke="#707070" stroke-width="1"/>
        <path id="Path_111" data-name="Path 111" d="M4662.114-1345.585l2.718-8.34-38.777,4.961Z" transform="translate(-4626.055 1353.925)" stroke="#707070" stroke-width="1" fill="url(#linear-gradient-2)"/>
        <path id="Path_112" data-name="Path 112" d="M4626.055-1327.433l31.271,9.854-4.661,12.022Z" transform="translate(-4626.055 1332.395)" stroke="#707070" stroke-width="1" fill="url(#linear-gradient-2)"/>
      </g>
      <g id="Group_54" data-name="Group 54" transform="translate(4.449 21.996)">
        <g id="Group_50" data-name="Group 50" transform="translate(28.51)">
          <path id="Path_113" data-name="Path 113" d="M4806.07-1232.95a.732.732,0,0,0,.22-.172.731.731,0,0,0-.072-1.03,20.526,20.526,0,0,0-3.074-2.215.726.726,0,0,0-1,.26.73.73,0,0,0,.26,1,19.017,19.017,0,0,1,2.854,2.057A.73.73,0,0,0,4806.07-1232.95Z" transform="translate(-4802.044 1236.469)" fill="#008c8d" stroke="#707070" stroke-width="1"/>
        </g>
        <g id="Group_52" data-name="Group 52" transform="translate(0 5.375)">
          <g id="Group_51" data-name="Group 51">
            <path id="Path_114" data-name="Path 114" d="M4670.979-1129.79a.731.731,0,0,1,.258-1,20.568,20.568,0,0,0,5.357-4.644.733.733,0,0,1,1.028-.1.733.733,0,0,1,.1,1.029,22.015,22.015,0,0,1-5.742,4.971c-.013.008-.027.015-.041.022A.731.731,0,0,1,4670.979-1129.79Zm8.324-8.19a.73.73,0,0,1-.274-1,26.14,26.14,0,0,0,2.649-6.649.731.731,0,0,1,.883-.534.731.731,0,0,1,.535.885,27.564,27.564,0,0,1-2.8,7.02.72.72,0,0,1-.3.29A.729.729,0,0,1,4679.3-1137.98Zm3.72-11.108a.732.732,0,0,1-.677-.781l.021-.329a33.745,33.745,0,0,0-.358-6.866.726.726,0,0,1,.611-.831.729.729,0,0,1,.832.612,35.252,35.252,0,0,1,.374,7.164l-.022.354a.729.729,0,0,1-.4.6A.734.734,0,0,1,4683.023-1149.089Zm-1.014-11.707a.73.73,0,0,1-.892-.519,53.216,53.216,0,0,0-2.372-6.878.736.736,0,0,1,.391-.956.729.729,0,0,1,.956.391,54.374,54.374,0,0,1,2.436,7.068.73.73,0,0,1-.375.838A.777.777,0,0,1,4682.009-1160.8Zm-4.106-11.051a.732.732,0,0,1-.979-.333c-.09-.184-.181-.368-.273-.551a24.554,24.554,0,0,1-2.362.787.73.73,0,0,1-.9-.508.728.728,0,0,1,.508-.9q1.06-.294,2.084-.687c-.759-1.453-1.594-2.963-2.539-4.588a.73.73,0,0,1,.265-1,.733.733,0,0,1,1,.265c.979,1.684,1.843,3.247,2.626,4.754a22.218,22.218,0,0,0,3.042-1.7.728.728,0,0,1,1.014.2.731.731,0,0,1-.2,1.013A23.774,23.774,0,0,1,4678-1173.3c.081.16.159.32.238.48a.73.73,0,0,1-.325.973Zm5.77-6.147a.73.73,0,0,1-.014-1.032,18.61,18.61,0,0,0,2.664-3.465,18.611,18.611,0,0,0,1.212-2.432.729.729,0,0,1,.953-.4.73.73,0,0,1,.4.953,20.083,20.083,0,0,1-1.307,2.623,20.124,20.124,0,0,1-2.875,3.738.707.707,0,0,1-.192.142A.73.73,0,0,1,4683.673-1177.994Zm-13.868,6.859a22.827,22.827,0,0,1-7.565-.591.731.731,0,0,1-.529-.887.73.73,0,0,1,.888-.529,21.355,21.355,0,0,0,7.082.551.731.731,0,0,1,.79.666.73.73,0,0,1-.4.713A.73.73,0,0,1,4669.805-1171.135Zm19.5-17.037a.73.73,0,0,1-.593-.846,22.174,22.174,0,0,0,.066-7.113.729.729,0,0,1,.614-.83.73.73,0,0,1,.83.614,23.623,23.623,0,0,1-.072,7.582.728.728,0,0,1-.389.525A.728.728,0,0,1,4689.305-1188.172Zm-31.354,14.835a19.013,19.013,0,0,1-1.715-.993,15.6,15.6,0,0,1-4.129-3.945.731.731,0,0,1,.167-1.019.731.731,0,0,1,1.019.167,14.153,14.153,0,0,0,3.739,3.572,17.693,17.693,0,0,0,1.585.918.73.73,0,0,1,.317.983.722.722,0,0,1-.318.318A.73.73,0,0,1,4657.952-1173.337Zm13.216-9.049a27.086,27.086,0,0,0-4.513-5.567.73.73,0,0,1-.053-1.032.732.732,0,0,1,1.031-.053,28.5,28.5,0,0,1,4.763,5.86.732.732,0,0,1-.219,1.01c-.021.014-.043.026-.065.037A.73.73,0,0,1,4671.167-1182.385Zm17.521-17.457a.73.73,0,0,1-.928-.454,23.449,23.449,0,0,0-1.27-3,22.363,22.363,0,0,0-2.054-3.3.729.729,0,0,1,.145-1.022.726.726,0,0,1,1.022.144,23.726,23.726,0,0,1,2.188,3.513,24.739,24.739,0,0,1,1.349,3.188.729.729,0,0,1-.359.888A.722.722,0,0,1,4688.689-1199.843Zm-37.715,17.882a.73.73,0,0,1-.886-.532,8.112,8.112,0,0,1,.6-5.825,7.419,7.419,0,0,1,1.247-1.717.729.729,0,0,1,1.033-.015.731.731,0,0,1,.015,1.033,5.943,5.943,0,0,0-1,1.378,6.588,6.588,0,0,0-.474,4.791.73.73,0,0,1-.377.828A.71.71,0,0,1,4650.974-1181.961Zm12.211-8.343a10.456,10.456,0,0,0-6.727-.634.73.73,0,0,1-.887-.529.733.733,0,0,1,.529-.888,11.793,11.793,0,0,1,7.7.724.73.73,0,0,1,.357.97.72.72,0,0,1-.331.344A.729.729,0,0,1,4663.185-1190.3Z" transform="translate(-4649.809 1207.765)" fill="#008c8d" stroke="#707070" stroke-width="1"/>
          </g>
        </g>
        <g id="Group_53" data-name="Group 53" transform="translate(13.352 84.034)">
          <path id="Path_115" data-name="Path 115" d="M4725.76-786.364a.731.731,0,0,0,.371-.851.732.732,0,0,0-.9-.5,15.679,15.679,0,0,1-3.434.579.73.73,0,0,0-.689.768.73.73,0,0,0,.77.689,17.122,17.122,0,0,0,3.754-.63A.761.761,0,0,0,4725.76-786.364Z" transform="translate(-4721.104 787.745)" fill="#008c8d" stroke="#707070" stroke-width="1"/>
        </g>
      </g>
    </g>
    <g id="Group_58" data-name="Group 58" transform="translate(2512.581 -1770.977)">
      <g id="Group_56" data-name="Group 56" transform="translate(107.342)">
        <path id="Path_116" data-name="Path 116" d="M3302.961-1759.026l-26.744-10.9-13.121-1.053-9.519,2.567Z" transform="translate(-3244.642 1770.978)" stroke="#707070" stroke-width="1" fill="url(#linear-gradient-4)"/>
        <path id="Path_117" data-name="Path 117" d="M3302.961-1747.888l-48.445-6.544-.939-2.841" transform="translate(-3244.642 1759.839)" fill="#008c8d" stroke="#707070" stroke-width="1"/>
        <path id="Path_118" data-name="Path 118" d="M3256.505-1705.4l.072.091,2.834,7.067,45.811-8.823Z" transform="translate(-3247.022 1719.037)" fill="#008c8d" stroke="#707070" stroke-width="1"/>
        <path id="Path_119" data-name="Path 119" d="M3205.868-1742.431l6.067-6.236,51.937,7.731-43.474,3.82Z" transform="translate(-3205.868 1752.845)" stroke="#707070" stroke-width="1" fill="url(#linear-gradient-5)"/>
      </g>
      <g id="Group_57" data-name="Group 57" transform="translate(0 6.943)">
        <path id="Path_120" data-name="Path 120" d="M2690.937-1162.69a35.4,35.4,0,0,0,4.292-2.5.689.689,0,0,1,.956.183.688.688,0,0,1-.183.956,36.837,36.837,0,0,1-4.459,2.593q-.831.409-1.677.773a.683.683,0,0,1-.615-.033.679.679,0,0,1-.289-.323.687.687,0,0,1,.357-.9Q2690.135-1162.3,2690.937-1162.69Z" transform="translate(-2678.376 1271.788)" fill="#008c8d" stroke="#707070" stroke-width="1"/>
        <path id="Path_121" data-name="Path 121" d="M3126.284-1733.9c2.164.022,4.425.111,6.911.274a.69.69,0,0,1,.642.731.689.689,0,0,1-.731.642c-2.46-.161-4.7-.25-6.835-.271a.694.694,0,0,1-.335-.091.688.688,0,0,1-.346-.6A.688.688,0,0,1,3126.284-1733.9Z" transform="translate(-3033.281 1733.904)" fill="#008c8d" stroke="#707070" stroke-width="1"/>
        <path id="Path_122" data-name="Path 122" d="M3067.287-1731.84a.689.689,0,0,1-.341-.51.689.689,0,0,1,.6-.769c2.189-.278,4.518-.459,6.919-.541a.685.685,0,0,1,.709.664.687.687,0,0,1-.664.711c-2.359.08-4.644.258-6.793.53A.681.681,0,0,1,3067.287-1731.84Z" transform="translate(-2985.616 1733.706)" fill="#008c8d" stroke="#707070" stroke-width="1"/>
        <path id="Path_123" data-name="Path 123" d="M2743.515-1204.74a.678.678,0,0,1,.967-.1.685.685,0,0,1,.1.967,38.32,38.32,0,0,1-4.875,5.015.686.686,0,0,1-.788.074.647.647,0,0,1-.181-.15.688.688,0,0,1,.075-.97A37.126,37.126,0,0,0,2743.515-1204.74Z" transform="translate(-2718.744 1304.049)" fill="#008c8d" stroke="#707070" stroke-width="1"/>
        <path id="Path_124" data-name="Path 124" d="M2777.361-1248.051a.687.687,0,0,1-.208-.95q.5-.776.954-1.574a35.67,35.67,0,0,0,2.14-4.414.687.687,0,0,1,.894-.382.7.7,0,0,1,.382.9,36.922,36.922,0,0,1-2.223,4.585q-.475.828-.99,1.631a.687.687,0,0,1-.92.226Z" transform="translate(-2750.01 1345.028)" fill="#008c8d" stroke="#707070" stroke-width="1"/>
        <path id="Path_125" data-name="Path 125" d="M2801.438-1304.168a.7.7,0,0,1-.156-.065.687.687,0,0,1-.32-.783,46.914,46.914,0,0,0,1.324-6.639.688.688,0,0,1,.771-.594.689.689,0,0,1,.593.771,47.871,47.871,0,0,1-1.364,6.833A.686.686,0,0,1,2801.438-1304.168Z" transform="translate(-2769.428 1391.218)" fill="#008c8d" stroke="#707070" stroke-width="1"/>
        <path id="Path_126" data-name="Path 126" d="M2843.659-1596.384q-.73,1.142-1.4,2.318c-.677,1.182-1.313,2.4-1.891,3.616a.688.688,0,0,1-.917.327l-.048-.025a.687.687,0,0,1-.278-.891c.591-1.25,1.244-2.5,1.939-3.711q.69-1.205,1.441-2.376a.654.654,0,0,1,.95-.208A.687.687,0,0,1,2843.659-1596.384Z" transform="translate(-2800.408 1623.011)" fill="#008c8d" stroke="#707070" stroke-width="1"/>
        <path id="Path_127" data-name="Path 127" d="M2823.013-1544.091a50.179,50.179,0,0,0-1.981,6.483.688.688,0,0,1-.826.515.677.677,0,0,1-.186-.073.687.687,0,0,1-.328-.752,51.373,51.373,0,0,1,2.035-6.663.688.688,0,0,1,.887-.4A.691.691,0,0,1,2823.013-1544.091Z" transform="translate(-2784.656 1580.397)" fill="#008c8d" stroke="#707070" stroke-width="1"/>
        <path id="Path_128" data-name="Path 128" d="M2875.1-1642.252a56.017,56.017,0,0,0-4.405,5.17.687.687,0,0,1-.891.184.776.776,0,0,1-.073-.048.688.688,0,0,1-.136-.963,57.526,57.526,0,0,1,4.512-5.3.686.686,0,0,1,.974-.019A.69.69,0,0,1,2875.1-1642.252Z" transform="translate(-2825.113 1660.364)" fill="#008c8d" stroke="#707070" stroke-width="1"/>
        <path id="Path_129" data-name="Path 129" d="M2957.432-1705.694a.685.685,0,0,1-.692,0,.681.681,0,0,1-.25-.247.687.687,0,0,1,.242-.942,54.453,54.453,0,0,1,6.207-3.153.689.689,0,0,1,.9.361.688.688,0,0,1-.361.9A53.138,53.138,0,0,0,2957.432-1705.694Z" transform="translate(-2895.772 1714.547)" fill="#008c8d" stroke="#707070" stroke-width="1"/>
        <path id="Path_130" data-name="Path 130" d="M2812.158-1421.429a.689.689,0,0,1-.345-.091.688.688,0,0,1-.345-.594l0-.871c-.007-2.007-.015-4.016.014-6.021a.689.689,0,0,1,.7-.678.689.689,0,0,1,.678.7c-.029,2-.021,4-.013,6l0,.871A.687.687,0,0,1,2812.158-1421.429Z" transform="translate(-2777.978 1486.657)" fill="#008c8d" stroke="#707070" stroke-width="1"/>
        <path id="Path_131" data-name="Path 131" d="M2910.252-1676.065a.687.687,0,0,1-.8.086.685.685,0,0,1-.171-.138.687.687,0,0,1,.053-.971,57.172,57.172,0,0,1,5.452-4.325.69.69,0,0,1,.958.171.688.688,0,0,1-.171.958A55.452,55.452,0,0,0,2910.252-1676.065Z" transform="translate(-2857.339 1691.343)" fill="#008c8d" stroke="#707070" stroke-width="1"/>
        <path id="Path_132" data-name="Path 132" d="M2811.174-1370.9a.685.685,0,0,1,.682.694c-.021,2.7-.1,4.9-.234,6.917a.688.688,0,0,1-.734.639.685.685,0,0,1-.294-.089.688.688,0,0,1-.345-.644c.136-1.99.211-4.162.233-6.834A.687.687,0,0,1,2811.174-1370.9Z" transform="translate(-2776.995 1438.885)" fill="#008c8d" stroke="#707070" stroke-width="1"/>
        <path id="Path_133" data-name="Path 133" d="M2639.832-1139.891a.688.688,0,0,1,.865.444.686.686,0,0,1-.444.865,55.506,55.506,0,0,1-6.747,1.693.685.685,0,0,1-.471-.079.69.69,0,0,1-.334-.469.688.688,0,0,1,.548-.8A54.7,54.7,0,0,0,2639.832-1139.891Z" transform="translate(-2632.688 1251.161)" fill="#008c8d" stroke="#707070" stroke-width="1"/>
        <path id="Path_134" data-name="Path 134" d="M2813.649-1488.258a.689.689,0,0,1,.581.78c-.3,2.073-.508,4.291-.629,6.779a.688.688,0,0,1-.72.654.686.686,0,0,1-.309-.09.686.686,0,0,1-.345-.63c.123-2.534.333-4.794.643-6.911A.687.687,0,0,1,2813.649-1488.258Z" transform="translate(-2778.603 1534.267)" fill="#008c8d" stroke="#707070" stroke-width="1"/>
        <path id="Path_135" data-name="Path 135" d="M3014.534-1726.784q1.18-.283,2.368-.515a.689.689,0,0,1,.807.543.688.688,0,0,1-.543.808q-1.159.225-2.311.5c-1.423.342-2.853.754-4.249,1.225a.687.687,0,0,1-.562-.054.684.684,0,0,1-.309-.376.687.687,0,0,1,.431-.872C3011.6-1726.01,3013.071-1726.433,3014.534-1726.784Z" transform="translate(-2939.095 1728.547)" fill="#008c8d" stroke="#707070" stroke-width="1"/>
      </g>
    </g>
  </g>
</svg>
