<svg xmlns="http://www.w3.org/2000/svg" width="26.135" height="20.774" viewBox="0 0 26.135 20.774">
  <g id="Group_664" data-name="Group 664" transform="translate(-3.015 -5.696)">
    <path id="Rectangle_35" data-name="Rectangle 35" d="M2.936-.75H21.7a3.69,3.69,0,0,1,3.686,3.686v13.4A3.69,3.69,0,0,1,21.7,20.024H2.936A3.69,3.69,0,0,1-.75,16.338V2.936A3.69,3.69,0,0,1,2.936-.75ZM21.7,18.014a1.677,1.677,0,0,0,1.675-1.675V2.936A1.677,1.677,0,0,0,21.7,1.26H2.936A1.677,1.677,0,0,0,1.26,2.936v13.4a1.677,1.677,0,0,0,1.675,1.675Z" transform="translate(3.766 6.446)" fill="#ffd200"/>
    <path id="Path_483" data-name="Path 483" d="M15.317,16.3a1,1,0,0,1-.558-.169L2.7,8.092A1.005,1.005,0,0,1,3.813,6.419l11.5,7.67,11.5-7.67a1.005,1.005,0,1,1,1.115,1.673L15.875,16.133A1,1,0,0,1,15.317,16.3Z" transform="translate(0.766 2.126)" fill="#ffd200"/>
  </g>
</svg>
