<svg xmlns="http://www.w3.org/2000/svg" width="15.955" height="24.89" viewBox="0 0 15.955 24.89">
  <path id="Path_484" data-name="Path 484" d="M16.142,27.14H11.037a.957.957,0,0,1-.957-.957V18.205H7.207a.957.957,0,0,1-.957-.957V12.142a.957.957,0,0,1,.957-.957h2.872v-1.6A7.348,7.348,0,0,1,17.419,2.25h3.829a.957.957,0,0,1,.957.957V8.313a.957.957,0,0,1-.957.957H17.419a.319.319,0,0,0-.319.319v1.6h4.148a.957.957,0,0,1,.929,1.189L20.9,17.48a.957.957,0,0,1-.929.725H17.1v7.978A.957.957,0,0,1,16.142,27.14Zm-4.148-1.915h3.191V17.248a.957.957,0,0,1,.957-.957h3.082l.8-3.191h-3.88a.957.957,0,0,1-.957-.957V9.589a2.236,2.236,0,0,1,2.234-2.234h2.872V4.165H17.419a5.431,5.431,0,0,0-5.425,5.425v2.553a.957.957,0,0,1-.957.957H8.165v3.191h2.872a.957.957,0,0,1,.957.957Z" transform="translate(-6.25 -2.25)" fill="#3e3e3e"/>
</svg>
