<svg xmlns="http://www.w3.org/2000/svg" width="424.585" height="379.154" viewBox="0 0 424.585 379.154">
  <g id="faq" transform="translate(-281.593 -389.899)">
    <g id="Group_554" data-name="Group 554" transform="translate(282.127 516.335)">
      <g id="Group_553" data-name="Group 553" transform="translate(0 49.626)">
        <path id="Path_367" data-name="Path 367" d="M701.7,1088.5a69.368,69.368,0,0,0-36.775-35.927c-16.9-6.846-36.315-4.354-54.12-6.647-15.464-1.991-26.622-8.9-35.855-21.169-8.847-11.761-16.78-24.785-31.246-30.225-11.43-4.3-24.425-3.107-35.785,1.372-20.933,8.254-36.743,25.8-50.059,43.287-12.157,15.962-22.073,33.442-44.56,34.012s-43.923-12.265-66.579-8.864c-29.943,4.495-54.88,29.422-60.106,59.1-4.9,27.812,7.392,54.787,28.5,70.636H678.008C704.61,1165.854,718.57,1126.868,701.7,1088.5Z" transform="translate(-285.545 -991.86)" fill="#f7f0e3" stroke="#707070" stroke-width="1"/>
        <g id="Group_552" data-name="Group 552" transform="translate(11.609 5.611)">
          <path id="Path_368" data-name="Path 368" d="M561.263,1369.8h1a76.571,76.571,0,0,0,15.816-27.13c5.588-16.612,5.352-34.046-.663-49.09-3.04-7.6-7.43-14.688-11.675-21.541-4.305-6.949-8.757-14.135-11.779-21.836a48.714,48.714,0,0,1-2.727-10.091c-.25-.033-.5-.06-.751-.09a49.378,49.378,0,0,0,2.8,10.447c3.045,7.762,7.515,14.977,11.838,21.955,4.229,6.825,8.6,13.884,11.618,21.427,5.951,14.884,6.182,32.139.649,48.587A75.733,75.733,0,0,1,561.263,1369.8Z" transform="translate(-484.758 -1173.2)" fill="#fff" stroke="#707070" stroke-width="1"/>
          <path id="Path_369" data-name="Path 369" d="M1003.2,1176.041c7.477,1.593,14.682,3.022,21.65,3.921.12-.23.236-.462.354-.693-7.026-.893-14.3-2.333-21.851-3.942-11.5-2.45-23.948-5.1-36.293-5.1a64.423,64.423,0,0,0-22.564,3.728,46.023,46.023,0,0,0-7.985,3.882c-6.6-2.815-13.245-5.888-19.823-9.262,4.773-3.6,9.6-7.117,14.471-10.521,36.188-25.27,69.586-39.6,101.852-43.662-.065-.236-.132-.472-.2-.709-32.352,4.1-65.823,18.462-102.07,43.772-4.979,3.477-9.9,7.075-14.774,10.749a244.51,244.51,0,0,1-21.781-12.657,189.718,189.718,0,0,1-41.42-36.351c51.65-5.794,104.235-13.1,147.177-41.8,1.631-1.09,3.437-2.375,5.309-3.833-.208-.147-.416-.292-.625-.437-1.793,1.389-3.523,2.616-5.089,3.662-42.932,28.693-95.614,35.938-147.331,41.731a141.942,141.942,0,0,1-23.681-40.264c-9.109-24.13-8.629-47.81,1.32-64.968.432-.745.888-1.479,1.359-2.2-.416.191-.827.388-1.239.586q-.384.622-.751,1.252c-10.058,17.349-10.558,41.256-1.371,65.592a142.5,142.5,0,0,0,23.5,40.1q-4.491.5-8.973.995c-10.769,1.188-21.906,2.418-32.719,3.81-3.947.508-7.961,1.1-11.955,1.844-8.562-18.07-17.967-35.7-30.124-50.817-.174.173-.351.342-.526.512,12.053,15,21.4,32.5,29.909,50.445-17.42,3.322-34.336,9.568-43.368,24.1-8.435,13.576-8.427,32.341.023,55.776.292.81.593,1.609.9,2.4h.782c-.335-.867-.667-1.745-.994-2.651-8.371-23.214-8.4-41.766-.089-55.143,8.925-14.364,25.747-20.526,43.07-23.808,3.023,6.394,5.942,12.84,8.844,19.247l.316.7c10.078,22.248,20.5,43.718,34.15,61.659h.911c-13.772-17.974-24.254-39.573-34.4-61.959l-.316-.7c-2.877-6.352-5.773-12.743-8.768-19.084,3.917-.724,7.854-1.3,11.726-1.8,10.807-1.391,21.939-2.62,32.706-3.808q4.716-.52,9.449-1.047a190.2,190.2,0,0,0,41.888,36.864,245.022,245.022,0,0,0,21.536,12.535c-12.413,9.389-24.488,19.268-36.277,28.913q-6.123,5.01-12.373,10.087h1.157q5.889-4.777,11.678-9.523c11.872-9.712,24.033-19.662,36.534-29.106,6.541,3.365,13.145,6.434,19.714,9.244a54.4,54.4,0,0,0-20.742,25.316c-.554,1.345-1.039,2.7-1.487,4.068h.768c.423-1.27.877-2.536,1.393-3.791a53.561,53.561,0,0,1,20.884-25.245,482.2,482.2,0,0,0,51.923,18.183l.584.172c6.536,1.933,13.22,3.913,19.133,7.094.165-.188.332-.376.5-.566-6.009-3.26-12.792-5.268-19.422-7.228l-.584-.172a483.163,483.163,0,0,1-51.362-17.95,45.226,45.226,0,0,1,7.409-3.55C963.685,1167.62,984.68,1172.094,1003.2,1176.041Z" transform="translate(-624.103 -1011.084)" fill="#fff" stroke="#707070" stroke-width="1"/>
          <path id="Path_370" data-name="Path 370" d="M345.114,1351.581a58.461,58.461,0,0,1-3.946,39.09,67.291,67.291,0,0,1-15.85,20.471c.133.207.269.412.4.617a68.044,68.044,0,0,0,16.1-20.766,59.2,59.2,0,0,0,4-39.586c-2.55-10.436-7.675-19.275-14.757-25.67q-.237.279-.471.56C337.559,1332.593,342.6,1341.3,345.114,1351.581Z" transform="translate(-325.318 -1233.892)" fill="#fff" stroke="#707070" stroke-width="1"/>
        </g>
      </g>
      <path id="Path_371" data-name="Path 371" d="M847.6,827.645c6.357,6.5,9.206,17.44,5.7,27.529-3.394,9.77-10.834,17.862-19.772,23.064-7.192,4.186-16.573,6.495-23.646,2.112-5.286-3.275-8.026-9.7-8.179-15.918s1.938-12.275,4.522-17.931c3.642-7.973,8.544-15.7,15.846-20.552C832.135,819.267,841.487,821.4,847.6,827.645Z" transform="translate(-651.034 -821.845)" fill="#f7f0e3" stroke="#707070" stroke-width="1"/>
    </g>
    <g id="Group_555" data-name="Group 555" transform="translate(465.011 390.399)">
      <path id="Path_372" data-name="Path 372" d="M1174.65,458.791a81.352,81.352,0,0,0-17.985-31.253q-12.9-14.27-35.185-23.578t-56.631-9.317A221.562,221.562,0,0,0,1009,402.032q-28.473,7.416-49.412,21.115l18.178,49.907-9.742,7.892,14.13,4.152q20.922-10.95,38.121-15.9a131.8,131.8,0,0,1,36.513-4.926q19.323,0,29.26,9.317a29.736,29.736,0,0,1,9.928,22.489,43.153,43.153,0,0,1-10.19,28.236q-10.225,12.342-22.565,24.952-8.573,8.755-16.64,18.081a129.8,129.8,0,0,0-14.228,20.026,108.891,108.891,0,0,0-9.928,23.024,94.508,94.508,0,0,0-3.758,27.683c0,3.3.07,7.229.262,11.8.032.843.077,1.665.127,2.476H1005.7l14.577,9.857h70.876a47.1,47.1,0,0,1-.542-7.675V647.95a47.612,47.612,0,0,1,3.758-18.366,95.012,95.012,0,0,1,9.4-17.277,127.637,127.637,0,0,1,12.619-15.617q6.975-7.416,13.424-13.993,8.574-8.755,17.706-18.634a146.449,146.449,0,0,0,16.115-20.829,117.014,117.014,0,0,0,11.536-23.863,84.006,84.006,0,0,0,4.579-28.236A112.919,112.919,0,0,0,1174.65,458.791Z" transform="translate(-945.727 -393.404)" fill="#e8b536" stroke="#707070" stroke-width="1"/>
      <path id="Path_373" data-name="Path 373" d="M1008.151,457.783a132.835,132.835,0,0,0-36.085,4.767q-17,4.793-37.674,15.391l-22.3-59.957q20.7-13.267,48.833-20.435a223.33,223.33,0,0,1,55.189-7.151q33.942,0,55.967,9.017t34.772,22.818a78.353,78.353,0,0,1,17.775,30.246,107.2,107.2,0,0,1,5.044,31.3,79.77,79.77,0,0,1-4.526,27.327,112.277,112.277,0,0,1-11.4,23.095,142.2,142.2,0,0,1-15.927,20.158q-9.017,9.561-17.5,18.034-6.374,6.374-13.266,13.543a124.054,124.054,0,0,0-12.471,15.114,91.345,91.345,0,0,0-9.293,16.721,45.249,45.249,0,0,0-3.714,17.775v6.374a44.64,44.64,0,0,0,.536,7.428H972.066a74.245,74.245,0,0,1-1.33-11.936c-.19-4.422-.259-8.222-.259-11.418a89.688,89.688,0,0,1,3.714-26.791A104.24,104.24,0,0,1,984,576.92a125.656,125.656,0,0,1,14.061-19.381q7.954-9.017,16.444-17.5,12.2-12.2,22.3-24.149a41.243,41.243,0,0,0,10.071-27.327q0-12.748-9.812-21.765T1008.151,457.783Z" transform="translate(-912.092 -390.399)" fill="#ffd147" stroke="#707070" stroke-width="1"/>
    </g>
    <path id="Path_374" data-name="Path 374" d="M1230.557,1450.991q0,19.167-12.41,29.594a42.957,42.957,0,0,1-56.143,0q-12.389-10.434-12.4-29.594T1162,1421.4c12.735-10.748,31.576-13.142,46.486-5.6C1221.721,1422.491,1230.557,1436.083,1230.557,1450.991Z" transform="translate(-615.268 -722.988)" fill="#e8b536" stroke="#707070" stroke-width="1"/>
    <path id="Path_375" data-name="Path 375" d="M1183.057,1449.883q0,19.168-12.41,29.594a42.957,42.957,0,0,1-56.143,0q-12.389-10.434-12.4-29.594t12.4-29.594a42.958,42.958,0,0,1,56.143,0Q1183.057,1430.744,1183.057,1449.883Z" transform="translate(-581.632 -721.88)" fill="#ffd147" stroke="#707070" stroke-width="1"/>
    <g id="Group_574" data-name="Group 574" transform="translate(304.258 464.508)">
      <g id="Group_558" data-name="Group 558" transform="translate(18.5 0)">
        <circle id="Ellipse_6" data-name="Ellipse 6" cx="7.633" cy="7.633" r="7.633" transform="matrix(0.184, -0.983, 0.983, 0.184, 52.429, 87.03)" fill="#d3dfff" stroke="#707070" stroke-width="1"/>
        <ellipse id="Ellipse_7" data-name="Ellipse 7" cx="4.293" cy="4.324" rx="4.293" ry="4.324" transform="translate(63.196 99.305) rotate(-79.386)" fill="#d3dfff" stroke="#707070" stroke-width="1"/>
        <g id="Group_557" data-name="Group 557" transform="translate(0)">
          <circle id="Ellipse_8" data-name="Ellipse 8" cx="30.054" cy="30.054" r="30.054" transform="translate(0 42.502) rotate(-45)" fill="#d3dfff" stroke="#707070" stroke-width="1"/>
          <g id="Group_556" data-name="Group 556" transform="translate(27.176 38.716)">
            <circle id="Ellipse_9" data-name="Ellipse 9" cx="3.787" cy="3.787" r="3.787" fill="#fff" stroke="#707070" stroke-width="1"/>
            <circle id="Ellipse_10" data-name="Ellipse 10" cx="3.787" cy="3.787" r="3.787" transform="translate(11.54)" fill="#fff" stroke="#707070" stroke-width="1"/>
            <circle id="Ellipse_11" data-name="Ellipse 11" cx="3.787" cy="3.787" r="3.787" transform="translate(23.08)" fill="#fff" stroke="#707070" stroke-width="1"/>
          </g>
        </g>
      </g>
      <g id="Group_573" data-name="Group 573" transform="translate(0 108.187)">
        <g id="Group_561" data-name="Group 561" transform="translate(17.602 119.55)">
          <g id="Group_559" data-name="Group 559" transform="translate(21.686 49.224)">
            <path id="Path_376" data-name="Path 376" d="M496.146,1604.661l2.808,10.826a6.2,6.2,0,0,0,6.482,4.526c9.207-.626,28.337-2.881,39.317-10.974l-3.121-15.6c-15.1-.853-29.214-.013-41.438,4.1A5.979,5.979,0,0,0,496.146,1604.661Z" transform="translate(-495.961 -1593.136)" fill="#102048" stroke="#707070" stroke-width="1"/>
            <path id="Path_377" data-name="Path 377" d="M546.843,1627.623a.365.365,0,0,1-.351-.267l-3.77-13.5a.365.365,0,0,1,.7-.2l3.77,13.5a.365.365,0,0,1-.352.463Z" transform="translate(-529.063 -1607.48)" fill="#fff" stroke="#707070" stroke-width="1"/>
            <path id="Path_378" data-name="Path 378" d="M574.76,1621.372a.366.366,0,0,1-.351-.267l-3.77-13.5a.365.365,0,0,1,.7-.2l3.77,13.5a.365.365,0,0,1-.253.449A.372.372,0,0,1,574.76,1621.372Z" transform="translate(-548.831 -1603.054)" fill="#fff" stroke="#707070" stroke-width="1"/>
          </g>
          <path id="Path_379" data-name="Path 379" d="M532.1,1426.73l-35.086,10.413,26.057,35.7,37.408,2.975,51.6-21.818-19.607-29.5Z" transform="translate(-475.018 -1424.498)" fill="#ffd147" stroke="#707070" stroke-width="1"/>
          <path id="Path_380" data-name="Path 380" d="M663.6,1437.881c77.052-22.81,89.436,45.289-30.786,57.686-4.246-4.778-9.209-13.069-11.179-20l63.488-29.339Z" transform="translate(-563.264 -1430.69)" fill="#ffd147" stroke="#707070" stroke-width="1"/>
          <path id="Path_381" data-name="Path 381" d="M729.457,1608a33.338,33.338,0,0,1-7.057-3.434l-12.384,3.884,2.838,13.471,12.864,2.614C729.638,1617.372,729.867,1611.487,729.457,1608Z" transform="translate(-625.85 -1552.009)" fill="#ffd147" stroke="#707070" stroke-width="1"/>
          <path id="Path_382" data-name="Path 382" d="M621.241,1500.8l-.55-.946c13.245-7.7,47.171-26.189,76.075-31.643l.2,1.076C668.231,1474.708,634.437,1493.131,621.241,1500.8Z" transform="translate(-562.597 -1455.451)" fill="#ffd147" stroke="#707070" stroke-width="1"/>
          <path id="Path_383" data-name="Path 383" d="M478.745,1427.832c-71.721-13.636-90.3,55.289,29.927,67.686a43.671,43.671,0,0,0,9.546-17.355,547.328,547.328,0,0,0-61.745-35.289Z" transform="translate(-421.667 -1425.601)" fill="#ffd147" stroke="#707070" stroke-width="1"/>
          <path id="Path_384" data-name="Path 384" d="M583.485,1504.725c-3.412-2.171-6.967-4.467-10.73-6.9-18.893-12.2-40.307-26.025-58.5-33.909l.435-1c18.276,7.92,39.731,21.772,58.659,33.993,3.762,2.429,7.316,4.724,10.724,6.893Z" transform="translate(-487.229 -1451.702)" fill="#ffd147" stroke="#707070" stroke-width="1"/>
          <path id="Path_385" data-name="Path 385" d="M434.613,1524.238l-.958-.529a20.123,20.123,0,0,1,12.816-9.771l.292,1.055A18.826,18.826,0,0,0,434.613,1524.238Z" transform="translate(-430.156 -1487.831)" fill="#ffd147" stroke="#707070" stroke-width="1"/>
          <path id="Path_386" data-name="Path 386" d="M920.294,1510.022a18.828,18.828,0,0,0-12.15-9.245l.292-1.054a20.125,20.125,0,0,1,12.816,9.771Z" transform="translate(-766.145 -1477.765)" fill="#ffd147" stroke="#707070" stroke-width="1"/>
          <path id="Path_387" data-name="Path 387" d="M694.79,1612.036l-.8-.747c5.737-6.145,9.261-12.631,10.772-19.831l1.071.225C704.28,1599.083,700.668,1605.741,694.79,1612.036Z" transform="translate(-614.501 -1542.724)" fill="#ffd147" stroke="#707070" stroke-width="1"/>
          <g id="Group_560" data-name="Group 560" transform="translate(99.87 50.221)">
            <path id="Path_388" data-name="Path 388" d="M803.319,1598.313c-9.189-5.677-27,4.132-31.475,4.628a10.765,10.765,0,0,1-4.295-.616c.409,3.482.181,9.368-3.738,16.535l2.185.444s15.106,5.537,31.131,2.314C811.919,1618.644,810.543,1602.776,803.319,1598.313Z" transform="translate(-763.812 -1596.551)" fill="#102048" stroke="#707070" stroke-width="1"/>
            <path id="Path_389" data-name="Path 389" d="M851.382,1627.7a.365.365,0,0,1-.348-.474c1.092-3.457,1.568-10.257-1.594-14.824a.365.365,0,0,1,.6-.416c3.311,4.783,2.825,11.866,1.69,15.459A.365.365,0,0,1,851.382,1627.7Z" transform="translate(-824.4 -1607.37)" fill="#fff" stroke="#707070" stroke-width="1"/>
            <path id="Path_390" data-name="Path 390" d="M826.694,1632.389a.365.365,0,0,1-.348-.474c1.091-3.457,1.568-10.257-1.594-14.825a.365.365,0,0,1,.6-.415c3.311,4.783,2.825,11.866,1.69,15.46A.365.365,0,0,1,826.694,1632.389Z" transform="translate(-806.918 -1610.689)" fill="#fff" stroke="#707070" stroke-width="1"/>
          </g>
        </g>
        <g id="Group_569" data-name="Group 569">
          <g id="Group_563" data-name="Group 563" transform="translate(40.663 0.644)">
            <path id="Path_391" data-name="Path 391" d="M522,1049.4s18.063-15.36,17.394-18.279c-.478-2.086-5.594.973-5.594.973s7.176-8.513,6.811-9.547c-.652-1.847-5.615,1.6-5.615,1.6s3.354-4.828,1.751-5.615-5.1,2.189-5.1,2.189,2.043-2.681,1.083-3.384-5.1,2.189-5.1,2.189,1.486-3.38-1.671-2.1-25.287,21.591-25.287,21.591Z" transform="translate(-500.671 -1017.136)" fill="#ffd147" stroke="#707070" stroke-width="1"/>
            <g id="Group_562" data-name="Group 562" transform="translate(20.328 2.024)">
              <path id="Path_392" data-name="Path 392" d="M578.7,1052.212a.364.364,0,0,1-.246-.1,16.57,16.57,0,0,0-7.888-4.573.365.365,0,1,1,.215-.7,17.149,17.149,0,0,1,8.166,4.731.365.365,0,0,1-.246.634Z" transform="translate(-570.312 -1040.186)" fill="#e28b6d" stroke="#707070" stroke-width="1"/>
              <path id="Path_393" data-name="Path 393" d="M579.532,1080.007a.375.375,0,0,1-.051,0,.365.365,0,0,1-.311-.412c.355-2.54,1.154-4.127,2.444-4.852,1.1-.62,2.537-.557,4.264.189a.365.365,0,1,1-.289.67c-1.506-.651-2.723-.726-3.617-.223-1.063.6-1.762,2.05-2.079,4.317A.365.365,0,0,1,579.532,1080.007Z" transform="translate(-576.582 -1059.651)" fill="#e28b6d" stroke="#707070" stroke-width="1"/>
              <path id="Path_394" data-name="Path 394" d="M576.615,1029.071a.365.365,0,0,1-.25-.63l4.532-4.272a.365.365,0,1,1,.5.531l-4.533,4.272A.361.361,0,0,1,576.615,1029.071Z" transform="translate(-574.517 -1024.07)" fill="#e28b6d" stroke="#707070" stroke-width="1"/>
              <path id="Path_395" data-name="Path 395" d="M590.99,1033.43a.365.365,0,0,1-.263-.617l4.354-4.536a.365.365,0,0,1,.527.505l-4.354,4.536A.363.363,0,0,1,590.99,1033.43Z" transform="translate(-584.696 -1026.969)" fill="#e28b6d" stroke="#707070" stroke-width="1"/>
              <path id="Path_396" data-name="Path 396" d="M605.677,1044.3a.365.365,0,0,1-.267-.614l3.416-3.664a.365.365,0,0,1,.534.5l-3.416,3.664A.365.365,0,0,1,605.677,1044.3Z" transform="translate(-595.096 -1035.281)" fill="#e28b6d" stroke="#707070" stroke-width="1"/>
            </g>
          </g>
          <g id="Group_564" data-name="Group 564" transform="translate(0 18.481)">
            <path id="Path_397" data-name="Path 397" d="M629.588,1268.392l-66.04,2.554-7.3-60.2s22.109-20.97,30.615-28.692l14.36-.736C645.776,1201.566,638.481,1226.858,629.588,1268.392Z" transform="translate(-499.364 -1151.23)" fill="#3a6bea" stroke="#707070" stroke-width="1"/>
            <path id="Path_398" data-name="Path 398" d="M710.329,1181.315s50.97,4.359,67.039,39.28c15.723,34.17-48.892,46.338-48.892,46.338Z" transform="translate(-608.469 -1151.23)" fill="#008c8d" stroke="#707070" stroke-width="1"/>
            <path id="Path_399" data-name="Path 399" d="M404.962,1115.814l21.063-25.632-19.7-11.937a256.859,256.859,0,0,0-37.569,33.306,27.809,27.809,0,0,0-6.462,11.172,24.04,24.04,0,0,0-.618,10.489h0a20.25,20.25,0,0,0,17.9,16.953c8.024.94,38.676-1.459,63.487-8.757l7.3-28.165C446.608,1111.115,418.739,1110.746,404.962,1115.814Z" transform="translate(-361.364 -1078.245)" fill="#008c8d" stroke="#707070" stroke-width="1"/>
          </g>
          <g id="Group_565" data-name="Group 565" transform="translate(10.765 26.959)" opacity="0.8">
            <path id="Path_400" data-name="Path 400" d="M795.515,1204.4l.329-.076c-.23-.136-.461-.269-.692-.4a110.5,110.5,0,0,1-11.388,2.2c-2.283.275-9.911.779-12.141-4.3-1.109-2.529-.27-5.341.984-7.314l-.547-.156c-1.285,2.091-2.109,5.024-.939,7.691,2.38,5.429,10.329,4.914,12.708,4.627A112.813,112.813,0,0,0,795.515,1204.4Z" transform="translate(-661.883 -1168.932)" fill="#fff" stroke="#707070" stroke-width="1"/>
            <path id="Path_401" data-name="Path 401" d="M897.623,1359.592c-2.435-.941-4.951-1.913-7.6-1.664-4.639.438-8.608,5.025-8.849,10.225a16.038,16.038,0,0,0,3.772,10.53l.465-.293a15.514,15.514,0,0,1-3.691-10.211c.229-4.939,3.976-9.293,8.354-9.707,2.514-.233,4.861.67,7.346,1.63.887.343,1.789.688,2.705.982.047-.176.093-.353.136-.531C899.373,1360.265,898.491,1359.927,897.623,1359.592Z" transform="translate(-740.204 -1284.74)" fill="#fff" stroke="#707070" stroke-width="1"/>
            <path id="Path_402" data-name="Path 402" d="M435.128,1297.692c-3.182-2.632-8.127-3.335-13.563-1.93a23.408,23.408,0,0,0-11.858,7.021c.188.06.371.129.561.185a22.953,22.953,0,0,1,11.434-6.675c5.264-1.363,10.032-.7,13.078,1.821a11.879,11.879,0,0,1,3.216,4.429l.566-.065A12.509,12.509,0,0,0,435.128,1297.692Z" transform="translate(-406.361 -1240.246)" fill="#fff" stroke="#707070" stroke-width="1"/>
            <path id="Path_403" data-name="Path 403" d="M398.243,1128.537a66.017,66.017,0,0,0,17.148-6.654,18.737,18.737,0,0,0,5.928-4.844,8.32,8.32,0,0,0,1.523-7.409,5.793,5.793,0,0,0-1.485-2.342l-.421.345a5.277,5.277,0,0,1,1.386,2.168,7.775,7.775,0,0,1-1.443,6.913,18.235,18.235,0,0,1-5.76,4.694,64.669,64.669,0,0,1-16.161,6.39Q398.6,1128.167,398.243,1128.537Z" transform="translate(-398.243 -1107.289)" fill="#fff" stroke="#707070" stroke-width="1"/>
          </g>
          <g id="Group_567" data-name="Group 567" transform="translate(65.511)">
            <path id="Path_404" data-name="Path 404" d="M681.6,1133.216l-.009.935-.148,14.516-.018,1.573a9.039,9.039,0,0,1-18.078-.009l-.176-17.939Z" transform="translate(-640.589 -1098.034)" fill="#ffd147" stroke="#707070" stroke-width="1"/>
            <path id="Path_405" data-name="Path 405" d="M698.291,1138.662l-.148,14.516c-8.067-3.284-11.389-12.018-11.389-12.018Z" transform="translate(-657.287 -1102.546)" fill="#102048" stroke="#707070" stroke-width="1"/>
            <path id="Path_406" data-name="Path 406" d="M680.262,1048.794c2.891,3.469,11.333,23.129,2.776,29.836-9.63,7.548-24.286-4.857-24.286-4.857l-1.966-22.9,12.721-3.354Z" transform="translate(-636.066 -1038.009)" fill="#ffd147" stroke="#707070" stroke-width="1"/>
            <path id="Path_407" data-name="Path 407" d="M600.04,1047.559s-28.216,14.716-5.209,57.137a11.556,11.556,0,0,0,15.1,5.168h0a11.444,11.444,0,0,0,5.019-15.983c-3.763-6.686-7.4-15.295-5.845-21.7Z" transform="translate(-585.801 -1038.035)" fill="#102048" stroke="#707070" stroke-width="1"/>
            <circle id="Ellipse_12" data-name="Ellipse 12" cx="7.633" cy="7.633" r="7.633" transform="translate(6.11 16.49) rotate(-45)" fill="#ffd147" stroke="#707070" stroke-width="1"/>
            <path id="Path_408" data-name="Path 408" d="M641.668,1040.592c-.825-4.762-1.327-8.027,3.486-10.481,0,0,16.961,3.084,20.2-3.315s-1.7-16.5-12.027-9.483c-26.444-5.166-29.991,19.582-21.973,27.832l7.914-1.215A2.881,2.881,0,0,0,641.668,1040.592Z" transform="translate(-615.374 -1014.93)" fill="#102048" stroke="#707070" stroke-width="1"/>
            <g id="Group_566" data-name="Group 566" transform="translate(34.125 16.975)">
              <circle id="Ellipse_13" data-name="Ellipse 13" cx="1.128" cy="1.128" r="1.128" transform="translate(4.173 7.572)" fill="#102048" stroke="#707070" stroke-width="1"/>
              <circle id="Ellipse_14" data-name="Ellipse 14" cx="1.128" cy="1.128" r="1.128" transform="translate(11.806 3.814)" fill="#102048" stroke="#707070" stroke-width="1"/>
              <path id="Path_409" data-name="Path 409" d="M738.38,1102.148a.319.319,0,0,1-.231-.539c.452-.476.947-1.145.739-1.63-.216-.5-1.13-.722-1.549-.722-.9,0-1.332-1.6-1.409-1.921a.319.319,0,0,1,.621-.15c.164.676.536,1.433.788,1.433.431,0,1.747.2,2.135,1.108.277.646-.013,1.427-.863,2.322A.318.318,0,0,1,738.38,1102.148Z" transform="translate(-726.227 -1089.978)" fill="#102048" stroke="#707070" stroke-width="1"/>
              <path id="Path_410" data-name="Path 410" d="M732.546,1126.035a.317.317,0,0,1-.178-.055,4.267,4.267,0,0,0-4.288-.219.319.319,0,0,1-.318-.554,4.854,4.854,0,0,1,4.964.244.319.319,0,0,1-.179.584Z" transform="translate(-720.336 -1109.586)" fill="#102048" stroke="#707070" stroke-width="1"/>
              <path id="Path_411" data-name="Path 411" d="M707.517,1084.879c.642,1.207-.476,1.449-1.786,2.145s-2.65.951-2.956.375.507-1.607,1.817-2.3S707.02,1083.944,707.517,1084.879Z" transform="translate(-702.71 -1081.063)" fill="#102048" stroke="#707070" stroke-width="1"/>
              <path id="Path_412" data-name="Path 412" d="M735.463,1074.722c.282,1.078,1.086.606,2.255.3s2.113-.893,1.979-1.407-1.191-.683-2.36-.377S735.245,1073.888,735.463,1074.722Z" transform="translate(-725.88 -1073.085)" fill="#102048" stroke="#707070" stroke-width="1"/>
            </g>
            <circle id="Ellipse_15" data-name="Ellipse 15" cx="3.325" cy="3.325" r="3.325" transform="matrix(0.735, -0.678, 0.678, 0.735, 29.523, 30.746)" fill="#eb5d60" stroke="#707070" stroke-width="1" opacity="0.4"/>
            <ellipse id="Ellipse_16" data-name="Ellipse 16" cx="4.503" cy="5.117" rx="4.503" ry="5.117" transform="matrix(0.611, -0.792, 0.792, 0.611, 14.793, 31.387)" fill="#ffd147" stroke="#707070" stroke-width="1"/>
            <path id="Path_413" data-name="Path 413" d="M656.65,1117.664a.319.319,0,0,1-.319-.319,2.8,2.8,0,0,0-1.229-2.331,2.254,2.254,0,0,0-2.1-.279.319.319,0,0,1-.241-.591,2.889,2.889,0,0,1,2.7.341,3.434,3.434,0,0,1,1.511,2.861A.319.319,0,0,1,656.65,1117.664Z" transform="translate(-633.076 -1085.047)" fill="#102048" stroke="#707070" stroke-width="1"/>
          </g>
          <g id="Group_568" data-name="Group 568" transform="translate(31.808 55.801)">
            <rect id="Rectangle_29" data-name="Rectangle 29" width="16.972" height="0.73" transform="translate(0 12.462) rotate(-47.248)" fill="#102048" stroke="#707070" stroke-width="1"/>
            <path id="Path_414" data-name="Path 414" d="M787.348,1351.9l-.213-.7c8.387-2.556,16.526-5.615,23.9-14.838l.57.456C804.1,1346.2,795.849,1349.308,787.348,1351.9Z" transform="translate(-694.664 -1298.34)" fill="#102048" stroke="#707070" stroke-width="1"/>
          </g>
        </g>
        <g id="Group_572" data-name="Group 572" transform="translate(53.602 81.101)">
          <g id="Group_570" data-name="Group 570">
            <path id="Path_415" data-name="Path 415" d="M620.989,1292.776H549.646A4.847,4.847,0,0,0,545,1297.8v50.937a4.847,4.847,0,0,0,4.646,5.026h71.344a4.847,4.847,0,0,0,4.646-5.026V1297.8A4.847,4.847,0,0,0,620.989,1292.776Z" transform="translate(-545 -1292.776)" fill="#d3dfff" stroke="#707070" stroke-width="1"/>
          </g>
          <g id="Group_571" data-name="Group 571" transform="translate(34.601 25.816)">
            <path id="Path_416" data-name="Path 416" d="M673.024,1382.677a.512.512,0,0,1,.49.531v5.378a.512.512,0,0,1-.49.531h-7.533a.512.512,0,0,1-.49-.531v-5.378a.511.511,0,0,1,.49-.531h7.533m0-1.46h-7.533a1.972,1.972,0,0,0-1.95,1.99v5.378a1.972,1.972,0,0,0,1.95,1.99h7.533a1.972,1.972,0,0,0,1.95-1.99v-5.378a1.972,1.972,0,0,0-1.95-1.99Z" transform="translate(-663.542 -1381.218)" fill="#1f3c88" stroke="#707070" stroke-width="1"/>
          </g>
        </g>
      </g>
    </g>
  </g>
</svg>
