<svg xmlns="http://www.w3.org/2000/svg" width="496.534" height="440.021" viewBox="0 0 496.534 440.021">
  <g id="forms" transform="translate(-20.472 -52.675)">
    <g id="Group_578" data-name="Group 578" transform="translate(67.784 53.682)">
      <g id="Group_576" data-name="Group 576" transform="translate(27.897 391.799)" opacity="0.2">
        <ellipse id="Ellipse_17" data-name="Ellipse 17" cx="187.539" cy="23.357" rx="187.539" ry="23.357" fill="#6d6d6d" stroke="#707070" stroke-width="1"/>
      </g>
      <g id="Group_577" data-name="Group 577" transform="translate(0)">
        <path id="Path_417" data-name="Path 417" d="M123.623,472.293c-21.713-18.311-44.169-37.6-55.324-63.722s-7.053-61.121,16.789-76.557c7.7-4.984,16.795-7.587,24.232-12.955,16.6-11.981,21.244-35.367,17.423-55.477s-14.432-38.15-23.247-56.625C87.884,174.233,77.86,134.666,94.6,102.507c15.863-30.471,55.869-45.792,88.029-33.713s52.185,49.95,44.066,83.329" transform="translate(-62.385 -52.251)" fill="none" stroke="#d8bfc7" stroke-linejoin="round" stroke-width="2" stroke-dasharray="0 8"/>
        <path id="Path_418" data-name="Path 418" d="M174.16,134.026c5.5-30.791,26.744-58.339,55.124-71.492s63.129-11.551,90.18,4.154c12.741,7.4,23.836,17.681,37.414,23.4,36.13,15.212,82.58-4.532,114.49,18.241,20.036,14.3,27.034,41.68,23.924,66.1s-14.531,46.856-25.039,69.115-20.452,45.722-20.259,70.336c.157,20.071,7.092,39.825,5.578,59.839a71.352,71.352,0,0,1-86.1,64.384" transform="translate(-47.814 -53.682)" fill="none" stroke="#d8bfc7" stroke-linejoin="round" stroke-width="2" stroke-dasharray="0 8"/>
      </g>
    </g>
    <g id="Group_649" data-name="Group 649" transform="translate(20.972 73.721)">
      <g id="Group_611" data-name="Group 611" transform="translate(128.053)">
        <g id="Group_580" data-name="Group 580" transform="translate(0 44.821)">
          <g id="Group_579" data-name="Group 579">
            <path id="Rectangle_31" data-name="Rectangle 31" d="M13.505,0H254.883a13.506,13.506,0,0,1,13.506,13.506V338.531a13.506,13.506,0,0,1-13.506,13.506H13.506A13.506,13.506,0,0,1,0,338.531V13.505A13.505,13.505,0,0,1,13.505,0Z" transform="translate(0.001 0)" fill="#008c8d" stroke="#707070" stroke-width="1"/>
            <path id="Path_419" data-name="Path 419" d="M169.884,138.678A161.828,161.828,0,0,1,181.3,111.062H149.524a15.267,15.267,0,0,0-15.267,15.267v321.5A15.267,15.267,0,0,0,149.524,463.1h55.6a587.749,587.749,0,0,1-46.037-252.38C160.09,186.387,162.649,161.931,169.884,138.678Z" transform="translate(-134.257 -111.062)" fill="#017071" stroke="#707070" stroke-width="1"/>
          </g>
        </g>
        <g id="Group_610" data-name="Group 610" transform="translate(16.041)">
          <g id="Group_608" data-name="Group 608" transform="translate(0 60.861)">
            <g id="Group_581" data-name="Group 581">
              <rect id="Rectangle_32" data-name="Rectangle 32" width="236.309" height="319.956" rx="2.251" transform="translate(0 0)" fill="#fff" stroke="#707070" stroke-width="1"/>
              <path id="Path_420" data-name="Path 420" d="M168.034,136.828q1.819-5.848,4.072-11.576H150.992a2.544,2.544,0,0,0-2.544,2.544V442.664a2.544,2.544,0,0,0,2.544,2.544h45.769a587.711,587.711,0,0,1-39.521-236.34C158.24,184.537,160.8,160.081,168.034,136.828Z" transform="translate(-148.448 -125.252)" fill="#f2cf54" stroke="#707070" stroke-width="1"/>
            </g>
            <g id="Group_607" data-name="Group 607" transform="translate(22.758 33.916)">
              <g id="Group_586" data-name="Group 586" transform="translate(0.001)">
                <g id="Group_582" data-name="Group 582" transform="translate(58.25 12.857)">
                  <path id="Path_421" data-name="Path 421" d="M351.138,177.882H221.632a1.518,1.518,0,0,1-1.518-1.518h0a1.518,1.518,0,0,1,1.518-1.518H351.138a1.518,1.518,0,0,1,1.518,1.518h0A1.518,1.518,0,0,1,351.138,177.882Z" transform="translate(-220.114 -165.56)" fill="#f2cf54" stroke="#707070" stroke-width="1"/>
                  <path id="Path_422" data-name="Path 422" d="M351.138,169.666H221.632a1.517,1.517,0,0,1-1.518-1.517h0a1.518,1.518,0,0,1,1.518-1.518H351.138a1.518,1.518,0,0,1,1.518,1.518h0A1.517,1.517,0,0,1,351.138,169.666Z" transform="translate(-220.114 -166.631)" fill="#f2cf54" stroke="#707070" stroke-width="1"/>
                  <path id="Path_423" data-name="Path 423" d="M351.138,183.061H221.632a1.518,1.518,0,0,0-1.518,1.518h0a1.518,1.518,0,0,0,1.518,1.518H351.138a1.518,1.518,0,0,0,1.518-1.518h0A1.518,1.518,0,0,0,351.138,183.061Z" transform="translate(-220.114 -164.489)" fill="#f2cf54" stroke="#707070" stroke-width="1"/>
                </g>
                <g id="Group_585" data-name="Group 585">
                  <g id="Group_583" data-name="Group 583">
                    <circle id="Ellipse_18" data-name="Ellipse 18" cx="23.661" cy="23.661" r="23.661" fill="#f2cf54" stroke="#707070" stroke-width="1"/>
                  </g>
                  <g id="Group_584" data-name="Group 584" transform="translate(9.515 12.158)">
                    <path id="Path_424" data-name="Path 424" d="M185.465,189.019H185.4a2.265,2.265,0,0,1-1.627-.757l-6.2-6.952a2.266,2.266,0,1,1,3.382-3.016l4.6,5.162,16.78-16.78a2.266,2.266,0,0,1,3.2,3.2l-18.476,18.476A2.266,2.266,0,0,1,185.465,189.019Z" transform="translate(-176.999 -166.012)" fill="#fff" stroke="#707070" stroke-width="1"/>
                  </g>
                </g>
              </g>
              <g id="Group_592" data-name="Group 592" transform="translate(0.001 147.036)">
                <g id="Group_587" data-name="Group 587" transform="translate(58.25 12.857)">
                  <path id="Path_425" data-name="Path 425" d="M351.138,307.96H221.632a1.518,1.518,0,0,1-1.518-1.518h0a1.518,1.518,0,0,1,1.518-1.518H351.138a1.518,1.518,0,0,1,1.518,1.518h0A1.518,1.518,0,0,1,351.138,307.96Z" transform="translate(-220.114 -295.638)" fill="#f2cf54" stroke="#707070" stroke-width="1"/>
                  <path id="Path_426" data-name="Path 426" d="M351.138,299.745H221.632a1.518,1.518,0,0,1-1.518-1.518h0a1.518,1.518,0,0,1,1.518-1.518H351.138a1.518,1.518,0,0,1,1.518,1.518h0A1.518,1.518,0,0,1,351.138,299.745Z" transform="translate(-220.114 -296.709)" fill="#f2cf54" stroke="#707070" stroke-width="1"/>
                  <path id="Path_427" data-name="Path 427" d="M351.138,313.14H221.632a1.518,1.518,0,0,0-1.518,1.518h0a1.518,1.518,0,0,0,1.518,1.518H351.138a1.518,1.518,0,0,0,1.518-1.518h0A1.518,1.518,0,0,0,351.138,313.14Z" transform="translate(-220.114 -294.567)" fill="#f2cf54" stroke="#707070" stroke-width="1"/>
                </g>
                <g id="Group_591" data-name="Group 591">
                  <g id="Group_589" data-name="Group 589">
                    <g id="Group_588" data-name="Group 588">
                      <circle id="Ellipse_19" data-name="Ellipse 19" cx="23.661" cy="23.661" r="23.661" fill="#f2cf54" stroke="#707070" stroke-width="1"/>
                    </g>
                  </g>
                  <g id="Group_590" data-name="Group 590" transform="translate(9.515 12.157)">
                    <path id="Path_428" data-name="Path 428" d="M185.465,319.1H185.4a2.268,2.268,0,0,1-1.627-.756l-6.2-6.953a2.266,2.266,0,1,1,3.382-3.016l4.6,5.162,16.78-16.78a2.266,2.266,0,0,1,3.2,3.2l-18.476,18.476A2.266,2.266,0,0,1,185.465,319.1Z" transform="translate(-176.999 -296.091)" fill="#fff" stroke="#707070" stroke-width="1"/>
                  </g>
                </g>
              </g>
              <g id="Group_596" data-name="Group 596" transform="translate(0.001 73.518)">
                <g id="Group_594" data-name="Group 594">
                  <circle id="Ellipse_20" data-name="Ellipse 20" cx="23.661" cy="23.661" r="23.661" fill="#f2cf54" stroke="#707070" stroke-width="1"/>
                  <g id="Group_593" data-name="Group 593" transform="translate(9.515 12.158)">
                    <path id="Path_429" data-name="Path 429" d="M185.465,254.058H185.4a2.268,2.268,0,0,1-1.627-.756l-6.2-6.953a2.266,2.266,0,1,1,3.382-3.016l4.6,5.162,16.78-16.78a2.266,2.266,0,0,1,3.2,3.2l-18.476,18.476A2.266,2.266,0,0,1,185.465,254.058Z" transform="translate(-176.999 -231.052)" fill="#fff" stroke="#707070" stroke-width="1"/>
                  </g>
                </g>
                <g id="Group_595" data-name="Group 595" transform="translate(58.25 12.857)">
                  <path id="Path_430" data-name="Path 430" d="M351.138,242.921H221.632a1.518,1.518,0,0,1-1.518-1.518h0a1.518,1.518,0,0,1,1.518-1.518H351.138a1.518,1.518,0,0,1,1.518,1.518h0A1.518,1.518,0,0,1,351.138,242.921Z" transform="translate(-220.114 -230.599)" fill="#f2cf54" stroke="#707070" stroke-width="1"/>
                  <path id="Path_431" data-name="Path 431" d="M351.138,234.706H221.632a1.518,1.518,0,0,1-1.518-1.518h0a1.518,1.518,0,0,1,1.518-1.518H351.138a1.518,1.518,0,0,1,1.518,1.518h0A1.518,1.518,0,0,1,351.138,234.706Z" transform="translate(-220.114 -231.67)" fill="#f2cf54" stroke="#707070" stroke-width="1"/>
                  <path id="Path_432" data-name="Path 432" d="M351.138,248.1H221.632a1.518,1.518,0,0,0-1.518,1.518h0a1.517,1.517,0,0,0,1.518,1.517H351.138a1.517,1.517,0,0,0,1.518-1.517h0A1.518,1.518,0,0,0,351.138,248.1Z" transform="translate(-220.114 -229.528)" fill="#f2cf54" stroke="#707070" stroke-width="1"/>
                </g>
              </g>
              <g id="Group_606" data-name="Group 606" transform="translate(0 220.553)">
                <g id="Group_604" data-name="Group 604">
                  <g id="Group_599" data-name="Group 599">
                    <g id="Group_598" data-name="Group 598" transform="translate(0.001)">
                      <g id="Group_597" data-name="Group 597">
                        <circle id="Ellipse_21" data-name="Ellipse 21" cx="23.661" cy="23.661" r="23.661" fill="#f2cf54" stroke="#707070" stroke-width="1"/>
                      </g>
                    </g>
                    <path id="Path_433" data-name="Path 433" d="M175,357.007a23.626,23.626,0,0,0,12.241,39.282Q180.434,376.87,175,357.007Z" transform="translate(-168.581 -349.51)" fill="#f2cf54" stroke="#707070" stroke-width="1"/>
                  </g>
                  <g id="Group_603" data-name="Group 603" transform="translate(9.515 12.157)">
                    <g id="Group_602" data-name="Group 602">
                      <g id="Group_601" data-name="Group 601">
                        <g id="Group_600" data-name="Group 600">
                          <path id="Path_434" data-name="Path 434" d="M185.465,384.136H185.4a2.264,2.264,0,0,1-1.627-.757l-6.2-6.953a2.266,2.266,0,0,1,3.382-3.016l4.6,5.164,16.78-16.78a2.265,2.265,0,1,1,3.2,3.2l-18.476,18.476A2.261,2.261,0,0,1,185.465,384.136Z" transform="translate(-176.999 -361.13)" fill="#fff" stroke="#707070" stroke-width="1"/>
                        </g>
                      </g>
                    </g>
                    <path id="Path_435" data-name="Path 435" d="M178.628,371.411a2.253,2.253,0,0,0-1.055,3.675l3.39,3.8Q179.771,375.157,178.628,371.411Z" transform="translate(-176.999 -359.789)" fill="#f4f3f2" stroke="#707070" stroke-width="1"/>
                  </g>
                </g>
                <g id="Group_605" data-name="Group 605" transform="translate(58.251 12.856)">
                  <path id="Path_436" data-name="Path 436" d="M351.138,373H221.632a1.517,1.517,0,0,1-1.518-1.517h0a1.518,1.518,0,0,1,1.518-1.518H351.138a1.518,1.518,0,0,1,1.518,1.518h0A1.517,1.517,0,0,1,351.138,373Z" transform="translate(-220.114 -360.677)" fill="#f2cf54" stroke="#707070" stroke-width="1"/>
                  <path id="Path_437" data-name="Path 437" d="M351.138,364.784H221.632a1.518,1.518,0,0,1-1.518-1.518h0a1.518,1.518,0,0,1,1.518-1.518H351.138a1.518,1.518,0,0,1,1.518,1.518h0A1.518,1.518,0,0,1,351.138,364.784Z" transform="translate(-220.114 -361.748)" fill="#f2cf54" stroke="#707070" stroke-width="1"/>
                  <path id="Path_438" data-name="Path 438" d="M351.138,378.179H221.632a1.518,1.518,0,0,0-1.518,1.518h0a1.518,1.518,0,0,0,1.518,1.518H351.138a1.518,1.518,0,0,0,1.518-1.518h0A1.518,1.518,0,0,0,351.138,378.179Z" transform="translate(-220.114 -359.606)" fill="#f2cf54" stroke="#707070" stroke-width="1"/>
                </g>
              </g>
            </g>
          </g>
          <g id="Group_609" data-name="Group 609" transform="translate(44.197)">
            <path id="Path_439" data-name="Path 439" d="M318.005,112.7a6.256,6.256,0,0,1-6.257-6.257V103.21a8.829,8.829,0,0,0-8.828-8.828H284.478a22.973,22.973,0,0,0-45.946,0H220.089a8.828,8.828,0,0,0-8.827,8.828v3.228A6.257,6.257,0,0,1,205,112.7c-9.3,0-17.283,7.278-17.454,16.58a16.9,16.9,0,0,0,16.893,17.212H318.566a16.9,16.9,0,0,0,16.893-17.212C335.29,119.974,327.309,112.7,318.005,112.7Zm-56.5-7.666a10.647,10.647,0,1,1,10.646-10.647A10.647,10.647,0,0,1,261.505,105.029Z" transform="translate(-187.547 -71.41)" fill="#f2cf54" stroke="#707070" stroke-width="1"/>
            <path id="Path_440" data-name="Path 440" d="M244.339,111.214A71.08,71.08,0,0,1,257.057,71.8a22.974,22.974,0,0,0-18.526,22.534H220.089a8.828,8.828,0,0,0-8.827,8.828v3.228A6.257,6.257,0,0,1,205,112.645c-9.3,0-17.283,7.278-17.454,16.58a16.9,16.9,0,0,0,16.893,17.212h49.1A70.767,70.767,0,0,1,244.339,111.214Z" transform="translate(-187.547 -71.359)" fill="#f2cf54" stroke="#707070" stroke-width="1"/>
          </g>
        </g>
      </g>
      <g id="Group_614" data-name="Group 614" transform="translate(332.039 87.15)">
        <path id="Path_441" data-name="Path 441" d="M406.845,148.509H342.639a27.921,27.921,0,0,0-27.921,27.921v22.9a27.92,27.92,0,0,0,27.921,27.92H368.3L400.58,245.68a4.188,4.188,0,0,0,6.264-3.638v-14.79a27.92,27.92,0,0,0,27.921-27.92v-22.9A27.921,27.921,0,0,0,406.845,148.509Z" transform="translate(-314.718 -148.509)" fill="#f2cf54" stroke="#707070" stroke-width="1"/>
        <path id="Path_442" data-name="Path 442" d="M365.967,148.509H342.639a27.921,27.921,0,0,0-27.921,27.921v22.9a27.92,27.92,0,0,0,27.921,27.92h16.647a74.187,74.187,0,0,1,6.682-78.744Z" transform="translate(-314.718 -148.509)" fill="#f2cf54" stroke="#707070" stroke-width="1"/>
        <g id="Group_613" data-name="Group 613" transform="translate(19.455 20.902)">
          <path id="Path_443" data-name="Path 443" d="M410.346,186.377H334.651a2.722,2.722,0,0,1-2.722-2.722h0a2.722,2.722,0,0,1,2.722-2.722h75.695a2.722,2.722,0,0,1,2.722,2.722h0A2.722,2.722,0,0,1,410.346,186.377Z" transform="translate(-331.929 -165.184)" fill="#fff" stroke="#707070" stroke-width="1"/>
          <rect id="Rectangle_33" data-name="Rectangle 33" width="81.139" height="5.444" rx="2.408" transform="translate(0 0)" fill="#fff" stroke="#707070" stroke-width="1"/>
          <path id="Path_444" data-name="Path 444" d="M410.346,194.866H334.651a2.722,2.722,0,0,0-2.722,2.722h0a2.722,2.722,0,0,0,2.722,2.721h75.695a2.722,2.722,0,0,0,2.722-2.721h0A2.722,2.722,0,0,0,410.346,194.866Z" transform="translate(-331.929 -163.367)" fill="#fff" stroke="#707070" stroke-width="1"/>
          <g id="Group_612" data-name="Group 612" transform="translate(0)">
            <path id="Path_445" data-name="Path 445" d="M334.651,180.933a2.722,2.722,0,1,0,0,5.444h14.177c.029-.882.054-1.764.116-2.645.067-.936.171-1.867.274-2.8Z" transform="translate(-331.929 -165.184)" fill="#f4f3f2" stroke="#707070" stroke-width="1"/>
            <path id="Path_446" data-name="Path 446" d="M349.213,194.865H334.651a2.722,2.722,0,1,0,0,5.444h15.337C349.659,198.5,349.409,196.688,349.213,194.865Z" transform="translate(-331.929 -163.368)" fill="#f4f3f2" stroke="#707070" stroke-width="1"/>
            <path id="Path_447" data-name="Path 447" d="M334.651,167a2.722,2.722,0,1,0,0,5.444h16.468c.475-1.832,1-3.652,1.607-5.444Z" transform="translate(-331.929 -167)" fill="#f4f3f2" stroke="#707070" stroke-width="1"/>
          </g>
        </g>
      </g>
      <g id="Group_621" data-name="Group 621" transform="translate(95.402 280.334)">
        <g id="Group_616" data-name="Group 616" transform="translate(0 0)">
          <g id="Group_615" data-name="Group 615">
            <path id="Path_448" data-name="Path 448" d="M174.3,319.414H115.549a10.177,10.177,0,0,0-10.177,10.178V381.53a10.177,10.177,0,0,0,10.177,10.178h4.632v13.235a2.544,2.544,0,0,0,3.729,2.252l29.415-15.487H174.3a10.177,10.177,0,0,0,10.178-10.178V329.592A10.177,10.177,0,0,0,174.3,319.414Z" transform="translate(-105.372 -319.414)" fill="#f2cf54" stroke="#707070" stroke-width="1"/>
            <path id="Path_449" data-name="Path 449" d="M115.549,319.414a10.177,10.177,0,0,0-10.177,10.178V381.53a10.177,10.177,0,0,0,10.177,10.178h4.632v13.235a2.544,2.544,0,0,0,3.729,2.252l19.431-10.231a88.161,88.161,0,0,1-11.2-77.549Z" transform="translate(-105.372 -319.414)" fill="#f2cf54" stroke="#707070" stroke-width="1"/>
          </g>
        </g>
        <g id="Group_618" data-name="Group 618" transform="translate(3.766 3.388)">
          <g id="Group_617" data-name="Group 617">
            <path id="Path_450" data-name="Path 450" d="M173.284,387.929H115.7a7.005,7.005,0,0,1-7-7V329.408a7.005,7.005,0,0,1,7-7h57.583a7.005,7.005,0,0,1,7,7v51.524A7.005,7.005,0,0,1,173.284,387.929ZM115.7,323.683a5.731,5.731,0,0,0-5.724,5.725v51.524a5.731,5.731,0,0,0,5.724,5.725h57.583a5.731,5.731,0,0,0,5.724-5.725V329.408a5.731,5.731,0,0,0-5.724-5.725Z" transform="translate(-108.704 -322.411)" fill="#fff" stroke="#707070" stroke-width="1"/>
          </g>
          <path id="Path_451" data-name="Path 451" d="M137.053,386.657H115.7a5.731,5.731,0,0,1-5.724-5.725V329.408a5.731,5.731,0,0,1,5.724-5.725h14.637c.113-.425.233-.848.352-1.272H115.7a7.005,7.005,0,0,0-7,7v51.524a7.005,7.005,0,0,0,7,7h21.986C137.465,387.511,137.269,387.079,137.053,386.657Z" transform="translate(-108.704 -322.411)" fill="#f4f3f2" stroke="#707070" stroke-width="1"/>
        </g>
        <g id="Group_620" data-name="Group 620" transform="translate(14.809 16.655)">
          <g id="Group_619" data-name="Group 619">
            <path id="Path_452" data-name="Path 452" d="M132.818,373.132h-.11a3.84,3.84,0,0,1-2.755-1.282l-10.508-11.781a3.839,3.839,0,0,1,5.73-5.11l7.8,8.748,28.433-28.434a3.839,3.839,0,0,1,5.429,5.429l-31.306,31.308A3.845,3.845,0,0,1,132.818,373.132Z" transform="translate(-118.473 -334.148)" fill="#fff" stroke="#707070" stroke-width="1"/>
          </g>
          <path id="Path_453" data-name="Path 453" d="M129.954,369.6a3.638,3.638,0,0,0,.448.408,86.919,86.919,0,0,1-3.35-13.942c-.076-.494-.137-.989-.2-1.483l-1.672-1.874a3.838,3.838,0,0,0-5.73,5.109Z" transform="translate(-118.473 -331.896)" fill="#f4f3f2" stroke="#707070" stroke-width="1"/>
        </g>
      </g>
      <g id="Group_635" data-name="Group 635" transform="translate(0 140.46)">
        <g id="Group_623" data-name="Group 623">
          <g id="Group_622" data-name="Group 622">
            <path id="Path_454" data-name="Path 454" d="M224.94,195.671H49.7a28.733,28.733,0,1,0,0,57.465H111.3l22.416,22.415a5.1,5.1,0,0,0,7.214,0l22.416-22.415H224.94a28.733,28.733,0,1,0,0-57.465Z" transform="translate(-20.972 -195.671)" fill="#008c8d" stroke="#707070" stroke-width="1"/>
            <path id="Path_455" data-name="Path 455" d="M61.969,195.671H49.7a28.733,28.733,0,1,0,0,57.465h19.29a72.021,72.021,0,0,1-9.688-46.73A51.993,51.993,0,0,1,61.969,195.671Z" transform="translate(-20.972 -195.671)" fill="#017071" stroke="#707070" stroke-width="1"/>
          </g>
        </g>
        <g id="Group_634" data-name="Group 634" transform="translate(21.949 15.764)">
          <g id="Group_625" data-name="Group 625">
            <g id="Group_624" data-name="Group 624">
              <path id="Path_456" data-name="Path 456" d="M54.236,233.184,47.1,236.933a1.131,1.131,0,0,1-1.64-1.191l1.362-7.941a1.132,1.132,0,0,0-.324-1l-5.769-5.624a1.13,1.13,0,0,1,.626-1.927l7.972-1.159a1.131,1.131,0,0,0,.851-.618l3.566-7.225a1.13,1.13,0,0,1,2.027,0l3.565,7.225a1.135,1.135,0,0,0,.851.618l7.974,1.159a1.13,1.13,0,0,1,.626,1.927L63.022,226.8a1.129,1.129,0,0,0-.324,1l1.361,7.941a1.13,1.13,0,0,1-1.64,1.191l-7.13-3.749A1.132,1.132,0,0,0,54.236,233.184Z" transform="translate(-40.39 -209.617)" fill="#f2cf54" stroke="#707070" stroke-width="1"/>
              <path id="Path_457" data-name="Path 457" d="M54.022,233.3a14.893,14.893,0,0,1-1.657-4.737,16.4,16.4,0,0,1,5.307-14.467l-1.9-3.844a1.13,1.13,0,0,0-2.027,0l-3.566,7.225a1.131,1.131,0,0,1-.851.618l-7.972,1.159a1.13,1.13,0,0,0-.626,1.927L46.5,226.8a1.132,1.132,0,0,1,.324,1l-1.362,7.941a1.131,1.131,0,0,0,1.64,1.191Z" transform="translate(-40.39 -209.617)" fill="#f2cf54" stroke="#707070" stroke-width="1"/>
            </g>
          </g>
          <g id="Group_627" data-name="Group 627" transform="translate(39.759)">
            <g id="Group_626" data-name="Group 626">
              <path id="Path_458" data-name="Path 458" d="M89.41,233.184l-7.131,3.749a1.131,1.131,0,0,1-1.64-1.191L82,227.8a1.133,1.133,0,0,0-.324-1l-5.769-5.624a1.13,1.13,0,0,1,.626-1.927l7.972-1.159a1.131,1.131,0,0,0,.851-.618l3.566-7.225a1.13,1.13,0,0,1,2.027,0l3.566,7.225a1.131,1.131,0,0,0,.851.618l7.972,1.159a1.13,1.13,0,0,1,.626,1.927L98.2,226.8a1.132,1.132,0,0,0-.324,1l1.361,7.941a1.13,1.13,0,0,1-1.639,1.191l-7.131-3.749A1.132,1.132,0,0,0,89.41,233.184Z" transform="translate(-75.564 -209.617)" fill="#f2cf54" stroke="#707070" stroke-width="1"/>
              <path id="Path_459" data-name="Path 459" d="M89.2,233.3a14.893,14.893,0,0,1-1.657-4.737,16.4,16.4,0,0,1,5.307-14.467l-1.9-3.844a1.13,1.13,0,0,0-2.027,0l-3.566,7.225a1.131,1.131,0,0,1-.851.618l-7.972,1.159a1.13,1.13,0,0,0-.626,1.927l5.769,5.624a1.133,1.133,0,0,1,.324,1l-1.362,7.941a1.131,1.131,0,0,0,1.64,1.191Z" transform="translate(-75.564 -209.617)" fill="#f2cf54" stroke="#707070" stroke-width="1"/>
            </g>
          </g>
          <g id="Group_629" data-name="Group 629" transform="translate(79.519)">
            <g id="Group_628" data-name="Group 628">
              <path id="Path_460" data-name="Path 460" d="M124.584,233.184l-7.131,3.749a1.131,1.131,0,0,1-1.64-1.191l1.362-7.941a1.133,1.133,0,0,0-.324-1l-5.769-5.624a1.13,1.13,0,0,1,.626-1.927l7.972-1.159a1.131,1.131,0,0,0,.851-.618l3.566-7.225a1.13,1.13,0,0,1,2.027,0l3.566,7.225a1.131,1.131,0,0,0,.851.618l7.972,1.159a1.13,1.13,0,0,1,.626,1.927L133.37,226.8a1.133,1.133,0,0,0-.324,1l1.362,7.941a1.131,1.131,0,0,1-1.64,1.191l-7.131-3.749A1.132,1.132,0,0,0,124.584,233.184Z" transform="translate(-110.738 -209.617)" fill="#f2cf54" stroke="#707070" stroke-width="1"/>
              <path id="Path_461" data-name="Path 461" d="M124.37,233.3a14.893,14.893,0,0,1-1.657-4.737,16.4,16.4,0,0,1,5.307-14.467l-1.9-3.844a1.13,1.13,0,0,0-2.027,0l-3.566,7.225a1.131,1.131,0,0,1-.851.618l-7.972,1.159a1.13,1.13,0,0,0-.626,1.927l5.769,5.624a1.133,1.133,0,0,1,.324,1l-1.362,7.941a1.131,1.131,0,0,0,1.64,1.191Z" transform="translate(-110.738 -209.617)" fill="#f2cf54" stroke="#707070" stroke-width="1"/>
            </g>
          </g>
          <g id="Group_631" data-name="Group 631" transform="translate(119.278)">
            <g id="Group_630" data-name="Group 630">
              <path id="Path_462" data-name="Path 462" d="M159.758,233.184l-7.131,3.749a1.131,1.131,0,0,1-1.64-1.191l1.362-7.941a1.133,1.133,0,0,0-.324-1l-5.769-5.624a1.13,1.13,0,0,1,.626-1.927l7.974-1.159a1.131,1.131,0,0,0,.85-.618l3.566-7.225a1.13,1.13,0,0,1,2.027,0l3.566,7.225a1.131,1.131,0,0,0,.851.618l7.972,1.159a1.13,1.13,0,0,1,.626,1.927l-5.769,5.624a1.132,1.132,0,0,0-.324,1l1.362,7.941a1.131,1.131,0,0,1-1.64,1.191l-7.131-3.749A1.132,1.132,0,0,0,159.758,233.184Z" transform="translate(-145.912 -209.617)" fill="#f2cf54" stroke="#707070" stroke-width="1"/>
              <path id="Path_463" data-name="Path 463" d="M159.544,233.3a14.864,14.864,0,0,1-1.656-4.737,16.392,16.392,0,0,1,5.307-14.467l-1.9-3.844a1.13,1.13,0,0,0-2.027,0l-3.566,7.225a1.131,1.131,0,0,1-.85.618l-7.974,1.159a1.13,1.13,0,0,0-.626,1.927l5.769,5.624a1.133,1.133,0,0,1,.324,1l-1.362,7.941a1.131,1.131,0,0,0,1.64,1.191Z" transform="translate(-145.912 -209.617)" fill="#f2cf54" stroke="#707070" stroke-width="1"/>
            </g>
          </g>
          <g id="Group_633" data-name="Group 633" transform="translate(159.037)">
            <g id="Group_632" data-name="Group 632">
              <path id="Path_464" data-name="Path 464" d="M194.932,233.184l-7.13,3.749a1.13,1.13,0,0,1-1.64-1.191l1.361-7.941a1.129,1.129,0,0,0-.324-1l-5.769-5.624a1.13,1.13,0,0,1,.626-1.927l7.974-1.159a1.135,1.135,0,0,0,.851-.618l3.565-7.225a1.13,1.13,0,0,1,2.027,0l3.566,7.225a1.131,1.131,0,0,0,.851.618l7.972,1.159a1.13,1.13,0,0,1,.626,1.927l-5.769,5.624a1.133,1.133,0,0,0-.324,1l1.362,7.941a1.131,1.131,0,0,1-1.64,1.191l-7.131-3.749A1.132,1.132,0,0,0,194.932,233.184Z" transform="translate(-181.086 -209.617)" fill="#f2cf54" stroke="#707070" stroke-width="1"/>
              <path id="Path_465" data-name="Path 465" d="M194.718,233.3a14.863,14.863,0,0,1-1.656-4.737,16.392,16.392,0,0,1,5.307-14.467l-1.9-3.844a1.13,1.13,0,0,0-2.027,0l-3.565,7.225a1.135,1.135,0,0,1-.851.618l-7.974,1.159a1.13,1.13,0,0,0-.626,1.927L187.2,226.8a1.129,1.129,0,0,1,.324,1l-1.361,7.941a1.13,1.13,0,0,0,1.64,1.191Z" transform="translate(-181.086 -209.617)" fill="#f2cf54" stroke="#707070" stroke-width="1"/>
            </g>
          </g>
        </g>
      </g>
      <g id="Group_648" data-name="Group 648" transform="translate(99.35 67.921)">
        <g id="Group_638" data-name="Group 638" transform="translate(163.373 276.344)">
          <g id="Group_636" data-name="Group 636" transform="translate(0 0)">
            <path id="Path_466" data-name="Path 466" d="M273.4,410.029l-10.3,5.418a1.634,1.634,0,0,1-2.37-1.723l1.968-11.474a1.633,1.633,0,0,0-.469-1.446l-8.338-8.126a1.634,1.634,0,0,1,.905-2.786l11.522-1.674a1.636,1.636,0,0,0,1.23-.894l5.152-10.44a1.634,1.634,0,0,1,2.93,0l5.152,10.44a1.633,1.633,0,0,0,1.23.894l11.522,1.674a1.634,1.634,0,0,1,.905,2.786L286.1,400.8a1.636,1.636,0,0,0-.47,1.446l1.969,11.474a1.634,1.634,0,0,1-2.37,1.723l-10.305-5.418A1.636,1.636,0,0,0,273.4,410.029Z" transform="translate(-253.396 -375.973)" fill="#f2cf54" stroke="#707070" stroke-width="1"/>
          </g>
          <g id="Group_637" data-name="Group 637" transform="translate(20.535 12.281)">
            <path id="Path_467" data-name="Path 467" d="M282.544,387.218l-8.58,22.249,1.76.925,8.825-22.883Z" transform="translate(-271.25 -386.787)" fill="#f2cf54" stroke="#707070" stroke-width="1"/>
            <path id="Path_468" data-name="Path 468" d="M279.9,386.837l-8.336,21.616a1.623,1.623,0,0,1,.994.159l.394.207,8.4-21.772Z" transform="translate(-271.563 -386.837)" fill="#f2cf54" stroke="#707070" stroke-width="1"/>
          </g>
          <path id="Path_469" data-name="Path 469" d="M260.73,413.725a1.634,1.634,0,0,0,2.37,1.722l10.035-5.277a22.5,22.5,0,0,1-3.754-5.723,14.691,14.691,0,0,1-1.351-8.756,14.259,14.259,0,0,1,5.332-8.14,29.1,29.1,0,0,1,5.809-3.492l-3.541-7.177a1.634,1.634,0,0,0-2.93,0l-5.152,10.44a1.636,1.636,0,0,1-1.23.894L254.8,389.891a1.634,1.634,0,0,0-.905,2.786l8.338,8.126a1.633,1.633,0,0,1,.469,1.446Z" transform="translate(-253.396 -375.973)" fill="#f2cf54" stroke="#707070" stroke-width="1"/>
        </g>
        <g id="Group_641" data-name="Group 641" transform="translate(0 14.048)">
          <g id="Group_639" data-name="Group 639">
            <path id="Path_470" data-name="Path 470" d="M128.874,177.982,118.568,183.4a1.634,1.634,0,0,1-2.37-1.723l1.969-11.474a1.633,1.633,0,0,0-.47-1.446l-8.338-8.127a1.633,1.633,0,0,1,.905-2.785l11.522-1.675a1.631,1.631,0,0,0,1.23-.893l5.152-10.44a1.634,1.634,0,0,1,2.93,0l5.152,10.44a1.635,1.635,0,0,0,1.23.893L149,157.844a1.633,1.633,0,0,1,.905,2.785l-8.338,8.127a1.633,1.633,0,0,0-.469,1.446l1.968,11.474a1.634,1.634,0,0,1-2.37,1.723l-10.3-5.418A1.629,1.629,0,0,0,128.874,177.982Z" transform="translate(-108.864 -143.926)" fill="#f2cf54" stroke="#707070" stroke-width="1"/>
          </g>
          <g id="Group_640" data-name="Group 640" transform="translate(20.536 12.281)">
            <path id="Path_471" data-name="Path 471" d="M138.013,155.171l-8.581,22.249,1.76.925,8.825-22.883Z" transform="translate(-126.719 -154.74)" fill="#f2cf54" stroke="#707070" stroke-width="1"/>
            <path id="Path_472" data-name="Path 472" d="M135.367,154.79l-8.335,21.616a1.617,1.617,0,0,1,.994.159l.393.207,8.4-21.772Z" transform="translate(-127.032 -154.79)" fill="#f2cf54" stroke="#707070" stroke-width="1"/>
          </g>
          <path id="Path_473" data-name="Path 473" d="M116.2,181.677a1.633,1.633,0,0,0,2.37,1.722l10.036-5.275a22.436,22.436,0,0,1-3.754-5.723,14.7,14.7,0,0,1-1.352-8.757,14.263,14.263,0,0,1,5.333-8.14,29.121,29.121,0,0,1,5.809-3.491l-3.543-7.177a1.634,1.634,0,0,0-2.93,0l-5.152,10.44a1.631,1.631,0,0,1-1.23.893l-11.522,1.675a1.633,1.633,0,0,0-.905,2.785l8.338,8.127a1.633,1.633,0,0,1,.47,1.446Z" transform="translate(-108.864 -143.926)" fill="#f2cf54" stroke="#707070" stroke-width="1"/>
        </g>
        <g id="Group_644" data-name="Group 644" transform="translate(205.202 293.069)">
          <g id="Group_642" data-name="Group 642">
            <path id="Path_474" data-name="Path 474" d="M304.573,414.891l-7.3,3.838a1.157,1.157,0,0,1-1.679-1.22l1.394-8.128a1.156,1.156,0,0,0-.333-1.024l-5.9-5.756a1.157,1.157,0,0,1,.642-1.974l8.16-1.186a1.156,1.156,0,0,0,.872-.633l3.65-7.395a1.156,1.156,0,0,1,2.074,0l3.65,7.395a1.155,1.155,0,0,0,.871.633l8.16,1.186a1.157,1.157,0,0,1,.641,1.974l-5.905,5.756a1.158,1.158,0,0,0-.332,1.024l1.394,8.128a1.157,1.157,0,0,1-1.679,1.22l-7.3-3.838A1.156,1.156,0,0,0,304.573,414.891Z" transform="translate(-290.401 -390.768)" fill="#f2cf54" stroke="#707070" stroke-width="1"/>
          </g>
          <g id="Group_643" data-name="Group 643" transform="translate(14.545 8.699)">
            <path id="Path_475" data-name="Path 475" d="M311.047,398.734l-6.078,15.759,1.247.655,6.251-16.208Z" transform="translate(-303.047 -398.429)" fill="#f2cf54" stroke="#707070" stroke-width="1"/>
            <path id="Path_476" data-name="Path 476" d="M309.174,398.464l-5.9,15.311a1.148,1.148,0,0,1,.7.113l.278.147,5.948-15.422Z" transform="translate(-303.269 -398.464)" fill="#f2cf54" stroke="#707070" stroke-width="1"/>
          </g>
          <path id="Path_477" data-name="Path 477" d="M295.6,417.509a1.157,1.157,0,0,0,1.679,1.22l7.108-3.737a15.952,15.952,0,0,1-2.659-4.055,10.41,10.41,0,0,1-.957-6.2,10.1,10.1,0,0,1,3.778-5.765,20.635,20.635,0,0,1,4.115-2.473l-2.509-5.083a1.156,1.156,0,0,0-2.074,0l-3.65,7.395a1.156,1.156,0,0,1-.872.633l-8.16,1.186a1.157,1.157,0,0,0-.642,1.974l5.9,5.756a1.156,1.156,0,0,1,.333,1.024Z" transform="translate(-290.401 -390.768)" fill="#f2cf54" stroke="#707070" stroke-width="1"/>
        </g>
        <g id="Group_647" data-name="Group 647" transform="translate(41.373)">
          <g id="Group_645" data-name="Group 645">
            <path id="Path_478" data-name="Path 478" d="M159.638,155.62l-7.3,3.838a1.158,1.158,0,0,1-1.68-1.22l1.395-8.128a1.157,1.157,0,0,0-.333-1.024l-5.9-5.756a1.157,1.157,0,0,1,.641-1.974l8.161-1.186a1.155,1.155,0,0,0,.872-.633l3.649-7.395a1.158,1.158,0,0,1,2.075,0l3.65,7.395a1.153,1.153,0,0,0,.87.633l8.161,1.186a1.157,1.157,0,0,1,.641,1.974l-5.905,5.756a1.159,1.159,0,0,0-.332,1.024l1.394,8.128a1.157,1.157,0,0,1-1.679,1.22l-7.3-3.838A1.156,1.156,0,0,0,159.638,155.62Z" transform="translate(-145.466 -131.498)" fill="#f2cf54" stroke="#707070" stroke-width="1"/>
          </g>
          <g id="Group_646" data-name="Group 646" transform="translate(14.545 8.699)">
            <path id="Path_479" data-name="Path 479" d="M166.112,139.463l-6.078,15.759,1.247.656,6.251-16.208Z" transform="translate(-158.112 -139.159)" fill="#f2cf54" stroke="#707070" stroke-width="1"/>
            <path id="Path_480" data-name="Path 480" d="M164.238,139.194l-5.9,15.31a1.156,1.156,0,0,1,.7.113l.278.147,5.948-15.422Z" transform="translate(-158.334 -139.194)" fill="#f2cf54" stroke="#707070" stroke-width="1"/>
          </g>
          <path id="Path_481" data-name="Path 481" d="M150.66,158.238a1.158,1.158,0,0,0,1.68,1.22l7.108-3.737a15.9,15.9,0,0,1-2.659-4.055,10.407,10.407,0,0,1-.957-6.2,10.1,10.1,0,0,1,3.778-5.766,20.576,20.576,0,0,1,4.115-2.472l-2.509-5.084a1.158,1.158,0,0,0-2.075,0l-3.649,7.395a1.155,1.155,0,0,1-.872.633l-8.161,1.186a1.157,1.157,0,0,0-.641,1.974l5.9,5.756a1.156,1.156,0,0,1,.333,1.024Z" transform="translate(-145.466 -131.498)" fill="#f2cf54" stroke="#707070" stroke-width="1"/>
        </g>
      </g>
    </g>
  </g>
</svg>
