<svg id="Group_656" data-name="Group 656" xmlns="http://www.w3.org/2000/svg" width="30.634" height="30.634" viewBox="0 0 30.634 30.634">
  <path id="Path_485" data-name="Path 485" d="M0,0H30.634V30.634H0Z" fill="none"/>
  <path id="Rectangle_35" data-name="Rectangle 35" d="M5.313-.75H15.524a6.07,6.07,0,0,1,6.063,6.063V15.524a6.07,6.07,0,0,1-6.063,6.063H5.313A6.07,6.07,0,0,1-.75,15.524V5.313A6.07,6.07,0,0,1,5.313-.75ZM15.524,19.673a4.153,4.153,0,0,0,4.148-4.148V5.313a4.153,4.153,0,0,0-4.148-4.148H5.313A4.153,4.153,0,0,0,1.165,5.313V15.524a4.153,4.153,0,0,0,4.148,4.148Z" transform="translate(4.898 4.898)" fill="#3e3e3e"/>
  <path id="Ellipse_22" data-name="Ellipse 22" d="M4.037-.75A4.787,4.787,0,1,1-.75,4.037,4.792,4.792,0,0,1,4.037-.75Zm0,7.659A2.872,2.872,0,1,0,1.165,4.037,2.875,2.875,0,0,0,4.037,6.909Z" transform="translate(11.28 11.28)" fill="#3e3e3e"/>
  <path id="Line_17" data-name="Line 17" d="M.207,1.166A.958.958,0,1,1,1.165.207h0A.957.957,0,0,1,.207,1.166Z" transform="translate(20.854 9.366)" fill="#3e3e3e"/>
</svg>
