<svg xmlns="http://www.w3.org/2000/svg" width="22.337" height="22.337" viewBox="0 0 22.337 22.337">
  <g id="Group_667" data-name="Group 667" transform="translate(-4.148 -4.148)">
    <path id="Line_20" data-name="Line 20" d="M.207,7.547A.957.957,0,0,1-.75,6.589V.207a.957.957,0,0,1,1.915,0V6.589A.957.957,0,0,1,.207,7.547Z" transform="translate(15.11 13.834)" fill="#3e3e3e"/>
    <g id="Group_666" data-name="Group 666">
      <path id="Rectangle_36" data-name="Rectangle 36" d="M2.76-.75H18.077a3.514,3.514,0,0,1,3.51,3.51V18.077a3.514,3.514,0,0,1-3.51,3.51H2.76a3.514,3.514,0,0,1-3.51-3.51V2.76A3.514,3.514,0,0,1,2.76-.75ZM18.077,19.673a1.6,1.6,0,0,0,1.6-1.6V2.76a1.6,1.6,0,0,0-1.6-1.6H2.76a1.6,1.6,0,0,0-1.6,1.6V18.077a1.6,1.6,0,0,0,1.6,1.6Z" transform="translate(4.898 4.898)" fill="#3e3e3e"/>
      <path id="Line_18" data-name="Line 18" d="M.207,7.547A.957.957,0,0,1-.75,6.589V.207a.957.957,0,0,1,1.915,0V6.589A.957.957,0,0,1,.207,7.547Z" transform="translate(10.004 13.834)" fill="#3e3e3e"/>
      <path id="Line_19" data-name="Line 19" d="M.207,1.177A.957.957,0,0,1-.75.22V.207a.957.957,0,0,1,1.915,0V.22A.957.957,0,0,1,.207,1.177Z" transform="translate(10.004 10.004)" fill="#3e3e3e"/>
      <path id="Path_487" data-name="Path 487" d="M17.313,18.547a.957.957,0,0,1-.957-.957V13.76a1.6,1.6,0,0,0-3.191,0,.957.957,0,0,1-1.915,0,3.51,3.51,0,1,1,7.02,0v3.829A.957.957,0,0,1,17.313,18.547Z" transform="translate(3.11 2.834)" fill="#3e3e3e"/>
    </g>
  </g>
</svg>
