<svg xmlns="http://www.w3.org/2000/svg" width="453.172" height="122.048" viewBox="0 0 453.172 122.048">
  <g id="logo" transform="translate(-380.834 337.067)">
    <path id="Path_1" data-name="Path 1" d="M869.77,88.308l17.387,10.025,34.758-20.067L904.528,68.241Z" transform="translate(-105.109 -374.367)" fill="#cecece" stroke="#707070" stroke-width="1" fill-rule="evenodd"/>
    <path id="Path_2" data-name="Path 2" d="M830.355,40.1V0l34.758,20.05,17.371,10.025L830.355,60.15Z" transform="translate(-83.065 -336.201)" fill="#ffd200" stroke="#707070" stroke-width="1" fill-rule="evenodd"/>
    <path id="Path_3" data-name="Path 3" d="M830.355,131.1l69.516-40.117,7.6,4.393a18.079,18.079,0,0,1,0,31.38L830.355,171.2Z" transform="translate(-83.065 -387.088)" fill="#008c8d" stroke="#707070" stroke-width="1" fill-rule="evenodd"/>
    <path id="Path_4" data-name="Path 4" d="M0,96.174H14.32l-.875,8.379.312.063q5.128-9.38,16.134-9.38,15.758,0,15.758,19.885v4.189H32.142q.25-2.439.25-3.189,0-9.568-7.442-9.568-10.63,0-10.631,14.2v35.206H0Z" transform="translate(381.334 -389.465)" fill="#008c8d" stroke="#707070" stroke-width="1"/>
    <path id="Path_5" data-name="Path 5" d="M133.844,113.813H119.212q0-10.756,5-14.383T144.037,95.8q16.134,0,21.824,4.44t5.691,16.947v39.083h-14.32l.688-8.192-.375-.063q-4.127,8.943-19.073,8.942-21.7,0-21.7-18.447,0-18.635,22.2-18.635,14.82,0,18.01,6.816h.25V117q0-7-2.439-9.255-2.439-2.314-10.005-2.314Q133.844,105.433,133.844,113.813Zm9.568,15.7q-12.131,0-12.131,8.379,0,5.816,2.5,7.629t10.505,1.813q13.069,0,13.069-8.817Q157.357,129.508,143.412,129.508Z" transform="translate(316.026 -389.782)" fill="#008c8d" stroke="#707070" stroke-width="1"/>
    <path id="Path_6" data-name="Path 6" d="M303.888,80.382V91.263H280.877v30.016q0,8.317,6.315,8.317,6.941,0,6.941-10.068v-2.376h12.194v3q0,4.127-.25,7.066-1.188,13.695-20.386,13.695-19.135,0-19.135-17.572V91.263H258.8V80.382h7.754V67h14.32V80.382Z" transform="translate(236.592 -373.673)" fill="#008c8d" stroke="#707070" stroke-width="1"/>
    <path id="Path_7" data-name="Path 7" d="M420.257,137.058H434.64v2.313q0,17.509-26.264,17.509-17.822,0-23.325-6.066t-5.5-25.7q0-17.447,5.753-23.45t22.45-6q16.008,0,21.449,5.878,5.44,5.816,5.44,22.949v4.377H394.181q-.125,2-.125,2.627,0,8.817,2.689,11.756,2.752,2.939,10.881,2.939,7.879,0,10.255-1.688Q420.257,142.749,420.257,137.058Zm.125-16.947-.063-2.376q0-7.128-2.5-9.255-2.439-2.126-10.693-2.126-8,0-10.443,2.564-2.376,2.564-2.376,11.193Z" transform="translate(169.061 -389.702)" fill="#008c8d" stroke="#707070" stroke-width="1"/>
    <path id="Path_487" data-name="Path 487" d="M59.655-59.283V0h-14.2l.806-10.17-.248-.062Q41.858.682,26.913.682,6.759.682,6.759-19.472V-59.283h14.2v36.4q0,7.565,2.108,9.953t8.744,2.387q13.643,0,13.643-16.371v-32.37Zm12.464,0h46.2v12.216L86.568-10.79h31.75V0H69.639V-12.464l31.44-36.029H72.12Z" transform="translate(604 -234)" fill="#c6c6c6" stroke="#707070" stroke-width="1"/>
  </g>
</svg>
