<svg id="Group_655" data-name="Group 655" xmlns="http://www.w3.org/2000/svg" width="30.634" height="30.634" viewBox="0 0 30.634 30.634">
  <path id="Path_484" data-name="Path 484" d="M0,0H30.634V30.634H0Z" fill="none"/>
  <path id="Path_485" data-name="Path 485" d="M20.682,3.149a5.141,5.141,0,0,1,3.5,1.287l.405-.111a15.079,15.079,0,0,0,2.7-.926.957.957,0,0,1,1.4.847h0a.957.957,0,0,1-.036.259,22.88,22.88,0,0,1-1.733,3.9c-.207.4-.458.887-.552,1.1a18.626,18.626,0,0,1-.669,4.9A14.978,14.978,0,0,1,15.282,24.961a14.659,14.659,0,0,1-4.088.565,19.953,19.953,0,0,1-9.445-2.58.957.957,0,0,1,.5-1.8c.125,0,.251.007.375.007A10.453,10.453,0,0,0,7.9,19.64,10.257,10.257,0,0,1,2.926,14c-1.492-4.449.9-8.778,1-8.96a.957.957,0,0,1,1.613-.088,11.228,11.228,0,0,0,3.97,3.476,10.94,10.94,0,0,0,4.506,1.217v-.3A5.959,5.959,0,0,1,17.98,3.674,7.726,7.726,0,0,1,20.682,3.149Zm3.225,3.319a.957.957,0,0,1-.717-.322,3.206,3.206,0,0,0-2.508-1.082,5.828,5.828,0,0,0-2.03.4,4.064,4.064,0,0,0-2.723,3.86s0,.009,0,.013v1.276a.957.957,0,0,1-.933.957c-.118,0-.237,0-.355,0A12.932,12.932,0,0,1,5.011,7.34a9.493,9.493,0,0,0-.265,6.067c.754,2.232,2.6,4,5.5,5.267a.957.957,0,0,1,.148,1.674A18.164,18.164,0,0,1,6.742,22.3q-.508.192-1.012.336a16.6,16.6,0,0,0,5.463.979,12.746,12.746,0,0,0,3.554-.489A13.1,13.1,0,0,0,23.859,13.9a16.7,16.7,0,0,0,.6-4.526c0-.345.131-.617.765-1.844.244-.471.543-1.051.818-1.624-.319.094-.634.181-.946.266s-.612.168-.918.258A.956.956,0,0,1,23.907,6.469Z" transform="translate(0.346 0.871)" fill="#3e3e3e"/>
</svg>
